{
.appVersion = "1350";
DisplayStrings = (
A
);
classes = (
{
code = " zero            one            two            three            four            five            six            seven            eight            nine ";
name = fig_default;
},
{
code = " zero            one            two            three            four            five            six            seven            eight            nine ";
name = fig.align_prop;
},
{
code = " zero.susp_prop  one.susp_prop  two.susp_prop  three.susp_prop  four.susp_prop  five.susp_prop  six.susp_prop  seven.susp_prop  eight.susp_prop  nine.susp_prop ";
name = fig.susp_prop;
}
);
copyright = "Copyright (c) 2016 by Lucas LE BIHAN. All rights reserved. Greek characters added by George Triantafyllakos (atypical.gr | backpacker.gr)\012Polish diacritics added by Maciej Połczyński";
customParameters = (
{
name = description;
value = "Copyright (c) 2016 by Lucas LE BIHAN. All rights reserved. Greek characters added by George Triantafyllakos (atypical.gr | backpacker.gr)";
},
{
name = fsType;
value = (
2
);
},
{
name = vendorID;
value = "VTF ";
},
{
name = openTypeHeadFlags;
value = (
);
},
{
name = compatibleFullName;
value = "Sporting Grotesque";
},
{
name = license;
value = "SIL OFL";
},
{
name = preferredFamilyName;
value = "Sporting Grotesque";
},
{
name = uniqueID;
value = "";
},
{
name = versionString;
value = "Version 2.1";
},
{
name = openTypeNameWWSFamilyName;
value = "";
},
{
name = openTypeNameWWSSubfamilyName;
value = "";
},
{
name = codePageRanges;
value = (
1252,
1253
);
},
{
name = openTypeOS2FamilyClass;
value = (
0,
0
);
},
{
name = openTypeOS2Panose;
value = (
0,
0,
0,
0,
0,
0,
0,
0,
0,
0
);
},
{
name = openTypeOS2Selection;
value = (
);
},
{
name = strikeoutPosition;
value = 250;
},
{
name = strikeoutSize;
value = 50;
},
{
name = openTypeOS2SubscriptXOffset;
value = 0;
},
{
name = openTypeOS2SubscriptXSize;
value = 700;
},
{
name = openTypeOS2SubscriptYOffset;
value = 140;
},
{

glyphs = (
{
glyphname = A;
lastChange = "2021-03-04 10:47:14 +0000";
layers = (
{
anchors = (
{
name = top;
position = "{487, 835}";
}
);
layerId = "C6CCADDD-D708-401D-8889-C4B70B102AC4";
paths = (
{
closed = 1;
nodes = (
"954 0 LINE",
"594 777 LINE",
"380 777 LINE",
"20 0 LINE",
"158 0 LINE",
"269 247 LINE",
"704 247 LINE",
"815 0 LINE"
);
},
{
closed = 1;
nodes = (
"505 692 LINE",
"666 332 LINE",
"308 332 LINE",
"470 692 LINE"
);
}
);
userData = {
com.schriftgestaltung.Glyphs.lastChange = "2018-04-05 15:21:53 +0000";
com.typemytype.robofont.guides = (
{
angle = 0;
isGlobal = 0;
magnetic = 5;
x = 0;
y = 777;
}
);
com.typemytype.robofont.mark = (
0.6,
0.609,
1,
1
);
};
width = 974;
},
{
anchors = (
{
name = top;
position = "{545, 855}";
}
);
layerId = "94CDDA45-35D1-47CC-AC03-9E9335022822";
paths = (
{
closed = 1;
nodes = (
"1053 0 LINE",
"686 777 LINE",
"377 777 LINE",
"10 0 LINE",
"201 0 LINE",
"308 235 LINE",
"754 235 LINE",
"861 0 LINE"
);
},
{
closed = 1;
nodes = (
"557 668 LINE",
"704 345 LINE",
"358 345 LINE",
"506 668 LINE"
);
}
);
userData = {
com.schriftgestaltung.Glyphs.lastChange = "2018-04-05 15:27:41 +0000";
com.typemytype.robofont.guides = (
{
angle = 0;
isGlobal = 0;
magnetic = 5;
x = 0;
y = 797;
}
);
};
width = 1063;
}
);
leftKerningGroup = A;
rightKerningGroup = A;
unicode = 0041;
},
{
glyphname = Aacute;
lastChange = "2021-03-04 10:47:14 +0000";
layers = (
{
components = (
{
name = A;
},
{
name = acute.case;
transform = "{1, 0, 0, 1, -84, 222}";
}
);
layerId = "C6CCADDD-D708-401D-8889-C4B70B102AC4";
userData = {
com.typemytype.robofont.mark = (
0.6,
0.609,
1,
1
);
};
width = 974;
},
{
layerId = "94CDDA45-35D1-47CC-AC03-9E9335022822";
paths = (
{
closed = 1;
nodes = (
"418 875 LINE",
"535 875 LINE",
"764 1019 LINE",
"554 1019 LINE"
);
},
{
closed = 1;
nodes = (
"1053 0 LINE",
"686 777 LINE",
"377 777 LINE",
"10 0 LINE",
"201 0 LINE",
"308 235 LINE",
"754 235 LINE",
"861 0 LINE"
);
},
{
closed = 1;
nodes = (
"557 668 LINE",
"704 345 LINE",
"358 345 LINE",
"506 668 LINE"
);
}
);
userData = {
com.schriftgestaltung.Glyphs.lastChange = "2018-04-05 15:27:41 +0000";
};
width = 1063;
}
);
leftKerningGroup = A;
rightKerningGroup = A;
unicode = 00C1;
},
{
glyphname = Acircumflex;
lastChange = "2021-03-04 10:47:14 +0000";
layers = (
{
components = (
{
name = A;
},
{
name = circumflex.case;
transform = "{1, 0, 0, 1, -114, 222}";
}
);
layerId = "C6CCADDD-D708-401D-8889-C4B70B102AC4";
userData = {
com.typemytype.robofont.mark = (
0.6,
0.609,
1,
1
);
};
width = 974;
},
{
layerId = "94CDDA45-35D1-47CC-AC03-9E9335022822";
paths = (
{
closed = 1;
nodes = (
"284 875 LINE",
"381 875 LINE",
"545 937 LINE",
"709 875 LINE",
"806 875 LINE",
"620 1019 LINE",
"470 1019 LINE"
);
},
{
closed = 1;
nodes = (
"1053 0 LINE",
"686 777 LINE",
"377 777 LINE",
"10 0 LINE",
"201 0 LINE",
"308 235 LINE",
"754 235 LINE",
"861 0 LINE"
);
},
{
closed = 1;
nodes = (
"557 668 LINE",
"704 345 LINE",
"358 345 LINE",
"506 668 LINE"
);
}
);
userData = {
com.schriftgestaltung.Glyphs.lastChange = "2018-04-05 15:27:41 +0000";
};
width = 1063;
}
);
leftKerningGroup = A;
rightKerningGroup = A;
unicode = 00C2;
},
{
glyphname = Adieresis;
lastChange = "2021-03-04 10:47:14 +0000";
layers = (
{
components = (
{
name = A;
},
{
name = dieresis.case;
transform = "{1, 0, 0, 1, 308, 222}";
}
);
layerId = "C6CCADDD-D708-401D-8889-C4B70B102AC4";
userData = {
com.typemytype.robofont.mark = (
0.6,
0.609,
1,
1
);
};
width = 974;
},
{
layerId = "94CDDA45-35D1-47CC-AC03-9E9335022822";
paths = (
{
closed = 1;
nodes = (
"494 869 LINE",
"494 1019 LINE",
"356 1019 LINE",
"356 869 LINE"
);
},
{
closed = 1;
nodes = (
"734 869 LINE",
"734 1019 LINE",
"596 1019 LINE",
"596 869 LINE"
);
},
{
closed = 1;
nodes = (
"1053 0 LINE",
"686 777 LINE",
"377 777 LINE",
"10 0 LINE",
"201 0 LINE",
"308 235 LINE",
"754 235 LINE",
"861 0 LINE"
);
},
{
closed = 1;
nodes = (
"557 668 LINE",
"704 345 LINE",
"358 345 LINE",
"506 668 LINE"
);
}
);
userData = {
com.schriftgestaltung.Glyphs.lastChange = "2018-04-05 15:27:41 +0000";
};
width = 1063;
}
);
leftKerningGroup = A;
rightKerningGroup = A;
unicode = 00C4;
},
{
glyphname = Agrave;
lastChange = "2021-03-04 10:47:14 +0000";
layers = (
{
components = (
{
name = A;
},
{
name = grave.case;
transform = "{1, 0, 0, 1, -84, 222}";
}
);
layerId = "C6CCADDD-D708-401D-8889-C4B70B102AC4";
userData = {
com.typemytype.robofont.mark = (
0.6,
0.609,
1,
1
);
};
width = 974;
},
{
layerId = "94CDDA45-35D1-47CC-AC03-9E9335022822";
paths = (
{
closed = 1;
nodes = (
"507 875 LINE",
"624 875 LINE",
"488 1018 LINE",
"278 1018 LINE"
);
},
{
closed = 1;
nodes = (
"1053 0 LINE",
"686 777 LINE",
"377 777 LINE",
"10 0 LINE",
"201 0 LINE",
"308 235 LINE",
"754 235 LINE",
"861 0 LINE"
);
},
{
closed = 1;
nodes = (
"557 668 LINE",
"704 345 LINE",
"358 345 LINE",
"506 668 LINE"
);
}
);
userData = {
com.schriftgestaltung.Glyphs.lastChange = "2018-04-05 15:27:41 +0000";
};
width = 1063;
}
);
leftKerningGroup = A;
rightKerningGroup = A;
unicode = 00C0;
},
{
glyphname = Aogonek;
lastChange = "2021-03-04 10:47:14 +0000";
layers = (
{
layerId = "C6CCADDD-D708-401D-8889-C4B70B102AC4";
paths = (
{
closed = 1;
nodes = (
"908 -186 OFFCURVE",
"813 -188 OFFCURVE",
"813 -119 CURVE SMOOTH",
"813 -79 OFFCURVE",
"832 -50 OFFCURVE",
"954 0 CURVE",
"594 777 LINE",
"380 777 LINE",
"20 0 LINE",
"158 0 LINE",
"269 247 LINE",
"704 247 LINE",
"815 0 LINE",
"863 0 LINE",
"784 -25 OFFCURVE",
"729 -82 OFFCURVE",
"729 -167 CURVE SMOOTH",
"729 -294 OFFCURVE",
"874 -327 OFFCURVE",
"971 -252 CURVE",
"951 -115 LINE"
);
},
{
closed = 1;
nodes = (
"470 692 LINE",
"505 692 LINE",
"666 332 LINE",
"308 332 LINE"
);
}
);
userData = {
com.schriftgestaltung.Glyphs.lastChange = "2018-04-05 15:26:00 +0000";
};
width = 991;
},
{
layerId = "94CDDA45-35D1-47CC-AC03-9E9335022822";
paths = (
{
closed = 1;
nodes = (
"1007 -174 OFFCURVE",
"910 -183 OFFCURVE",
"910 -114 CURVE SMOOTH",
"910 -81 OFFCURVE",
"932 -48 OFFCURVE",
"1053 0 CURVE",
"686 777 LINE",
"377 777 LINE",
"10 0 LINE",
"201 0 LINE",
"308 235 LINE",
"754 235 LINE",
"861 0 LINE",
"912 0 LINE",
"834 -23 OFFCURVE",
"777 -74 OFFCURVE",
"777 -156 CURVE SMOOTH",
"777 -301 OFFCURVE",
"952 -326 OFFCURVE",
"1074 -252 CURVE",
"1050 -115 LINE"
);
},
{
closed = 1;
nodes = (
"506 668 LINE",
"557 668 LINE",
"704 345 LINE",
"358 345 LINE"
);
}
);
userData = {
com.schriftgestaltung.Glyphs.lastChange = "2018-04-05 15:32:10 +0000";
};
width = 1084;
}
);
leftMetricsKey = A;
rightMetricsKey = A;
unicode = 0104;
},
{
glyphname = Aring;
lastChange = "2021-03-04 10:47:14 +0000";
layers = (
{
components = (
{
name = A;
},
{
name = ring;
transform = "{1, 0, 0, 1, -114, 222}";
}
);
layerId = "C6CCADDD-D708-401D-8889-C4B70B102AC4";
userData = {
com.typemytype.robofont.mark = (
0.6,
0.609,
1,
1
);
};
width = 974;
},
{
layerId = "94CDDA45-35D1-47CC-AC03-9E9335022822";
paths = (
{
closed = 1;
nodes = (
"426 912 OFFCURVE",
"476 862 OFFCURVE",
"545 862 CURVE SMOOTH",
"615 862 OFFCURVE",
"666 912 OFFCURVE",
"666 971 CURVE SMOOTH",
"666 1035 OFFCURVE",
"618 1082 OFFCURVE",
"545 1082 CURVE SMOOTH",
"475 1082 OFFCURVE",
"426 1031 OFFCURVE",
"426 971 CURVE SMOOTH"
);
},
{
closed = 1;
nodes = (
"502 1000 OFFCURVE",
"523 1016 OFFCURVE",
"546 1016 CURVE SMOOTH",
"569 1016 OFFCURVE",
"590 997 OFFCURVE",
"590 972 CURVE SMOOTH",
"590 946 OFFCURVE",
"569 928 OFFCURVE",
"546 928 CURVE SMOOTH",
"523 928 OFFCURVE",
"502 944 OFFCURVE",
"502 972 CURVE SMOOTH"
);
},
{
closed = 1;
nodes = (
"1053 0 LINE",
"686 777 LINE",
"377 777 LINE",
"10 0 LINE",
"201 0 LINE",
"308 235 LINE",
"754 235 LINE",
"861 0 LINE"
);
},
{
closed = 1;
nodes = (
"557 668 LINE",
"704 345 LINE",
"358 345 LINE",
"506 668 LINE"
);
}
);
userData = {
com.schriftgestaltung.Glyphs.lastChange = "2018-04-05 15:27:41 +0000";
};
width = 1063;
}
);
leftKerningGroup = A;
rightKerningGroup = A;
unicode = 00C5;
},
{
glyphname = Atilde;
lastChange = "2021-03-04 10:47:14 +0000";
layers = (
{
components = (
{
name = A;
},
{
name = tilde.case;
transform = "{1, 0, 0, 1, -114, 222}";
}
);
layerId = "C6CCADDD-D708-401D-8889-C4B70B102AC4";
userData = {
com.typemytype.robofont.mark = (
0.6,
0.609,
1,
1
);
};
width = 974;
},
{
layerId = "94CDDA45-35D1-47CC-AC03-9E9335022822";
paths = (
{
closed = 1;
nodes = (
"569 967 OFFCURVE",
"544 1033 OFFCURVE",
"459 1033 CURVE SMOOTH",
"366 1033 OFFCURVE",
"343 925 OFFCURVE",
"343 925 CURVE",
"383 869 LINE",
"383 869 OFFCURVE",
"397 935 OFFCURVE",
"455 935 CURVE SMOOTH",
"525 935 OFFCURVE",
"546 869 OFFCURVE",
"633 869 CURVE SMOOTH",
"726 869 OFFCURVE",
"749 977 OFFCURVE",
"749 977 CURVE",
"709 1033 LINE",
"709 1033 OFFCURVE",
"696 967 OFFCURVE",
"636 967 CURVE SMOOTH"
);
},
{
closed = 1;
nodes = (
"1053 0 LINE",
"686 777 LINE",
"377 777 LINE",
"10 0 LINE",
"201 0 LINE",
"308 235 LINE",
"754 235 LINE",
"861 0 LINE"
);
},
{
closed = 1;
nodes = (
"557 668 LINE",
"704 345 LINE",
"358 345 LINE",
"506 668 LINE"
);
}
);
userData = {
com.schriftgestaltung.Glyphs.lastChange = "2018-04-05 15:27:41 +0000";
};
width = 1063;
}
);
leftKerningGroup = A;
rightKerningGroup = A;
unicode = 00C3;
},
{
glyphname = AE;
lastChange = "2021-03-04 10:47:14 +0000";
layers = (
{
layerId = "C6CCADDD-D708-401D-8889-C4B70B102AC4";
paths = (
{
closed = 1;
nodes = (
"1129 0 LINE",
"1129 85 LINE",
"714 85 LINE",
"714 347 LINE",
"1072 347 LINE",
"1072 432 LINE",
"714 432 LINE",
"714 692 LINE",
"1100 692 LINE",
"1100 777 LINE",
"370 777 LINE",
"10 0 LINE",
"148 0 LINE",
"304 347 LINE",
"584 347 LINE",
"584 0 LINE"
);
},
{
closed = 1;
nodes = (
"584 692 LINE",
"584 432 LINE",
"343 432 LINE",
"460 692 LINE"
);
}
);
userData = {
com.schriftgestaltung.Glyphs.lastChange = "2018-04-05 15:21:53 +0000";
com.typemytype.robofont.guides = (
{
angle = 0;
isGlobal = 0;
magnetic = 5;
x = 0;
y = 432;
}
);
com.typemytype.robofont.mark = (
0.6,
0.609,
1,
1
);
};
width = 1169;
},
{
layerId = "94CDDA45-35D1-47CC-AC03-9E9335022822";
paths = (
{
closed = 1;
nodes = (
"1372 0 LINE",
"1372 110 LINE",
"865 110 LINE",
"865 333 LINE",
"1313 333 LINE",
"1313 442 LINE",
"865 442 LINE",
"865 668 LINE",
"1342 668 LINE",
"1342 777 LINE",
"377 777 LINE",
"10 0 LINE",
"201 0 LINE",
"353 333 LINE",
"687 333 LINE",
"687 0 LINE"
);
},
{
closed = 1;
nodes = (
"687 668 LINE",
"687 442 LINE",
"403 442 LINE",
"506 668 LINE"
);
}
);
userData = {
com.schriftgestaltung.Glyphs.lastChange = "2018-04-05 15:27:41 +0000";
};
width = 1412;
}
);
unicode = 00C6;
},
{
glyphname = B;
lastChange = "2021-03-04 10:47:14 +0000";
layers = (
{
layerId = "C6CCADDD-D708-401D-8889-C4B70B102AC4";
paths = (
{
closed = 1;
nodes = (
"789 408 OFFCURVE",
"602 418 OFFCURVE",
"602 418 CURVE",
"602 418 OFFCURVE",
"769 436 OFFCURVE",
"769 587 CURVE",
"769 710 OFFCURVE",
"660 777 OFFCURVE",
"420 777 CURVE SMOOTH",
"90 777 LINE",
"90 0 LINE",
"440 0 LINE SMOOTH",
"680 0 OFFCURVE",
"789 74 OFFCURVE",
"789 221 CURVE"
);
},
{
closed = 1;
nodes = (
"220 692 LINE",
"420 692 LINE SMOOTH",
"540 692 OFFCURVE",
"632 667 OFFCURVE",
"632 567 CURVE SMOOTH",
"632 467 OFFCURVE",
"540 441 OFFCURVE",
"420 441 CURVE SMOOTH",
"220 441 LINE"
);
},
{
closed = 1;
nodes = (
"440 356 LINE SMOOTH",
"560 356 OFFCURVE",
"652 331 OFFCURVE",
"652 221 CURVE SMOOTH",
"652 111 OFFCURVE",
"560 85 OFFCURVE",
"440 85 CURVE SMOOTH",
"220 85 LINE",
"220 356 LINE"
);
}
);
userData = {
com.schriftgestaltung.Glyphs.lastChange = "2018-04-05 15:21:53 +0000";
com.typemytype.robofont.guides = (
{
angle = 0;
isGlobal = 0;
magnetic = 5;
x = 0;
y = 567;
}
);
com.typemytype.robofont.mark = (
0.6,
0.609,
1,
1
);
};
width = 849;
},
{
layerId = "94CDDA45-35D1-47CC-AC03-9E9335022822";
paths = (
{
closed = 1;
nodes = (
"90 777 LINE",
"90 0 LINE",
"476 0 LINE SMOOTH",
"742 0 OFFCURVE",
"862 79 OFFCURVE",
"862 227 CURVE SMOOTH",
"862 375 OFFCURVE",
"714 401 OFFCURVE",
"700 403 CURVE",
"713 405 OFFCURVE",
"842 430 OFFCURVE",
"842 560 CURVE SMOOTH",
"842 708 OFFCURVE",
"722 777 OFFCURVE",
"456 777 CURVE SMOOTH"
);
},
{
closed = 1;
nodes = (
"268 452 LINE",
"268 668 LINE",
"466 668 LINE SMOOTH",
"580 668 OFFCURVE",
"657 640 OFFCURVE",
"657 560 CURVE SMOOTH",
"657 480 OFFCURVE",
"580 452 OFFCURVE",
"466 452 CURVE SMOOTH"
);
},
{
closed = 1;
nodes = (
"268 346 LINE",
"495 346 LINE SMOOTH",
"604 346 OFFCURVE",
"677 306 OFFCURVE",
"677 228 CURVE SMOOTH",
"677 148 OFFCURVE",
"600 110 OFFCURVE",
"486 110 CURVE SMOOTH",
"268 110 LINE"
);
}
);
userData = {
com.schriftgestaltung.Glyphs.lastChange = "2018-04-05 15:27:41 +0000";
com.typemytype.robofont.guides = (
{
angle = 0;
isGlobal = 0;
magnetic = 5;
x = 0;
y = 587;
}
);
};
width = 922;
}
);
unicode = 0042;
},
{
glyphname = C;
lastChange = "2021-03-04 10:47:14 +0000";
layers = (
{
anchors = (
{
name = bottom;
position = "{484, -29}";
},
{
name = top;
position = "{484, 835}";
}
);
layerId = "C6CCADDD-D708-401D-8889-C4B70B102AC4";
paths = (
{
closed = 1;
nodes = (
"903 469 OFFCURVE",
"871 791 OFFCURVE",
"493 791 CURVE",
"217 791 OFFCURVE",
"60 622 OFFCURVE",
"60 388 CURVE SMOOTH",
"60 155 OFFCURVE",
"227 -14 OFFCURVE",
"503 -14 CURVE",
"893 -14 OFFCURVE",
"924 293 OFFCURVE",
"924 293 CURVE",
"790 332 LINE",
"790 332 OFFCURVE",
"784 85 OFFCURVE",
"503 85 CURVE",
"315 85 OFFCURVE",
"197 217 OFFCURVE",
"197 388 CURVE SMOOTH",
"197 560 OFFCURVE",
"305 692 OFFCURVE",
"493 692 CURVE",
"759 692 OFFCURVE",
"769 429 OFFCURVE",
"769 429 CURVE",
"903 469 LINE"
);
}
);
userData = {
com.schriftgestaltung.Glyphs.lastChange = "2018-04-05 15:21:53 +0000";
com.typemytype.robofont.mark = (
0.6,
0.609,
1,
1
);
};
width = 984;
},
{
anchors = (
{
name = bottom;
position = "{532, -9}";
},
{
name = top;
position = "{532, 855}";
}
);
layerId = "94CDDA45-35D1-47CC-AC03-9E9335022822";
paths = (
{
closed = 1;
nodes = (
"1001 452 OFFCURVE",
"1004 791 OFFCURVE",
"538 791 CURVE SMOOTH",
"247 791 OFFCURVE",
"60 623 OFFCURVE",
"60 389 CURVE SMOOTH",
"60 156 OFFCURVE",
"251 -13 OFFCURVE",
"539 -13 CURVE SMOOTH",
"977 -13 OFFCURVE",
"1023 291 OFFCURVE",
"1023 291 CURVE",
"840 338 LINE",
"840 338 OFFCURVE",
"844 110 OFFCURVE",
"539 110 CURVE SMOOTH",
"363 110 OFFCURVE",
"245 217 OFFCURVE",
"245 389 CURVE SMOOTH",
"245 552 OFFCURVE",
"345 668 OFFCURVE",
"539 668 CURVE SMOOTH",
"848 668 OFFCURVE",
"818 402 OFFCURVE",
"818 402 CURVE",
"1001 452 LINE"
);
}
);
userData = {
com.schriftgestaltung.Glyphs.lastChange = "2018-04-05 15:27:41 +0000";
};
width = 1073;
}
);
leftKerningGroup = O;
rightKerningGroup = O;
unicode = 0043;
},
{
glyphname = Cacute;
lastChange = "2021-03-04 10:47:14 +0000";
layers = (
{
layerId = "C6CCADDD-D708-401D-8889-C4B70B102AC4";
paths = (
{
closed = 1;
nodes = (
"578 1069 LINE",
"462 881 LINE",
"529 881 LINE",
"728 1069 LINE"
);
},
{
closed = 1;
nodes = (
"790 332 OFFCURVE",
"784 85 OFFCURVE",
"503 85 CURVE SMOOTH",
"315 85 OFFCURVE",
"197 217 OFFCURVE",
"197 388 CURVE SMOOTH",
"197 560 OFFCURVE",
"305 692 OFFCURVE",
"493 692 CURVE SMOOTH",
"759 692 OFFCURVE",
"769 429 OFFCURVE",
"769 429 CURVE",
"903 469 LINE",
"903 469 OFFCURVE",
"871 791 OFFCURVE",
"493 791 CURVE SMOOTH",
"217 791 OFFCURVE",
"60 622 OFFCURVE",
"60 388 CURVE SMOOTH",
"60 155 OFFCURVE",
"227 -14 OFFCURVE",
"503 -14 CURVE SMOOTH",
"893 -14 OFFCURVE",
"924 293 OFFCURVE",
"924 293 CURVE",
"790 332 LINE"
);
}
);
userData = {
com.schriftgestaltung.Glyphs.lastChange = "2018-04-05 15:26:04 +0000";
};
width = 984;
},
{
layerId = "94CDDA45-35D1-47CC-AC03-9E9335022822";
paths = (
{
closed = 1;
nodes = (
"564 1019 LINE",
"428 875 LINE",
"545 875 LINE",
"774 1019 LINE"
);
},
{
closed = 1;
nodes = (
"1001 452 OFFCURVE",
"1004 791 OFFCURVE",
"538 791 CURVE SMOOTH",
"247 791 OFFCURVE",
"60 623 OFFCURVE",
"60 389 CURVE SMOOTH",
"60 156 OFFCURVE",
"251 -13 OFFCURVE",
"539 -13 CURVE SMOOTH",
"977 -13 OFFCURVE",
"1023 291 OFFCURVE",
"1023 291 CURVE",
"840 338 LINE",
"840 338 OFFCURVE",
"844 110 OFFCURVE",
"539 110 CURVE SMOOTH",
"363 110 OFFCURVE",
"245 217 OFFCURVE",
"245 389 CURVE SMOOTH",
"245 552 OFFCURVE",
"345 668 OFFCURVE",
"539 668 CURVE SMOOTH",
"848 668 OFFCURVE",
"818 402 OFFCURVE",
"818 402 CURVE",
"1001 452 LINE"
);
}
);
userData = {
com.schriftgestaltung.Glyphs.lastChange = "2018-04-05 15:32:14 +0000";
};
width = 1073;
}
);
leftMetricsKey = C;
rightMetricsKey = C;
unicode = 0106;
},
{
glyphname = Ccedilla;
lastChange = "2021-03-04 10:47:14 +0000";
layers = (
{
components = (
{
name = C;
},
{
name = cedilla;
transform = "{1, 0, 0, 1, 132, 0}";
}
);
layerId = "C6CCADDD-D708-401D-8889-C4B70B102AC4";
userData = {
com.typemytype.robofont.mark = (
0.6,
0.609,
1,
1
);
};
width = 984;
},
{
layerId = "94CDDA45-35D1-47CC-AC03-9E9335022822";
paths = (
{
closed = 1;
nodes = (
"1001 452 OFFCURVE",
"1004 791 OFFCURVE",
"538 791 CURVE SMOOTH",
"247 791 OFFCURVE",
"60 623 OFFCURVE",
"60 389 CURVE SMOOTH",
"60 171 OFFCURVE",
"227 9 OFFCURVE",
"484 -10 CURVE",
"454 -96 LINE",
"506 -106 LINE",
"506 -106 OFFCURVE",
"519 -84 OFFCURVE",
"545 -84 CURVE SMOOTH",
"570 -84 OFFCURVE",
"587 -100 OFFCURVE",
"587 -124 CURVE SMOOTH",
"587 -152 OFFCURVE",
"561 -169 OFFCURVE",
"520 -169 CURVE SMOOTH",
"458 -169 OFFCURVE",
"425 -125 OFFCURVE",
"424 -122 CURVE",
"406 -190 LINE",
"406 -190 OFFCURVE",
"446 -237 OFFCURVE",
"530 -237 CURVE SMOOTH",
"598 -237 OFFCURVE",
"667 -198 OFFCURVE",
"667 -124 CURVE SMOOTH",
"667 -71 OFFCURVE",
"632 -38 OFFCURVE",
"580 -38 CURVE SMOOTH",
"547 -38 OFFCURVE",
"526 -55 OFFCURVE",
"526 -55 CURVE",
"541 -13 LINE",
"977 -12 OFFCURVE",
"1023 291 OFFCURVE",
"1023 291 CURVE",
"840 338 LINE",
"840 338 OFFCURVE",
"844 110 OFFCURVE",
"539 110 CURVE SMOOTH",
"363 110 OFFCURVE",
"245 217 OFFCURVE",
"245 389 CURVE SMOOTH",
"245 552 OFFCURVE",
"345 668 OFFCURVE",
"539 668 CURVE SMOOTH",
"848 668 OFFCURVE",
"818 402 OFFCURVE",
"818 402 CURVE",
"1001 452 LINE"
);
}
);
userData = {
com.schriftgestaltung.Glyphs.lastChange = "2018-04-05 15:27:41 +0000";
};
width = 1073;
}
);
leftKerningGroup = O;
rightKerningGroup = O;
unicode = 00C7;
},
{
glyphname = D;
lastChange = "2021-03-04 10:47:14 +0000";
layers = (
{
layerId = "C6CCADDD-D708-401D-8889-C4B70B102AC4";
paths = (
{
closed = 1;
nodes = (
"90 777 LINE",
"90 0 LINE",
"440 0 LINE SMOOTH",
"700 0 OFFCURVE",
"863 148 OFFCURVE",
"863 388 CURVE SMOOTH",
"863 629 OFFCURVE",
"700 777 OFFCURVE",
"440 777 CURVE SMOOTH"
);
},
{
closed = 1;
nodes = (
"380 692 LINE SMOOTH",
"600 692 OFFCURVE",
"726 588 OFFCURVE",
"726 388 CURVE SMOOTH",
"726 188 OFFCURVE",
"600 85 OFFCURVE",
"380 85 CURVE SMOOTH",
"220 85 LINE",
"220 692 LINE"
);
}
);
userData = {
com.schriftgestaltung.Glyphs.lastChange = "2018-04-05 15:21:53 +0000";
com.typemytype.robofont.mark = (
0.6,
0.609,
1,
1
);
};
width = 923;
},
{
layerId = "94CDDA45-35D1-47CC-AC03-9E9335022822";
paths = (
{
closed = 1;
nodes = (
"90 777 LINE",
"90 0 LINE",
"477 0 LINE SMOOTH",
"742 0 OFFCURVE",
"940 148 OFFCURVE",
"940 388 CURVE SMOOTH",
"940 629 OFFCURVE",
"742 777 OFFCURVE",
"477 777 CURVE SMOOTH"
);
},
{
closed = 1;
nodes = (
"414 668 LINE SMOOTH",
"641 668 OFFCURVE",
"755 566 OFFCURVE",
"755 388 CURVE SMOOTH",
"755 210 OFFCURVE",
"641 110 OFFCURVE",
"414 110 CURVE SMOOTH",
"268 110 LINE",
"268 668 LINE"
);
}
);
userData = {
com.schriftgestaltung.Glyphs.lastChange = "2018-04-05 15:27:41 +0000";
};
width = 1000;
}
);
unicode = 0044;
},
{
glyphname = E;
lastChange = "2021-03-04 10:47:14 +0000";
layers = (
{
anchors = (
{
name = top;
position = "{427, 835}";
}
);
layerId = "C6CCADDD-D708-401D-8889-C4B70B102AC4";
paths = (
{
closed = 1;
nodes = (
"705 0 LINE",
"705 85 LINE",
"220 85 LINE",
"220 347 LINE",
"648 347 LINE",
"648 432 LINE",
"220 432 LINE",
"220 692 LINE",
"676 692 LINE",
"676 777 LINE",
"90 777 LINE",
"90 0 LINE"
);
}
);
userData = {
com.schriftgestaltung.Glyphs.lastChange = "2018-04-05 15:21:53 +0000";
com.typemytype.robofont.mark = (
0.6,
0.609,
1,
1
);
};
width = 745;
},
{
anchors = (
{
name = top;
position = "{470, 855}";
}
);
layerId = "94CDDA45-35D1-47CC-AC03-9E9335022822";
paths = (
{
closed = 1;
nodes = (
"775 0 LINE",
"775 110 LINE",
"268 110 LINE",
"268 333 LINE",
"716 333 LINE",
"716 442 LINE",
"268 442 LINE",
"268 668 LINE",
"745 668 LINE",
"745 777 LINE",
"90 777 LINE",
"90 0 LINE"
);
}
);
userData = {
com.schriftgestaltung.Glyphs.lastChange = "2018-04-05 15:27:41 +0000";
};
width = 815;
}
);
unicode = 0045;
},
{
glyphname = Eacute;
lastChange = "2021-03-04 10:47:14 +0000";
layers = (
{
components = (
{
name = E;
},
{
name = acute.case;
transform = "{1, 0, 0, 1, -174, 222}";
}
);
layerId = "C6CCADDD-D708-401D-8889-C4B70B102AC4";
userData = {
com.typemytype.robofont.mark = (
0.6,
0.609,
1,
1
);
};
width = 745;
},
{
layerId = "94CDDA45-35D1-47CC-AC03-9E9335022822";
paths = (
{
closed = 1;
nodes = (
"323 875 LINE",
"440 875 LINE",
"669 1019 LINE",
"459 1019 LINE"
);
},
{
closed = 1;
nodes = (
"775 0 LINE",
"775 110 LINE",
"268 110 LINE",
"268 333 LINE",
"716 333 LINE",
"716 442 LINE",
"268 442 LINE",
"268 668 LINE",
"745 668 LINE",
"745 777 LINE",
"90 777 LINE",
"90 0 LINE"
);
}
);
userData = {
com.schriftgestaltung.Glyphs.lastChange = "2018-04-05 15:27:41 +0000";
};
width = 815;
}
);
unicode = 00C9;
},
{
glyphname = Ecircumflex;
lastChange = "2021-03-04 10:47:14 +0000";
layers = (
{
components = (
{
name = E;
},
{
name = circumflex.case;
transform = "{1, 0, 0, 1, -174, 222}";
}
);
layerId = "C6CCADDD-D708-401D-8889-C4B70B102AC4";
userData = {
com.typemytype.robofont.mark = (
0.6,
0.609,
1,
1
);
};
width = 745;
},
{
layerId = "94CDDA45-35D1-47CC-AC03-9E9335022822";
paths = (
{
closed = 1;
nodes = (
"169 875 LINE",
"266 875 LINE",
"430 937 LINE",
"594 875 LINE",
"691 875 LINE",
"505 1019 LINE",
"355 1019 LINE"
);
},
{
closed = 1;
nodes = (
"775 0 LINE",
"775 110 LINE",
"268 110 LINE",
"268 333 LINE",
"716 333 LINE",
"716 442 LINE",
"268 442 LINE",
"268 668 LINE",
"745 668 LINE",
"745 777 LINE",
"90 777 LINE",
"90 0 LINE"
);
}
);
userData = {
com.schriftgestaltung.Glyphs.lastChange = "2018-04-05 15:27:41 +0000";
};
width = 815;
}
);
unicode = 00CA;
},
{
glyphname = Edieresis;
lastChange = "2021-03-04 10:47:14 +0000";
layers = (
{
components = (
{
name = E;
},
{
name = dieresis.case;
transform = "{1, 0, 0, 1, 248, 222}";
}
);
layerId = "C6CCADDD-D708-401D-8889-C4B70B102AC4";
userData = {
com.typemytype.robofont.mark = (
0.6,
0.609,
1,
1
);
};
width = 745;
},
{
layerId = "94CDDA45-35D1-47CC-AC03-9E9335022822";
paths = (
{
closed = 1;
nodes = (
"389 869 LINE",
"389 1019 LINE",
"251 1019 LINE",
"251 869 LINE"
);
},
{
closed = 1;
nodes = (
"629 869 LINE",
"629 1019 LINE",
"491 1019 LINE",
"491 869 LINE"
);
},
{
closed = 1;
nodes = (
"775 0 LINE",
"775 110 LINE",
"268 110 LINE",
"268 333 LINE",
"716 333 LINE",
"716 442 LINE",
"268 442 LINE",
"268 668 LINE",
"745 668 LINE",
"745 777 LINE",
"90 777 LINE",
"90 0 LINE"
);
}
);
userData = {
com.schriftgestaltung.Glyphs.lastChange = "2018-04-05 15:27:41 +0000";
};
width = 815;
}
);
unicode = 00CB;
},
{
glyphname = Egrave;
lastChange = "2021-03-04 10:47:14 +0000";
layers = (
{
components = (
{
name = E;
},
{
name = grave.case;
transform = "{1, 0, 0, 1, -174, 222}";
}
);
layerId = "C6CCADDD-D708-401D-8889-C4B70B102AC4";
userData = {
com.typemytype.robofont.mark = (
0.6,
0.609,
1,
1
);
};
width = 745;
},
{
layerId = "94CDDA45-35D1-47CC-AC03-9E9335022822";
paths = (
{
closed = 1;
nodes = (
"442 875 LINE",
"559 875 LINE",
"423 1018 LINE",
"213 1018 LINE"
);
},
{
closed = 1;
nodes = (
"775 0 LINE",
"775 110 LINE",
"268 110 LINE",
"268 333 LINE",
"716 333 LINE",
"716 442 LINE",
"268 442 LINE",
"268 668 LINE",
"745 668 LINE",
"745 777 LINE",
"90 777 LINE",
"90 0 LINE"
);
}
);
userData = {
com.schriftgestaltung.Glyphs.lastChange = "2018-04-05 15:27:41 +0000";
};
width = 815;
}
);
unicode = 00C8;
},
{
glyphname = Eogonek;
lastChange = "2021-03-04 10:47:14 +0000";
layers = (
{
layerId = "C6CCADDD-D708-401D-8889-C4B70B102AC4";
paths = (
{
closed = 1;
nodes = (
"659 -186 OFFCURVE",
"564 -188 OFFCURVE",
"564 -119 CURVE SMOOTH",
"564 -79 OFFCURVE",
"583 -50 OFFCURVE",
"705 0 CURVE",
"705 85 LINE",
"220 85 LINE",
"220 347 LINE",
"648 347 LINE",
"648 432 LINE",
"220 432 LINE",
"220 692 LINE",
"676 692 LINE",
"676 777 LINE",
"90 777 LINE",
"90 0 LINE",
"614 0 LINE",
"535 -25 OFFCURVE",
"480 -82 OFFCURVE",
"480 -167 CURVE SMOOTH",
"480 -294 OFFCURVE",
"625 -327 OFFCURVE",
"722 -252 CURVE",
"702 -115 LINE"
);
}
);
userData = {
com.schriftgestaltung.Glyphs.lastChange = "2018-04-05 15:26:07 +0000";
};
width = 782;
},
{
layerId = "94CDDA45-35D1-47CC-AC03-9E9335022822";
paths = (
{
closed = 1;
nodes = (
"728 -174 OFFCURVE",
"631 -183 OFFCURVE",
"631 -114 CURVE SMOOTH",
"631 -81 OFFCURVE",
"653 -48 OFFCURVE",
"774 0 CURVE",
"775 0 LINE",
"775 110 LINE",
"268 110 LINE",
"268 333 LINE",
"716 333 LINE",
"716 442 LINE",
"268 442 LINE",
"268 668 LINE",
"745 668 LINE",
"745 777 LINE",
"90 777 LINE",
"90 0 LINE",
"633 0 LINE",
"555 -23 OFFCURVE",
"498 -74 OFFCURVE",
"498 -156 CURVE SMOOTH",
"498 -301 OFFCURVE",
"673 -326 OFFCURVE",
"795 -252 CURVE",
"771 -115 LINE"
);
}
);
userData = {
com.schriftgestaltung.Glyphs.lastChange = "2018-04-05 15:32:16 +0000";
};
width = 835;
}
);
leftMetricsKey = E;
rightMetricsKey = e;
unicode = 0118;
},
{
glyphname = F;
lastChange = "2021-03-04 10:47:14 +0000";
layers = (
{
anchors = (
{
name = top;
position = "{427, 835}";
}
);
layerId = "C6CCADDD-D708-401D-8889-C4B70B102AC4";
paths = (
{
closed = 1;
nodes = (
"220 0 LINE",
"220 347 LINE",
"648 347 LINE",
"648 432 LINE",
"220 432 LINE",
"220 692 LINE",
"676 692 LINE",
"676 777 LINE",
"90 777 LINE",
"90 0 LINE"
);
}
);
userData = {
com.schriftgestaltung.Glyphs.lastChange = "2018-04-05 15:21:53 +0000";
com.typemytype.robofont.mark = (
0.6,
0.609,
1,
1
);
};
width = 696;
},
{
anchors = (
{
name = top;
position = "{470, 855}";
}
);
layerId = "94CDDA45-35D1-47CC-AC03-9E9335022822";
paths = (
{
closed = 1;
nodes = (
"268 0 LINE",
"268 333 LINE",
"716 333 LINE",
"716 442 LINE",
"268 442 LINE",
"268 668 LINE",
"744 668 LINE",
"744 777 LINE",
"90 777 LINE",
"90 0 LINE"
);
}
);
userData = {
com.schriftgestaltung.Glyphs.lastChange = "2018-04-05 15:27:41 +0000";
};
width = 764;
}
);
unicode = 0046;
},
{
glyphname = G;
lastChange = "2021-03-04 10:47:14 +0000";
layers = (
{
layerId = "C6CCADDD-D708-401D-8889-C4B70B102AC4";
paths = (
{
closed = 1;
nodes = (
"900 499 OFFCURVE",
"854 791 OFFCURVE",
"493 791 CURVE SMOOTH",
"217 791 OFFCURVE",
"60 622 OFFCURVE",
"60 388 CURVE SMOOTH",
"60 155 OFFCURVE",
"217 -14 OFFCURVE",
"463 -14 CURVE SMOOTH",
"703 -14 OFFCURVE",
"757 150 OFFCURVE",
"757 150 CURVE",
"757 0 LINE",
"887 0 LINE",
"887 394 LINE",
"464 394 LINE",
"464 309 LINE",
"757 309 LINE",
"757 309 OFFCURVE",
"742 85 OFFCURVE",
"483 85 CURVE",
"305 85 OFFCURVE",
"197 217 OFFCURVE",
"197 388 CURVE SMOOTH",
"197 560 OFFCURVE",
"305 692 OFFCURVE",
"493 692 CURVE SMOOTH",
"743 692 OFFCURVE",
"766 459 OFFCURVE",
"766 459 CURVE",
"900 499 LINE"
);
}
);
userData = {
com.schriftgestaltung.Glyphs.lastChange = "2018-04-05 15:21:53 +0000";
com.typemytype.robofont.mark = (
0.6,
0.609,
1,
1
);
};
width = 983;
},
{
layerId = "94CDDA45-35D1-47CC-AC03-9E9335022822";
paths = (
{
closed = 1;
nodes = (
"991 512 OFFCURVE",
"961 791 OFFCURVE",
"535 791 CURVE SMOOTH",
"243 791 OFFCURVE",
"60 622 OFFCURVE",
"60 388 CURVE SMOOTH",
"60 155 OFFCURVE",
"253 -13 OFFCURVE",
"506 -13 CURVE",
"736 -13 OFFCURVE",
"800 115 OFFCURVE",
"800 115 CURVE",
"800 0 LINE",
"967 0 LINE",
"967 413 LINE",
"483 413 LINE",
"483 304 LINE",
"800 304 LINE",
"800 304 OFFCURVE",
"779 110 OFFCURVE",
"534 110 CURVE SMOOTH",
"353 110 OFFCURVE",
"245 229 OFFCURVE",
"245 388 CURVE SMOOTH",
"245 541 OFFCURVE",
"337 668 OFFCURVE",
"534 668 CURVE SMOOTH",
"805 668 OFFCURVE",
"808 462 OFFCURVE",
"808 462 CURVE",
"991 512 LINE"
);
}
);
userData = {
com.schriftgestaltung.Glyphs.lastChange = "2018-04-05 15:27:41 +0000";
};
width = 1071;
}
);
unicode = 0047;
},
{
glyphname = H;
lastChange = "2021-03-04 10:47:14 +0000";
layers = (
{
layerId = "C6CCADDD-D708-401D-8889-C4B70B102AC4";
paths = (
{
closed = 1;
nodes = (
"840 0 LINE",
"840 777 LINE",
"710 777 LINE",
"710 432 LINE",
"220 432 LINE",
"220 777 LINE",
"90 777 LINE",
"90 0 LINE",
"220 0 LINE",
"220 347 LINE",
"710 347 LINE",
"710 0 LINE"
);
}
);
userData = {
com.schriftgestaltung.Glyphs.lastChange = "2018-04-05 15:21:53 +0000";
com.typemytype.robofont.mark = (
0.6,
0.609,
1,
1
);
};
width = 930;
},
{
layerId = "94CDDA45-35D1-47CC-AC03-9E9335022822";
paths = (
{
closed = 1;
nodes = (
"916 0 LINE",
"916 777 LINE",
"738 777 LINE",
"738 442 LINE",
"268 442 LINE",
"268 777 LINE",
"90 777 LINE",
"90 0 LINE",
"268 0 LINE",
"268 333 LINE",
"738 333 LINE",
"738 0 LINE"
);
}
);
userData = {
com.schriftgestaltung.Glyphs.lastChange = "2018-04-05 15:27:41 +0000";
};
width = 1006;
}
);
unicode = 0048;
},
{
glyphname = I;
lastChange = "2021-03-04 10:47:14 +0000";
layers = (
{
anchors = (
{
name = top;
position = "{165, 835}";
}
);
layerId = "C6CCADDD-D708-401D-8889-C4B70B102AC4";
paths = (
{
closed = 1;
nodes = (
"90 0 LINE",
"220 0 LINE",
"220 777 LINE",
"90 777 LINE"
);
}
);
userData = {
com.schriftgestaltung.Glyphs.lastChange = "2018-04-05 15:21:53 +0000";
com.typemytype.robofont.mark = (
0.6,
0.609,
1,
1
);
};
width = 310;
},
{
anchors = (
{
name = top;
position = "{195, 855}";
}
);
layerId = "94CDDA45-35D1-47CC-AC03-9E9335022822";
paths = (
{
closed = 1;
nodes = (
"90 0 LINE",
"268 0 LINE",
"268 777 LINE",
"90 777 LINE"
);
}
);
userData = {
com.schriftgestaltung.Glyphs.lastChange = "2018-04-05 15:27:41 +0000";
};
width = 358;
}
);
unicode = 0049;
},
{
glyphname = Iacute;
lastChange = "2021-03-04 10:47:14 +0000";
layers = (
{
components = (
{
name = I;
},
{
name = acute.case;
transform = "{1, 0, 0, 1, -436, 222}";
}
);
layerId = "C6CCADDD-D708-401D-8889-C4B70B102AC4";
userData = {
com.typemytype.robofont.mark = (
0.6,
0.609,
1,
1
);
};
width = 310;
},
{
layerId = "94CDDA45-35D1-47CC-AC03-9E9335022822";
paths = (
{
closed = 1;
nodes = (
"80 875 LINE",
"197 875 LINE",
"426 1019 LINE",
"216 1019 LINE"
);
},
{
closed = 1;
nodes = (
"90 0 LINE",
"268 0 LINE",
"268 777 LINE",
"90 777 LINE"
);
}
);
userData = {
com.schriftgestaltung.Glyphs.lastChange = "2018-04-05 15:27:41 +0000";
};
width = 358;
}
);
unicode = 00CD;
},
{
glyphname = Icircumflex;
lastChange = "2021-03-04 10:47:14 +0000";
layers = (
{
components = (
{
name = I;
},
{
name = circumflex.case;
transform = "{1, 0, 0, 1, -436, 222}";
}
);
layerId = "C6CCADDD-D708-401D-8889-C4B70B102AC4";
userData = {
com.typemytype.robofont.mark = (
0.6,
0.609,
1,
1
);
};
width = 310;
},
{
layerId = "94CDDA45-35D1-47CC-AC03-9E9335022822";
paths = (
{
closed = 1;
nodes = (
"-82 875 LINE",
"15 875 LINE",
"179 937 LINE",
"343 875 LINE",
"440 875 LINE",
"254 1019 LINE",
"104 1019 LINE"
);
},
{
closed = 1;
nodes = (
"90 0 LINE",
"268 0 LINE",
"268 777 LINE",
"90 777 LINE"
);
}
);
userData = {
com.schriftgestaltung.Glyphs.lastChange = "2018-04-05 15:27:41 +0000";
};
width = 358;
}
);
unicode = 00CE;
},
{
glyphname = Idieresis;
lastChange = "2021-03-04 10:47:14 +0000";
layers = (
{
components = (
{
name = I;
},
{
name = dieresis.case;
transform = "{1, 0, 0, 1, -14, 222}";
}
);
layerId = "C6CCADDD-D708-401D-8889-C4B70B102AC4";
userData = {
com.typemytype.robofont.mark = (
0.6,
0.609,
1,
1
);
};
width = 310;
},
{
layerId = "94CDDA45-35D1-47CC-AC03-9E9335022822";
paths = (
{
closed = 1;
nodes = (
"128 869 LINE",
"128 1019 LINE",
"-10 1019 LINE",
"-10 869 LINE"
);
},
{
closed = 1;
nodes = (
"368 869 LINE",
"368 1019 LINE",
"230 1019 LINE",
"230 869 LINE"
);
},
{
closed = 1;
nodes = (
"90 0 LINE",
"268 0 LINE",
"268 777 LINE",
"90 777 LINE"
);
}
);
userData = {
com.schriftgestaltung.Glyphs.lastChange = "2018-04-05 15:27:41 +0000";
};
width = 358;
}
);
unicode = 00CF;
},
{
glyphname = Igrave;
lastChange = "2021-03-04 10:47:14 +0000";
layers = (
{
components = (
{
name = I;
},
{
name = grave.case;
transform = "{1, 0, 0, 1, -436, 222}";
}
);
layerId = "C6CCADDD-D708-401D-8889-C4B70B102AC4";
userData = {
com.typemytype.robofont.mark = (
0.6,
0.609,
1,
1
);
};
width = 310;
},
{
layerId = "94CDDA45-35D1-47CC-AC03-9E9335022822";
paths = (
{
closed = 1;
nodes = (
"161 875 LINE",
"278 875 LINE",
"142 1018 LINE",
"-68 1018 LINE"
);
},
{
closed = 1;
nodes = (
"90 0 LINE",
"268 0 LINE",
"268 777 LINE",
"90 777 LINE"
);
}
);
userData = {
com.schriftgestaltung.Glyphs.lastChange = "2018-04-05 15:27:41 +0000";
};
width = 358;
}
);
unicode = 00CC;
},
{
glyphname = J;
lastChange = "2021-03-04 10:47:14 +0000";
layers = (
{
layerId = "C6CCADDD-D708-401D-8889-C4B70B102AC4";
paths = (
{
closed = 1;
nodes = (
"60 293 LINE",
"62 83 OFFCURVE",
"184 -14 OFFCURVE",
"372 -14 CURVE",
"562 -14 OFFCURVE",
"684 85 OFFCURVE",
"684 299 CURVE",
"684 777 LINE",
"554 777 LINE",
"554 299 LINE",
"554 177 OFFCURVE",
"497 85 OFFCURVE",
"372 85 CURVE",
"247 85 OFFCURVE",
"190 177 OFFCURVE",
"190 299 CURVE",
"190 317 OFFCURVE",
"194 332 OFFCURVE",
"194 332 CURVE"
);
}
);
userData = {
com.schriftgestaltung.Glyphs.lastChange = "2018-04-05 15:21:53 +0000";
com.typemytype.robofont.guides = (
{
angle = 90;
isGlobal = 0;
magnetic = 5;
x = 372;
y = 0;
}
);
com.typemytype.robofont.mark = (
0.6,
0.609,
1,
1
);
};
width = 774;
},
{
layerId = "94CDDA45-35D1-47CC-AC03-9E9335022822";
paths = (
{
closed = 1;
nodes = (
"20 87 OFFCURVE",
"167 -13 OFFCURVE",
"376 -13 CURVE SMOOTH",
"587 -13 OFFCURVE",
"734 87 OFFCURVE",
"734 303 CURVE",
"734 777 LINE",
"556 777 LINE",
"556 289 LINE SMOOTH",
"556 184 OFFCURVE",
"520 110 OFFCURVE",
"376 110 CURVE",
"221 110 OFFCURVE",
"193 210 OFFCURVE",
"203 350 CURVE",
"20 303 LINE"
);
}
);
userData = {
com.schriftgestaltung.Glyphs.lastChange = "2018-04-05 15:27:41 +0000";
com.typemytype.robofont.guides = (
{
angle = 90;
isGlobal = 0;
magnetic = 5;
x = 396;
y = 0;
}
);
};
width = 824;
}
);
unicode = 004A;
},
{
glyphname = K;
lastChange = "2021-03-04 10:47:14 +0000";
layers = (
{
layerId = "C6CCADDD-D708-401D-8889-C4B70B102AC4";
paths = (
{
closed = 1;
nodes = (
"842 0 LINE",
"432 467 LINE",
"782 777 LINE",
"622 777 LINE",
"220 409 LINE",
"220 777 LINE",
"90 777 LINE",
"90 0 LINE",
"220 0 LINE",
"220 280 LINE",
"347 393 LINE",
"692 0 LINE"
);
}
);
userData = {
com.schriftgestaltung.Glyphs.lastChange = "2018-04-05 15:21:53 +0000";
com.typemytype.robofont.guides = (
{
angle = 90;
isGlobal = 0;
magnetic = 5;
x = 841;
y = 0;
}
);
com.typemytype.robofont.mark = (
0.6,
0.609,
1,
1
);
};
width = 862;
},
{
layerId = "94CDDA45-35D1-47CC-AC03-9E9335022822";
paths = (
{
closed = 1;
nodes = (
"952 0 LINE",
"514 442 LINE",
"922 777 LINE",
"700 777 LINE",
"268 411 LINE",
"268 777 LINE",
"90 777 LINE",
"90 0 LINE",
"268 0 LINE",
"268 238 LINE",
"399 347 LINE",
"730 0 LINE"
);
}
);
userData = {
com.schriftgestaltung.Glyphs.lastChange = "2018-04-05 15:27:41 +0000";
com.typemytype.robofont.guides = (
{
angle = 90;
isGlobal = 0;
magnetic = 5;
x = 925;
y = 0;
}
);
};
width = 912;
}
);
unicode = 004B;
},
{
glyphname = L;
lastChange = "2021-03-04 10:47:14 +0000";
layers = (
{
layerId = "C6CCADDD-D708-401D-8889-C4B70B102AC4";
paths = (
{
closed = 1;
nodes = (
"665 0 LINE",
"665 85 LINE",
"220 85 LINE",
"220 777 LINE",
"90 777 LINE",
"90 0 LINE"
);
}
);
userData = {
com.schriftgestaltung.Glyphs.lastChange = "2018-04-05 15:21:53 +0000";
com.typemytype.robofont.mark = (
0.6,
0.609,
1,
1
);
};
width = 665;
},
{
layerId = "94CDDA45-35D1-47CC-AC03-9E9335022822";
paths = (
{
closed = 1;
nodes = (
"733 0 LINE",
"733 110 LINE",
"268 110 LINE",
"268 777 LINE",
"90 777 LINE",
"90 0 LINE"
);
}
);
userData = {
com.schriftgestaltung.Glyphs.lastChange = "2018-04-05 15:27:41 +0000";
};
width = 743;
}
);
unicode = 004C;
},
{
glyphname = Lslash;
lastChange = "2021-03-04 10:47:14 +0000";
layers = (
{
layerId = "C6CCADDD-D708-401D-8889-C4B70B102AC4";
paths = (
{
closed = 1;
nodes = (
"282 338 LINE",
"614 590 LINE",
"555 663 LINE",
"282 439 LINE",
"282 777 LINE",
"152 777 LINE",
"152 332 LINE",
"40 240 LINE",
"80 185 LINE",
"152 240 LINE",
"152 0 LINE",
"727 0 LINE",
"727 85 LINE",
"282 85 LINE"
);
}
);
userData = {
com.schriftgestaltung.Glyphs.lastChange = "2018-04-05 15:26:16 +0000";
};
width = 727;
},
{
layerId = "94CDDA45-35D1-47CC-AC03-9E9335022822";
paths = (
{
closed = 1;
nodes = (
"310 337 LINE",
"654 560 LINE",
"595 663 LINE",
"310 463 LINE",
"310 777 LINE",
"132 777 LINE",
"132 338 LINE",
"20 260 LINE",
"60 175 LINE",
"132 222 LINE",
"132 0 LINE",
"775 0 LINE",
"775 110 LINE",
"310 110 LINE"
);
}
);
userData = {
com.schriftgestaltung.Glyphs.lastChange = "2018-04-05 15:32:26 +0000";
};
width = 785;
}
);
rightMetricsKey = L;
unicode = 0141;
},
{
glyphname = M;
lastChange = "2021-03-04 10:47:14 +0000";
layers = (
{
layerId = "C6CCADDD-D708-401D-8889-C4B70B102AC4";
paths = (
{
closed = 1;
nodes = (
"290 777 LINE",
"90 777 LINE",
"90 0 LINE",
"220 0 LINE",
"220 642 LINE",
"526 0 LINE",
"696 0 LINE",
"1002 642 LINE",
"1002 0 LINE",
"1132 0 LINE",
"1132 777 LINE",
"932 777 LINE",
"611 85 LINE"
);
}
);
userData = {
com.schriftgestaltung.Glyphs.lastChange = "2018-04-05 15:21:53 +0000";
com.typemytype.robofont.mark = (
0.6,
0.609,
1,
1
);
};
width = 1222;
},
{
layerId = "94CDDA45-35D1-47CC-AC03-9E9335022822";
paths = (
{
closed = 1;
nodes = (
"397 777 LINE",
"90 777 LINE",
"90 0 LINE",
"268 0 LINE",
"268 668 LINE",
"569 0 LINE",
"743 0 LINE",
"1044 668 LINE",
"1044 0 LINE",
"1222 0 LINE",
"1222 777 LINE",
"915 777 LINE",
"656 170 LINE"
);
}
);
userData = {
com.schriftgestaltung.Glyphs.lastChange = "2018-04-05 15:27:41 +0000";
};
width = 1312;
}
);
unicode = 004D;
},
{
glyphname = N;
lastChange = "2021-03-04 10:47:14 +0000";
layers = (
{
layerId = "C6CCADDD-D708-401D-8889-C4B70B102AC4";
paths = (
{
closed = 1;
nodes = (
"711 777 LINE",
"711 135 LINE",
"250 777 LINE",
"90 777 LINE",
"90 0 LINE",
"220 0 LINE",
"220 642 LINE",
"681 0 LINE",
"841 0 LINE",
"841 777 LINE"
);
}
);
userData = {
com.schriftgestaltung.Glyphs.lastChange = "2018-04-05 15:21:53 +0000";
com.typemytype.robofont.mark = (
0.6,
0.609,
1,
1
);
};
width = 931;
},
{
layerId = "94CDDA45-35D1-47CC-AC03-9E9335022822";
paths = (
{
closed = 1;
nodes = (
"739 777 LINE",
"739 170 LINE",
"333 777 LINE",
"90 777 LINE",
"90 0 LINE",
"268 0 LINE",
"268 607 LINE",
"674 0 LINE",
"917 0 LINE",
"917 777 LINE"
);
}
);
userData = {
com.schriftgestaltung.Glyphs.lastChange = "2018-04-05 15:27:41 +0000";
};
width = 1007;
}
);
unicode = 004E;
},
{
glyphname = Nacute;
lastChange = "2021-03-04 10:47:14 +0000";
layers = (
{
layerId = "C6CCADDD-D708-401D-8889-C4B70B102AC4";
paths = (
{
closed = 1;
nodes = (
"498 1069 LINE",
"382 881 LINE",
"449 881 LINE",
"648 1069 LINE"
);
},
{
closed = 1;
nodes = (
"841 777 LINE",
"711 777 LINE",
"711 135 LINE",
"250 777 LINE",
"90 777 LINE",
"90 0 LINE",
"220 0 LINE",
"220 642 LINE",
"681 0 LINE",
"841 0 LINE"
);
}
);
userData = {
com.schriftgestaltung.Glyphs.lastChange = "2018-04-05 15:26:22 +0000";
};
width = 931;
},
{
layerId = "94CDDA45-35D1-47CC-AC03-9E9335022822";
paths = (
{
closed = 1;
nodes = (
"574 1019 LINE",
"438 875 LINE",
"555 875 LINE",
"784 1019 LINE"
);
},
{
closed = 1;
nodes = (
"917 777 LINE",
"739 777 LINE",
"739 170 LINE",
"333 777 LINE",
"90 777 LINE",
"90 0 LINE",
"268 0 LINE",
"268 607 LINE",
"674 0 LINE",
"917 0 LINE"
);
}
);
userData = {
com.schriftgestaltung.Glyphs.lastChange = "2018-04-05 15:32:29 +0000";
};
width = 1007;
}
);
leftMetricsKey = N;
rightMetricsKey = N;
unicode = 0143;
},
{
glyphname = Ntilde;
lastChange = "2021-03-04 10:47:14 +0000";
layers = (
{
components = (
{
name = N;
},
{
name = tilde.case;
transform = "{1, 0, 0, 1, -136, 220}";
}
);
layerId = "C6CCADDD-D708-401D-8889-C4B70B102AC4";
userData = {
com.typemytype.robofont.mark = (
0.6,
0.609,
1,
1
);
};
width = 931;
},
{
layerId = "94CDDA45-35D1-47CC-AC03-9E9335022822";
paths = (
{
closed = 1;
nodes = (
"527 960 OFFCURVE",
"502 1026 OFFCURVE",
"417 1026 CURVE",
"324 1026 OFFCURVE",
"301 918 OFFCURVE",
"301 918 CURVE",
"341 862 LINE",
"341 862 OFFCURVE",
"355 928 OFFCURVE",
"413 928 CURVE",
"483 928 OFFCURVE",
"504 862 OFFCURVE",
"591 862 CURVE SMOOTH",
"684 862 OFFCURVE",
"707 970 OFFCURVE",
"707 970 CURVE",
"667 1026 LINE",
"667 1026 OFFCURVE",
"654 960 OFFCURVE",
"594 960 CURVE"
);
},
{
closed = 1;
nodes = (
"739 777 LINE",
"739 170 LINE",
"333 777 LINE",
"90 777 LINE",
"90 0 LINE",
"268 0 LINE",
"268 607 LINE",
"674 0 LINE",
"917 0 LINE",
"917 777 LINE"
);
}
);
userData = {
com.schriftgestaltung.Glyphs.lastChange = "2018-04-05 15:27:41 +0000";
};
width = 1007;
}
);
unicode = 00D1;
},
{
glyphname = O;
lastChange = "2021-03-04 10:47:14 +0000";
layers = (
{
anchors = (
{
name = top;
position = "{514, 835}";
}
);
layerId = "C6CCADDD-D708-401D-8889-C4B70B102AC4";
paths = (
{
closed = 1;
nodes = (
"967 622 OFFCURVE",
"789 791 OFFCURVE",
"513 791 CURVE SMOOTH",
"237 791 OFFCURVE",
"60 622 OFFCURVE",
"60 388 CURVE SMOOTH",
"60 155 OFFCURVE",
"237 -14 OFFCURVE",
"513 -14 CURVE SMOOTH",
"789 -14 OFFCURVE",
"967 155 OFFCURVE",
"967 388 CURVE"
);
},
{
closed = 1;
nodes = (
"830 217 OFFCURVE",
"702 85 OFFCURVE",
"513 85 CURVE SMOOTH",
"325 85 OFFCURVE",
"197 217 OFFCURVE",
"197 388 CURVE SMOOTH",
"197 560 OFFCURVE",
"325 692 OFFCURVE",
"513 692 CURVE SMOOTH",
"702 692 OFFCURVE",
"830 560 OFFCURVE",
"830 388 CURVE"
);
}
);
userData = {
com.schriftgestaltung.Glyphs.lastChange = "2018-04-05 15:21:53 +0000";
com.typemytype.robofont.mark = (
0.6,
0.609,
1,
1
);
};
width = 1027;
},
{
anchors = (
{
name = top;
position = "{569, 855}";
}
);
layerId = "94CDDA45-35D1-47CC-AC03-9E9335022822";
paths = (
{
closed = 1;
nodes = (
"60 155 OFFCURVE",
"255 -13 OFFCURVE",
"555 -13 CURVE SMOOTH",
"855 -13 OFFCURVE",
"1050 155 OFFCURVE",
"1050 389 CURVE SMOOTH",
"1050 623 OFFCURVE",
"855 791 OFFCURVE",
"555 791 CURVE SMOOTH",
"255 791 OFFCURVE",
"60 623 OFFCURVE",
"60 389 CURVE"
);
},
{
closed = 1;
nodes = (
"245 542 OFFCURVE",
"339 668 OFFCURVE",
"555 668 CURVE SMOOTH",
"771 668 OFFCURVE",
"865 542 OFFCURVE",
"865 389 CURVE SMOOTH",
"865 236 OFFCURVE",
"771 110 OFFCURVE",
"555 110 CURVE SMOOTH",
"339 110 OFFCURVE",
"245 236 OFFCURVE",
"245 389 CURVE"
);
}
);
userData = {
com.schriftgestaltung.Glyphs.lastChange = "2018-04-05 15:27:41 +0000";
};
width = 1110;
}
);
leftKerningGroup = O;
rightKerningGroup = O;
unicode = 004F;
},
{
glyphname = Oacute;
lastChange = "2021-03-04 10:47:14 +0000";
layers = (
{
components = (
{
name = O;
},
{
name = acute.case;
transform = "{1, 0, 0, 1, -87, 222}";
}
);
layerId = "C6CCADDD-D708-401D-8889-C4B70B102AC4";
userData = {
com.typemytype.robofont.mark = (
0.6,
0.609,
1,
1
);
};
width = 1027;
},
{
layerId = "94CDDA45-35D1-47CC-AC03-9E9335022822";
paths = (
{
closed = 1;
nodes = (
"442 875 LINE",
"559 875 LINE",
"788 1019 LINE",
"578 1019 LINE"
);
},
{
closed = 1;
nodes = (
"60 155 OFFCURVE",
"255 -13 OFFCURVE",
"555 -13 CURVE SMOOTH",
"855 -13 OFFCURVE",
"1050 155 OFFCURVE",
"1050 389 CURVE SMOOTH",
"1050 623 OFFCURVE",
"855 791 OFFCURVE",
"555 791 CURVE SMOOTH",
"255 791 OFFCURVE",
"60 623 OFFCURVE",
"60 389 CURVE"
);
},
{
closed = 1;
nodes = (
"245 542 OFFCURVE",
"339 668 OFFCURVE",
"555 668 CURVE SMOOTH",
"771 668 OFFCURVE",
"865 542 OFFCURVE",
"865 389 CURVE SMOOTH",
"865 236 OFFCURVE",
"771 110 OFFCURVE",
"555 110 CURVE SMOOTH",
"339 110 OFFCURVE",
"245 236 OFFCURVE",
"245 389 CURVE"
);
}
);
userData = {
com.schriftgestaltung.Glyphs.lastChange = "2018-04-05 15:27:41 +0000";
};
width = 1110;
}
);
leftKerningGroup = O;
rightKerningGroup = O;
unicode = 00D3;
},
{
glyphname = Ocircumflex;
lastChange = "2021-03-04 10:47:14 +0000";
layers = (
{
components = (
{
name = O;
},
{
name = circumflex.case;
transform = "{1, 0, 0, 1, -59, 222}";
}
);
layerId = "C6CCADDD-D708-401D-8889-C4B70B102AC4";
userData = {
com.typemytype.robofont.mark = (
0.6,
0.609,
1,
1
);
};
width = 1027;
},
{
layerId = "94CDDA45-35D1-47CC-AC03-9E9335022822";
paths = (
{
closed = 1;
nodes = (
"293 875 LINE",
"390 875 LINE",
"554 937 LINE",
"718 875 LINE",
"815 875 LINE",
"629 1019 LINE",
"479 1019 LINE"
);
},
{
closed = 1;
nodes = (
"60 155 OFFCURVE",
"255 -13 OFFCURVE",
"555 -13 CURVE SMOOTH",
"855 -13 OFFCURVE",
"1050 155 OFFCURVE",
"1050 389 CURVE SMOOTH",
"1050 623 OFFCURVE",
"855 791 OFFCURVE",
"555 791 CURVE SMOOTH",
"255 791 OFFCURVE",
"60 623 OFFCURVE",
"60 389 CURVE"
);
},
{
closed = 1;
nodes = (
"245 542 OFFCURVE",
"339 668 OFFCURVE",
"555 668 CURVE SMOOTH",
"771 668 OFFCURVE",
"865 542 OFFCURVE",
"865 389 CURVE SMOOTH",
"865 236 OFFCURVE",
"771 110 OFFCURVE",
"555 110 CURVE SMOOTH",
"339 110 OFFCURVE",
"245 236 OFFCURVE",
"245 389 CURVE"
);
}
);
userData = {
com.schriftgestaltung.Glyphs.lastChange = "2018-04-05 15:27:41 +0000";
};
width = 1110;
}
);
leftKerningGroup = O;
rightKerningGroup = O;
unicode = 00D4;
},
{
glyphname = Ograve;
lastChange = "2021-03-04 10:47:14 +0000";
layers = (
{
components = (
{
name = O;
},
{
name = grave.case;
transform = "{1, 0, 0, 1, -87, 222}";
}
);
layerId = "C6CCADDD-D708-401D-8889-C4B70B102AC4";
userData = {
com.typemytype.robofont.mark = (
0.6,
0.609,
1,
1
);
};
width = 1027;
},
{
layerId = "94CDDA45-35D1-47CC-AC03-9E9335022822";
paths = (
{
closed = 1;
nodes = (
"531 875 LINE",
"648 875 LINE",
"512 1018 LINE",
"302 1018 LINE"
);
},
{
closed = 1;
nodes = (
"60 155 OFFCURVE",
"255 -13 OFFCURVE",
"555 -13 CURVE SMOOTH",
"855 -13 OFFCURVE",
"1050 155 OFFCURVE",
"1050 389 CURVE SMOOTH",
"1050 623 OFFCURVE",
"855 791 OFFCURVE",
"555 791 CURVE SMOOTH",
"255 791 OFFCURVE",
"60 623 OFFCURVE",
"60 389 CURVE"
);
},
{
closed = 1;
nodes = (
"245 542 OFFCURVE",
"339 668 OFFCURVE",
"555 668 CURVE SMOOTH",
"771 668 OFFCURVE",
"865 542 OFFCURVE",
"865 389 CURVE SMOOTH",
"865 236 OFFCURVE",
"771 110 OFFCURVE",
"555 110 CURVE SMOOTH",
"339 110 OFFCURVE",
"245 236 OFFCURVE",
"245 389 CURVE"
);
}
);
userData = {
com.schriftgestaltung.Glyphs.lastChange = "2018-04-05 15:27:41 +0000";
};
width = 1110;
}
);
leftKerningGroup = O;
rightKerningGroup = O;
unicode = 00D2;
},
{
glyphname = Oslash;
lastChange = "2021-03-04 10:47:14 +0000";
layers = (
{
hints = (
{
horizontal = 1;
place = "{-1, 21}";
target = up;
type = BottomGhost;
},
{
horizontal = 1;
place = "{820, -20}";
type = Stem;
}
);
layerId = "C6CCADDD-D708-401D-8889-C4B70B102AC4";
paths = (
{
closed = 1;
nodes = (
"967 574 OFFCURVE",
"854 720 OFFCURVE",
"668 771 CURVE",
"700 866 LINE",
"649 882 LINE {name = hr00;}",
"616 783 LINE",
"584 788 OFFCURVE",
"549 791 OFFCURVE",
"513 791 CURVE SMOOTH",
"237 791 OFFCURVE",
"60 622 OFFCURVE",
"60 388 CURVE SMOOTH",
"60 202 OFFCURVE",
"173 56 OFFCURVE",
"360 6 CURVE",
"328 -90 LINE",
"377 -105 LINE",
"410 -6 LINE",
"443 -11 OFFCURVE",
"477 -14 OFFCURVE",
"513 -14 CURVE SMOOTH",
"789 -14 OFFCURVE",
"967 155 OFFCURVE",
"967 388 CURVE"
);
},
{
closed = 1;
nodes = (
"197 560 OFFCURVE",
"325 692 OFFCURVE",
"513 692 CURVE SMOOTH",
"538 692 OFFCURVE",
"562 690 OFFCURVE",
"584 685 CURVE",
"392 105 LINE",
"272 148 OFFCURVE",
"197 257 OFFCURVE",
"197 388 CURVE SMOOTH"
);
},
{
closed = 1;
nodes = (
"830 217 OFFCURVE",
"702 85 OFFCURVE",
"513 85 CURVE SMOOTH",
"488 85 OFFCURVE",
"465 87 OFFCURVE",
"442 92 CURVE",
"635 671 LINE",
"755 628 OFFCURVE",
"830 520 OFFCURVE",
"830 388 CURVE"
);
}
);
userData = {
com.schriftgestaltung.Glyphs.lastChange = "2018-04-05 15:21:53 +0000";
com.typemytype.robofont.mark = (
0.6,
0.609,
1,
1
);
};
width = 1027;
},
{
layerId = "94CDDA45-35D1-47CC-AC03-9E9335022822";
paths = (
{
closed = 1;
nodes = (
"60 199 OFFCURVE",
"188 53 OFFCURVE",
"396 4 CURVE",
"365 -90 LINE",
"414 -105 LINE",
"447 -5 LINE",
"481 -10 OFFCURVE",
"517 -13 OFFCURVE",
"555 -13 CURVE SMOOTH",
"855 -13 OFFCURVE",
"1050 155 OFFCURVE",
"1050 389 CURVE SMOOTH",
"1050 581 OFFCURVE",
"919 728 OFFCURVE",
"706 775 CURVE",
"737 866 LINE",
"686 882 LINE",
"654 784 LINE",
"622 789 OFFCURVE",
"589 791 OFFCURVE",
"555 791 CURVE SMOOTH",
"255 791 OFFCURVE",
"60 623 OFFCURVE",
"60 389 CURVE SMOOTH"
);
},
{
closed = 1;
nodes = (
"245 542 OFFCURVE",
"339 668 OFFCURVE",
"555 668 CURVE SMOOTH",
"576 668 OFFCURVE",
"595 667 OFFCURVE",
"614 664 CURVE",
"436 125 LINE",
"304 163 OFFCURVE",
"245 267 OFFCURVE",
"245 389 CURVE SMOOTH"
);
},
{
closed = 1;
nodes = (
"865 236 OFFCURVE",
"771 110 OFFCURVE",
"555 110 CURVE SMOOTH",
"531 110 OFFCURVE",
"508 111 OFFCURVE",
"487 114 CURVE",
"666 654 LINE",
"803 618 OFFCURVE",
"865 512 OFFCURVE",
"865 389 CURVE SMOOTH"
);
}
);
userData = {
com.schriftgestaltung.Glyphs.lastChange = "2018-04-05 15:27:41 +0000";
};
width = 1110;
}
);
leftKerningGroup = O;
rightKerningGroup = O;
unicode = 00D8;
},
{
glyphname = OE;
lastChange = "2021-03-04 10:47:14 +0000";
layers = (
{
layerId = "C6CCADDD-D708-401D-8889-C4B70B102AC4";
paths = (
{
closed = 1;
nodes = (
"1128 85 LINE",
"760 85 LINE",
"833 149 OFFCURVE",
"876 240 OFFCURVE",
"885 347 CURVE",
"1071 347 LINE",
"1071 432 LINE",
"885 432 LINE",
"876 538 OFFCURVE",
"832 629 OFFCURVE",
"760 692 CURVE",
"1099 692 LINE",
"1099 777 LINE",
"594 777 LINE",
"557 786 OFFCURVE",
"516 791 OFFCURVE",
"473 791 CURVE SMOOTH",
"217 791 OFFCURVE",
"60 622 OFFCURVE",
"60 388 CURVE SMOOTH",
"60 155 OFFCURVE",
"217 -14 OFFCURVE",
"473 -14 CURVE SMOOTH",
"516 -14 OFFCURVE",
"557 -9 OFFCURVE",
"594 0 CURVE",
"1128 0 LINE"
);
},
{
closed = 1;
nodes = (
"748 347 LINE",
"732 196 OFFCURVE",
"628 85 OFFCURVE",
"473 85 CURVE SMOOTH",
"305 85 OFFCURVE",
"197 217 OFFCURVE",
"197 388 CURVE SMOOTH",
"197 560 OFFCURVE",
"305 692 OFFCURVE",
"473 692 CURVE SMOOTH",
"627 692 OFFCURVE",
"731 582 OFFCURVE",
"748 432 CURVE",
"603 432 LINE",
"603 347 LINE"
);
}
);
userData = {
com.schriftgestaltung.Glyphs.lastChange = "2018-04-05 15:21:53 +0000";
com.typemytype.robofont.mark = (
0.6,
0.609,
1,
1
);
};
width = 1168;
},
{
layerId = "94CDDA45-35D1-47CC-AC03-9E9335022822";
paths = (
{
closed = 1;
nodes = (
"60 155 OFFCURVE",
"255 -13 OFFCURVE",
"555 -13 CURVE SMOOTH",
"603 -13 OFFCURVE",
"649 -8 OFFCURVE",
"692 0 CURVE",
"1375 0 LINE",
"1375 110 LINE",
"926 110 LINE",
"992 168 OFFCURVE",
"1033 245 OFFCURVE",
"1046 333 CURVE",
"1316 333 LINE",
"1316 442 LINE",
"1046 442 LINE",
"1034 531 OFFCURVE",
"992 609 OFFCURVE",
"926 668 CURVE",
"1345 668 LINE",
"1345 777 LINE",
"702 776 LINE",
"657 785 OFFCURVE",
"607 791 OFFCURVE",
"555 791 CURVE SMOOTH",
"255 791 OFFCURVE",
"60 623 OFFCURVE",
"60 389 CURVE SMOOTH"
);
},
{
closed = 1;
nodes = (
"245 542 OFFCURVE",
"339 668 OFFCURVE",
"555 668 CURVE SMOOTH",
"745 668 OFFCURVE",
"841 570 OFFCURVE",
"861 442 CURVE",
"668 442 LINE",
"668 333 LINE",
"860 333 LINE",
"839 206 OFFCURVE",
"744 110 OFFCURVE",
"555 110 CURVE SMOOTH",
"339 110 OFFCURVE",
"245 236 OFFCURVE",
"245 389 CURVE SMOOTH"
);
}
);
userData = {
com.schriftgestaltung.Glyphs.lastChange = "2018-04-05 15:27:41 +0000";
};
width = 1415;
}
);
unicode = 0152;
},
{
glyphname = P;
lastChange = "2021-03-04 10:47:14 +0000";
layers = (
{
layerId = "C6CCADDD-D708-401D-8889-C4B70B102AC4";
paths = (
{
closed = 1;
nodes = (
"90 0 LINE",
"220 0 LINE",
"220 356 LINE",
"420 356 LINE SMOOTH",
"660 356 OFFCURVE",
"769 424 OFFCURVE",
"769 567 CURVE SMOOTH",
"769 710 OFFCURVE",
"660 777 OFFCURVE",
"420 777 CURVE SMOOTH",
"90 777 LINE"
);
},
{
closed = 1;
nodes = (
"220 692 LINE",
"420 692 LINE SMOOTH",
"540 692 OFFCURVE",
"632 667 OFFCURVE",
"632 567 CURVE SMOOTH",
"632 467 OFFCURVE",
"540 441 OFFCURVE",
"420 441 CURVE SMOOTH",
"220 441 LINE"
);
}
);
userData = {
com.schriftgestaltung.Glyphs.lastChange = "2018-04-05 15:21:53 +0000";
com.typemytype.robofont.guides = (
{
angle = 90;
isGlobal = 0;
magnetic = 5;
x = 420;
y = 0;
}
);
com.typemytype.robofont.mark = (
0.6,
0.609,
1,
1
);
};
width = 789;
},
{
layerId = "94CDDA45-35D1-47CC-AC03-9E9335022822";
paths = (
{
closed = 1;
nodes = (
"90 0 LINE",
"268 0 LINE",
"268 333 LINE",
"456 333 LINE SMOOTH",
"722 333 OFFCURVE",
"842 407 OFFCURVE",
"842 555 CURVE SMOOTH",
"842 703 OFFCURVE",
"722 777 OFFCURVE",
"456 777 CURVE SMOOTH",
"90 777 LINE"
);
},
{
closed = 1;
nodes = (
"268 668 LINE",
"466 668 LINE SMOOTH",
"580 668 OFFCURVE",
"657 635 OFFCURVE",
"657 555 CURVE SMOOTH",
"657 475 OFFCURVE",
"580 442 OFFCURVE",
"466 442 CURVE SMOOTH",
"268 442 LINE"
);
}
);
userData = {
com.schriftgestaltung.Glyphs.lastChange = "2018-04-05 15:27:41 +0000";
com.typemytype.robofont.guides = (
{
angle = 90;
isGlobal = 0;
magnetic = 5;
x = 462;
y = 0;
}
);
};
width = 862;
}
);
unicode = 0050;
},
{
glyphname = Q;
lastChange = "2021-03-04 10:47:14 +0000";
layers = (
{
anchors = (
{
name = top;
position = "{514, 835}";
}
);
layerId = "C6CCADDD-D708-401D-8889-C4B70B102AC4";
paths = (
{
closed = 1;
nodes = (
"893 -46 OFFCURVE",
"879 -117 OFFCURVE",
"759 -117 CURVE",
"689 -117 OFFCURVE",
"654 -92 OFFCURVE",
"654 -36 CURVE",
"654 0 OFFCURVE",
"682 10 OFFCURVE",
"682 10 CURVE",
"859 64 OFFCURVE",
"967 207 OFFCURVE",
"967 388 CURVE",
"967 622 OFFCURVE",
"789 791 OFFCURVE",
"513 791 CURVE SMOOTH",
"237 791 OFFCURVE",
"60 622 OFFCURVE",
"60 388 CURVE SMOOTH",
"60 155 OFFCURVE",
"237 -14 OFFCURVE",
"513 -14 CURVE SMOOTH",
"543 -14 OFFCURVE",
"572 -12 OFFCURVE",
"600 -8 CURVE",
"591 -25 OFFCURVE",
"586 -47 OFFCURVE",
"586 -72 CURVE",
"587 -138 OFFCURVE",
"630 -215 OFFCURVE",
"760 -215 CURVE",
"887 -215 OFFCURVE",
"922 -153 OFFCURVE",
"922 -153 CURVE",
"893 -46 LINE"
);
},
{
closed = 1;
nodes = (
"830 217 OFFCURVE",
"702 85 OFFCURVE",
"513 85 CURVE SMOOTH",
"325 85 OFFCURVE",
"197 217 OFFCURVE",
"197 388 CURVE SMOOTH",
"197 560 OFFCURVE",
"325 692 OFFCURVE",
"513 692 CURVE SMOOTH",
"702 692 OFFCURVE",
"830 560 OFFCURVE",
"830 388 CURVE"
);
}
);
userData = {
com.schriftgestaltung.Glyphs.lastChange = "2018-04-05 15:21:53 +0000";
com.typemytype.robofont.mark = (
0.6,
0.609,
1,
1
);
};
width = 1027;
},
{
anchors = (
{
name = top;
position = "{565, 855}";
}
);
layerId = "94CDDA45-35D1-47CC-AC03-9E9335022822";
paths = (
{
closed = 1;
nodes = (
"60 155 OFFCURVE",
"255 -13 OFFCURVE",
"555 -13 CURVE SMOOTH",
"584 -13 OFFCURVE",
"611 -11 OFFCURVE",
"638 -8 CURVE",
"628 -13 OFFCURVE",
"612 -27 OFFCURVE",
"612 -73 CURVE SMOOTH",
"613 -130 OFFCURVE",
"657 -204 OFFCURVE",
"809 -204 CURVE SMOOTH",
"954 -204 OFFCURVE",
"1000 -134 OFFCURVE",
"1000 -134 CURVE",
"964 -13 LINE",
"964 -13 OFFCURVE",
"931 -73 OFFCURVE",
"807 -73 CURVE SMOOTH",
"748 -73 OFFCURVE",
"719 -55 OFFCURVE",
"719 -15 CURVE SMOOTH",
"719 3 OFFCURVE",
"737 10 OFFCURVE",
"741 11 CURVE SMOOTH",
"933 66 OFFCURVE",
"1050 208 OFFCURVE",
"1050 389 CURVE SMOOTH",
"1050 623 OFFCURVE",
"855 791 OFFCURVE",
"555 791 CURVE SMOOTH",
"255 791 OFFCURVE",
"60 623 OFFCURVE",
"60 389 CURVE SMOOTH"
);
},
{
closed = 1;
nodes = (
"245 542 OFFCURVE",
"339 668 OFFCURVE",
"555 668 CURVE SMOOTH",
"771 668 OFFCURVE",
"865 542 OFFCURVE",
"865 389 CURVE SMOOTH",
"865 236 OFFCURVE",
"771 110 OFFCURVE",
"555 110 CURVE SMOOTH",
"339 110 OFFCURVE",
"245 236 OFFCURVE",
"245 389 CURVE SMOOTH"
);
}
);
userData = {
com.schriftgestaltung.Glyphs.lastChange = "2018-04-05 15:27:41 +0000";
};
width = 1130;
}
);
leftKerningGroup = O;
rightKerningGroup = O;
unicode = 0051;
},
{
glyphname = R;
lastChange = "2021-03-04 10:47:14 +0000";
layers = (
{
layerId = "C6CCADDD-D708-401D-8889-C4B70B102AC4";
paths = (
{
closed = 1;
nodes = (
"90 0 LINE",
"220 0 LINE",
"220 356 LINE",
"350 356 LINE SMOOTH",
"515 356 OFFCURVE",
"567 324 OFFCURVE",
"588 236 CURVE SMOOTH",
"630 59 OFFCURVE",
"639 20 OFFCURVE",
"654 0 CURVE",
"789 0 LINE",
"774 20 OFFCURVE",
"765 54 OFFCURVE",
"712 258 CURVE SMOOTH",
"689 348 OFFCURVE",
"607 382 OFFCURVE",
"534 391 CURVE",
"669 391 OFFCURVE",
"769 448 OFFCURVE",
"769 567 CURVE SMOOTH",
"769 710 OFFCURVE",
"660 777 OFFCURVE",
"420 777 CURVE SMOOTH",
"90 777 LINE"
);
},
{
closed = 1;
nodes = (
"220 692 LINE",
"420 692 LINE SMOOTH",
"540 692 OFFCURVE",
"632 667 OFFCURVE",
"632 567 CURVE SMOOTH",
"632 467 OFFCURVE",
"540 441 OFFCURVE",
"420 441 CURVE SMOOTH",
"220 441 LINE"
);
}
);
userData = {
com.schriftgestaltung.Glyphs.lastChange = "2018-04-05 15:21:53 +0000";
com.typemytype.robofont.mark = (
0.6,
0.609,
1,
1
);
};
width = 849;
},
{
layerId = "94CDDA45-35D1-47CC-AC03-9E9335022822";
paths = (
{
closed = 1;
nodes = (
"90 0 LINE",
"268 0 LINE",
"268 333 LINE",
"378 333 LINE SMOOTH",
"536 333 OFFCURVE",
"588 310 OFFCURVE",
"607 239 CURVE SMOOTH",
"651 76 OFFCURVE",
"662 27 OFFCURVE",
"681 0 CURVE",
"875 0 LINE",
"857 21 OFFCURVE",
"851 42 OFFCURVE",
"756 286 CURVE SMOOTH",
"738 332 OFFCURVE",
"699 369 OFFCURVE",
"621 379 CURVE",
"726 391 OFFCURVE",
"842 430 OFFCURVE",
"842 555 CURVE SMOOTH",
"842 703 OFFCURVE",
"722 777 OFFCURVE",
"456 777 CURVE SMOOTH",
"90 777 LINE"
);
},
{
closed = 1;
nodes = (
"268 668 LINE",
"466 668 LINE SMOOTH",
"580 668 OFFCURVE",
"657 635 OFFCURVE",
"657 555 CURVE SMOOTH",
"657 475 OFFCURVE",
"580 442 OFFCURVE",
"466 442 CURVE SMOOTH",
"268 442 LINE"
);
}
);
userData = {
com.schriftgestaltung.Glyphs.lastChange = "2018-04-05 15:27:41 +0000";
};
width = 915;
}
);
unicode = 0052;
},
{
glyphname = S;
lastChange = "2021-03-04 10:47:14 +0000";
layers = (
{
layerId = "C6CCADDD-D708-401D-8889-C4B70B102AC4";
paths = (
{
closed = 1;
nodes = (
"262 495 OFFCURVE",
"211 521 OFFCURVE",
"211 580 CURVE",
"211 646 OFFCURVE",
"278 692 OFFCURVE",
"383 692 CURVE",
"617 692 OFFCURVE",
"603 523 OFFCURVE",
"603 523 CURVE",
"737 559 LINE",
"737 559 OFFCURVE",
"729 791 OFFCURVE",
"389 791 CURVE",
"171 791 OFFCURVE",
"76 685 OFFCURVE",
"76 568 CURVE",
"76 475 OFFCURVE",
"141 401 OFFCURVE",
"274 370 CURVE SMOOTH",
"463 326 LINE SMOOTH",
"577 299 OFFCURVE",
"639 277 OFFCURVE",
"639 202 CURVE",
"639 138 OFFCURVE",
"564 85 OFFCURVE",
"438 85 CURVE",
"150 85 OFFCURVE",
"174 302 OFFCURVE",
"174 302 CURVE",
"40 263 LINE",
"45 158 OFFCURVE",
"138 -14 OFFCURVE",
"441 -14 CURVE",
"629 -14 OFFCURVE",
"774 62 OFFCURVE",
"774 208 CURVE",
"774 309 OFFCURVE",
"715 394 OFFCURVE",
"546 432 CURVE SMOOTH",
"348 476 LINE SMOOTH"
);
}
);
userData = {
com.schriftgestaltung.Glyphs.lastChange = "2018-04-05 15:21:53 +0000";
com.typemytype.robofont.mark = (
0.6,
0.609,
1,
1
);
};
width = 814;
},
{
layerId = "94CDDA45-35D1-47CC-AC03-9E9335022822";
paths = (
{
closed = 1;
nodes = (
"298 503 OFFCURVE",
"242 528 OFFCURVE",
"242 578 CURVE SMOOTH",
"242 629 OFFCURVE",
"304 668 OFFCURVE",
"410 668 CURVE SMOOTH",
"633 668 OFFCURVE",
"627 512 OFFCURVE",
"627 512 CURVE",
"810 562 LINE",
"810 562 OFFCURVE",
"793 791 OFFCURVE",
"417 791 CURVE SMOOTH",
"174 791 OFFCURVE",
"58 680 OFFCURVE",
"58 559 CURVE SMOOTH",
"58 461 OFFCURVE",
"142 384 OFFCURVE",
"292 352 CURVE SMOOTH",
"490 310 LINE SMOOTH",
"597 287 OFFCURVE",
"658 274 OFFCURVE",
"658 203 CURVE SMOOTH",
"658 144 OFFCURVE",
"586 110 OFFCURVE",
"468 110 CURVE SMOOTH",
"190 110 OFFCURVE",
"213 300 OFFCURVE",
"213 300 CURVE",
"30 253 LINE",
"36 141 OFFCURVE",
"139 -13 OFFCURVE",
"471 -13 CURVE SMOOTH",
"680 -13 OFFCURVE",
"841 66 OFFCURVE",
"841 217 CURVE SMOOTH",
"841 321 OFFCURVE",
"783 406 OFFCURVE",
"593 444 CURVE SMOOTH",
"379 487 LINE SMOOTH"
);
}
);
userData = {
com.schriftgestaltung.Glyphs.lastChange = "2018-04-05 15:27:41 +0000";
};
width = 871;
}
);
unicode = 0053;
},
{
glyphname = Sacute;
lastChange = "2021-03-04 10:47:14 +0000";
layers = (
{
layerId = "C6CCADDD-D708-401D-8889-C4B70B102AC4";
paths = (
{
closed = 1;
nodes = (
"488 1069 LINE",
"372 881 LINE",
"439 881 LINE",
"638 1069 LINE"
);
},
{
closed = 1;
nodes = (
"262 495 OFFCURVE",
"211 521 OFFCURVE",
"211 580 CURVE SMOOTH",
"211 646 OFFCURVE",
"278 692 OFFCURVE",
"383 692 CURVE SMOOTH",
"617 692 OFFCURVE",
"603 523 OFFCURVE",
"603 523 CURVE",
"737 559 LINE",
"737 559 OFFCURVE",
"729 791 OFFCURVE",
"389 791 CURVE SMOOTH",
"171 791 OFFCURVE",
"76 685 OFFCURVE",
"76 568 CURVE SMOOTH",
"76 475 OFFCURVE",
"141 401 OFFCURVE",
"274 370 CURVE SMOOTH",
"463 326 LINE SMOOTH",
"577 299 OFFCURVE",
"639 277 OFFCURVE",
"639 202 CURVE SMOOTH",
"639 138 OFFCURVE",
"564 85 OFFCURVE",
"438 85 CURVE SMOOTH",
"150 85 OFFCURVE",
"174 302 OFFCURVE",
"174 302 CURVE",
"40 263 LINE",
"45 158 OFFCURVE",
"138 -14 OFFCURVE",
"441 -14 CURVE SMOOTH",
"629 -14 OFFCURVE",
"774 62 OFFCURVE",
"774 208 CURVE SMOOTH",
"774 309 OFFCURVE",
"715 394 OFFCURVE",
"546 432 CURVE SMOOTH",
"348 476 LINE SMOOTH"
);
}
);
userData = {
com.schriftgestaltung.Glyphs.lastChange = "2018-04-05 15:26:27 +0000";
};
width = 814;
},
{
layerId = "94CDDA45-35D1-47CC-AC03-9E9335022822";
paths = (
{
closed = 1;
nodes = (
"524 1019 LINE",
"388 875 LINE",
"505 875 LINE",
"734 1019 LINE"
);
},
{
closed = 1;
nodes = (
"298 503 OFFCURVE",
"242 528 OFFCURVE",
"242 578 CURVE SMOOTH",
"242 629 OFFCURVE",
"304 668 OFFCURVE",
"410 668 CURVE SMOOTH",
"633 668 OFFCURVE",
"627 512 OFFCURVE",
"627 512 CURVE",
"810 562 LINE",
"810 562 OFFCURVE",
"793 791 OFFCURVE",
"417 791 CURVE SMOOTH",
"174 791 OFFCURVE",
"58 680 OFFCURVE",
"58 559 CURVE SMOOTH",
"58 461 OFFCURVE",
"142 384 OFFCURVE",
"292 352 CURVE SMOOTH",
"490 310 LINE SMOOTH",
"597 287 OFFCURVE",
"658 274 OFFCURVE",
"658 203 CURVE SMOOTH",
"658 144 OFFCURVE",
"586 110 OFFCURVE",
"468 110 CURVE SMOOTH",
"190 110 OFFCURVE",
"213 300 OFFCURVE",
"213 300 CURVE",
"30 253 LINE",
"36 141 OFFCURVE",
"139 -13 OFFCURVE",
"471 -13 CURVE SMOOTH",
"680 -13 OFFCURVE",
"841 66 OFFCURVE",
"841 217 CURVE SMOOTH",
"841 321 OFFCURVE",
"783 406 OFFCURVE",
"593 444 CURVE SMOOTH",
"379 487 LINE SMOOTH"
);
}
);
userData = {
com.schriftgestaltung.Glyphs.lastChange = "2018-04-05 15:32:31 +0000";
};
width = 871;
}
);
leftMetricsKey = S;
rightMetricsKey = S;
unicode = 015A;
},
{
glyphname = T;
lastChange = "2021-03-04 10:47:14 +0000";
layers = (
{
layerId = "C6CCADDD-D708-401D-8889-C4B70B102AC4";
paths = (
{
closed = 1;
nodes = (
"330 692 LINE",
"330 0 LINE",
"457 0 LINE",
"457 692 LINE",
"787 692 LINE",
"787 777 LINE",
"0 777 LINE",
"0 692 LINE"
);
}
);
userData = {
com.schriftgestaltung.Glyphs.lastChange = "2018-04-05 15:21:53 +0000";
com.typemytype.robofont.mark = (
0.6,
0.609,
1,
1
);
};
width = 787;
},
{
layerId = "94CDDA45-35D1-47CC-AC03-9E9335022822";
paths = (
{
closed = 1;
nodes = (
"352 668 LINE",
"352 0 LINE",
"530 0 LINE",
"530 668 LINE",
"872 668 LINE",
"872 777 LINE",
"10 777 LINE",
"10 668 LINE"
);
}
);
userData = {
com.schriftgestaltung.Glyphs.lastChange = "2018-04-05 15:27:41 +0000";
};
width = 882;
}
);
unicode = 0054;
},
{
glyphname = U;
lastChange = "2021-03-04 10:47:14 +0000";
layers = (
{
anchors = (
{
name = top;
position = "{477, 835}";
}
);
layerId = "C6CCADDD-D708-401D-8889-C4B70B102AC4";
paths = (
{
closed = 1;
nodes = (
"696 321 LINE SMOOTH",
"696 119 OFFCURVE",
"605 85 OFFCURVE",
"458 85 CURVE SMOOTH",
"311 85 OFFCURVE",
"220 119 OFFCURVE",
"220 321 CURVE SMOOTH",
"220 777 LINE",
"90 777 LINE",
"90 321 LINE SMOOTH",
"90 97 OFFCURVE",
"214 -14 OFFCURVE",
"458 -14 CURVE SMOOTH",
"702 -14 OFFCURVE",
"826 97 OFFCURVE",
"826 321 CURVE SMOOTH",
"826 777 LINE",
"696 777 LINE"
);
}
);
userData = {
com.schriftgestaltung.Glyphs.lastChange = "2018-04-05 15:21:53 +0000";
com.typemytype.robofont.mark = (
0.6,
0.609,
1,
1
);
};
width = 916;
},
{
anchors = (
{
name = top;
position = "{525, 855}";
}
);
layerId = "94CDDA45-35D1-47CC-AC03-9E9335022822";
paths = (
{
closed = 1;
nodes = (
"724 324 LINE",
"724 148 OFFCURVE",
"638 110 OFFCURVE",
"496 110 CURVE SMOOTH",
"354 110 OFFCURVE",
"268 148 OFFCURVE",
"268 324 CURVE",
"268 777 LINE",
"90 777 LINE",
"90 324 LINE",
"90 99 OFFCURVE",
"226 -13 OFFCURVE",
"496 -13 CURVE SMOOTH",
"766 -13 OFFCURVE",
"902 99 OFFCURVE",
"902 324 CURVE",
"902 777 LINE",
"724 777 LINE"
);
}
);
userData = {
com.schriftgestaltung.Glyphs.lastChange = "2018-04-05 15:27:41 +0000";
};
width = 992;
}
);
unicode = 0055;
},
{
glyphname = Uacute;
lastChange = "2021-03-04 10:47:14 +0000";
layers = (
{
components = (
{
name = U;
},
{
name = acute.case;
transform = "{1, 0, 0, 1, -124, 222}";
}
);
layerId = "C6CCADDD-D708-401D-8889-C4B70B102AC4";
userData = {
com.typemytype.robofont.mark = (
0.6,
0.609,
1,
1
);
};
width = 916;
},
{
layerId = "94CDDA45-35D1-47CC-AC03-9E9335022822";
paths = (
{
closed = 1;
nodes = (
"398 875 LINE",
"515 875 LINE",
"744 1019 LINE",
"534 1019 LINE"
);
},
{
closed = 1;
nodes = (
"724 324 LINE",
"724 148 OFFCURVE",
"638 110 OFFCURVE",
"496 110 CURVE SMOOTH",
"354 110 OFFCURVE",
"268 148 OFFCURVE",
"268 324 CURVE",
"268 777 LINE",
"90 777 LINE",
"90 324 LINE",
"90 99 OFFCURVE",
"226 -13 OFFCURVE",
"496 -13 CURVE SMOOTH",
"766 -13 OFFCURVE",
"902 99 OFFCURVE",
"902 324 CURVE",
"902 777 LINE",
"724 777 LINE"
);
}
);
userData = {
com.schriftgestaltung.Glyphs.lastChange = "2018-04-05 15:27:41 +0000";
};
width = 992;
}
);
unicode = 00DA;
},
{
glyphname = Ucircumflex;
lastChange = "2021-03-04 10:47:14 +0000";
layers = (
{
components = (
{
name = U;
},
{
name = circumflex.case;
transform = "{1, 0, 0, 1, -124, 222}";
}
);
layerId = "C6CCADDD-D708-401D-8889-C4B70B102AC4";
userData = {
com.typemytype.robofont.mark = (
0.6,
0.609,
1,
1
);
};
width = 916;
},
{
layerId = "94CDDA45-35D1-47CC-AC03-9E9335022822";
paths = (
{
closed = 1;
nodes = (
"232 875 LINE",
"329 875 LINE",
"493 937 LINE",
"657 875 LINE",
"754 875 LINE",
"568 1019 LINE",
"418 1019 LINE"
);
},
{
closed = 1;
nodes = (
"724 324 LINE",
"724 148 OFFCURVE",
"638 110 OFFCURVE",
"496 110 CURVE SMOOTH",
"354 110 OFFCURVE",
"268 148 OFFCURVE",
"268 324 CURVE",
"268 777 LINE",
"90 777 LINE",
"90 324 LINE",
"90 99 OFFCURVE",
"226 -13 OFFCURVE",
"496 -13 CURVE SMOOTH",
"766 -13 OFFCURVE",
"902 99 OFFCURVE",
"902 324 CURVE",
"902 777 LINE",
"724 777 LINE"
);
}
);
userData = {
com.schriftgestaltung.Glyphs.lastChange = "2018-04-05 15:27:41 +0000";
};
width = 992;
}
);
unicode = 00DB;
},
{
glyphname = Udieresis;
lastChange = "2021-03-04 10:47:14 +0000";
layers = (
{
components = (
{
name = U;
},
{
name = dieresis.case;
transform = "{1, 0, 0, 1, 298, 222}";
}
);
layerId = "C6CCADDD-D708-401D-8889-C4B70B102AC4";
userData = {
com.typemytype.robofont.mark = (
0.6,
0.609,
1,
1
);
};
width = 916;
},
{
layerId = "94CDDA45-35D1-47CC-AC03-9E9335022822";
paths = (
{
closed = 1;
nodes = (
"443 869 LINE",
"443 1019 LINE",
"305 1019 LINE",
"305 869 LINE"
);
},
{
closed = 1;
nodes = (
"683 869 LINE",
"683 1019 LINE",
"545 1019 LINE",
"545 869 LINE"
);
},
{
closed = 1;
nodes = (
"724 324 LINE",
"724 148 OFFCURVE",
"638 110 OFFCURVE",
"496 110 CURVE SMOOTH",
"354 110 OFFCURVE",
"268 148 OFFCURVE",
"268 324 CURVE",
"268 777 LINE",
"90 777 LINE",
"90 324 LINE",
"90 99 OFFCURVE",
"226 -13 OFFCURVE",
"496 -13 CURVE SMOOTH",
"766 -13 OFFCURVE",
"902 99 OFFCURVE",
"902 324 CURVE",
"902 777 LINE",
"724 777 LINE"
);
}
);
userData = {
com.schriftgestaltung.Glyphs.lastChange = "2018-04-05 15:27:41 +0000";
};
width = 992;
}
);
unicode = 00DC;
},
{
glyphname = Ugrave;
lastChange = "2021-03-04 10:47:14 +0000";
layers = (
{
components = (
{
name = U;
},
{
name = grave.case;
transform = "{1, 0, 0, 1, -124, 222}";
}
);
layerId = "C6CCADDD-D708-401D-8889-C4B70B102AC4";
userData = {
com.typemytype.robofont.mark = (
0.6,
0.609,
1,
1
);
};
width = 916;
},
{
layerId = "94CDDA45-35D1-47CC-AC03-9E9335022822";
paths = (
{
closed = 1;
nodes = (
"487 875 LINE",
"604 875 LINE",
"468 1018 LINE",
"258 1018 LINE"
);
},
{
closed = 1;
nodes = (
"724 324 LINE",
"724 148 OFFCURVE",
"638 110 OFFCURVE",
"496 110 CURVE SMOOTH",
"354 110 OFFCURVE",
"268 148 OFFCURVE",
"268 324 CURVE",
"268 777 LINE",
"90 777 LINE",
"90 324 LINE",
"90 99 OFFCURVE",
"226 -13 OFFCURVE",
"496 -13 CURVE SMOOTH",
"766 -13 OFFCURVE",
"902 99 OFFCURVE",
"902 324 CURVE",
"902 777 LINE",
"724 777 LINE"
);
}
);
userData = {
com.schriftgestaltung.Glyphs.lastChange = "2018-04-05 15:27:41 +0000";
};
width = 992;
}
);
unicode = 00D9;
},
{
glyphname = V;
lastChange = "2021-03-04 10:47:14 +0000";
layers = (
{
layerId = "C6CCADDD-D708-401D-8889-C4B70B102AC4";
paths = (
{
closed = 1;
nodes = (
"755 777 LINE",
"457 85 LINE",
"159 777 LINE",
"20 777 LINE",
"365 0 LINE",
"549 0 LINE",
"894 777 LINE"
);
}
);
userData = {
com.schriftgestaltung.Glyphs.lastChange = "2018-04-05 15:21:53 +0000";
com.typemytype.robofont.mark = (
0.6,
0.609,
1,
1
);
};
width = 914;
},
{
layerId = "94CDDA45-35D1-47CC-AC03-9E9335022822";
paths = (
{
closed = 1;
nodes = (
"10 777 LINE",
"407 0 LINE",
"596 0 LINE",
"993 777 LINE",
"792 777 LINE",
"502 170 LINE",
"212 777 LINE"
);
}
);
userData = {
com.schriftgestaltung.Glyphs.lastChange = "2018-04-05 15:27:41 +0000";
};
width = 1003;
}
);
unicode = 0056;
},
{
glyphname = W;
lastChange = "2021-03-04 10:47:14 +0000";
layers = (
{
layerId = "C6CCADDD-D708-401D-8889-C4B70B102AC4";
paths = (
{
closed = 1;
nodes = (
"1170 777 LINE",
"952 85 LINE",
"744 777 LINE",
"585 777 LINE",
"377 85 LINE",
"159 777 LINE",
"20 777 LINE",
"285 0 LINE",
"469 0 LINE",
"664 642 LINE",
"860 0 LINE",
"1044 0 LINE",
"1309 777 LINE"
);
}
);
userData = {
com.schriftgestaltung.Glyphs.lastChange = "2018-04-05 15:21:53 +0000";
com.typemytype.robofont.mark = (
0.6,
0.609,
1,
1
);
};
width = 1329;
},
{
layerId = "94CDDA45-35D1-47CC-AC03-9E9335022822";
paths = (
{
closed = 1;
nodes = (
"1215 777 LINE",
"1014 170 LINE",
"842 777 LINE",
"585 777 LINE",
"413 169 LINE",
"212 777 LINE",
"10 777 LINE",
"301 0 LINE",
"515 0 LINE",
"713 668 LINE",
"912 0 LINE",
"1124 0 LINE",
"1417 777 LINE"
);
}
);
userData = {
com.schriftgestaltung.Glyphs.lastChange = "2018-04-05 15:27:41 +0000";
};
width = 1427;
}
);
unicode = 0057;
},
{
glyphname = X;
lastChange = "2021-03-04 10:47:14 +0000";
layers = (
{
layerId = "C6CCADDD-D708-401D-8889-C4B70B102AC4";
paths = (
{
closed = 1;
nodes = (
"160 0 LINE",
"426 303 LINE",
"692 0 LINE",
"842 0 LINE",
"501 389 LINE",
"842 777 LINE",
"692 777 LINE",
"426 474 LINE",
"160 777 LINE",
"10 777 LINE",
"351 389 LINE",
"10 0 LINE"
);
}
);
userData = {
com.schriftgestaltung.Glyphs.lastChange = "2018-04-05 15:21:53 +0000";
com.typemytype.robofont.guides = (
{
angle = 90;
isGlobal = 0;
magnetic = 5;
x = 247;
y = 0;
}
);
com.typemytype.robofont.mark = (
0.6,
0.609,
1,
1
);
};
width = 852;
},
{
layerId = "94CDDA45-35D1-47CC-AC03-9E9335022822";
paths = (
{
closed = 1;
nodes = (
"972 0 LINE",
"599 388 LINE",
"972 777 LINE",
"755 777 LINE",
"491 501 LINE",
"227 777 LINE",
"10 777 LINE",
"382 388 LINE",
"10 0 LINE",
"227 0 LINE",
"491 275 LINE",
"755 0 LINE"
);
}
);
userData = {
com.schriftgestaltung.Glyphs.lastChange = "2018-04-05 15:27:41 +0000";
com.typemytype.robofont.guides = (
{
angle = 90;
isGlobal = 0;
magnetic = 5;
x = 306;
y = 0;
}
);
};
width = 982;
}
);
unicode = 0058;
},
{
glyphname = Y;
lastChange = "2021-03-04 10:47:14 +0000";
layers = (
{
anchors = (
{
name = top;
position = "{709, 835}";
}
);
layerId = "C6CCADDD-D708-401D-8889-C4B70B102AC4";
paths = (
{
closed = 1;
nodes = (
"361 0 LINE",
"491 0 LINE",
"491 377 LINE",
"842 777 LINE",
"692 777 LINE",
"426 474 LINE",
"160 777 LINE",
"10 777 LINE",
"361 377 LINE"
);
}
);
userData = {
com.schriftgestaltung.Glyphs.lastChange = "2018-04-05 15:21:53 +0000";
com.typemytype.robofont.mark = (
0.6,
0.609,
1,
1
);
};
width = 852;
},
{
anchors = (
{
name = top;
position = "{814, 855}";
}
);
layerId = "94CDDA45-35D1-47CC-AC03-9E9335022822";
paths = (
{
closed = 1;
nodes = (
"755 777 LINE",
"491 485 LINE",
"227 777 LINE",
"10 777 LINE",
"402 365 LINE",
"402 0 LINE",
"580 0 LINE",
"580 365 LINE",
"972 777 LINE"
);
}
);
userData = {
com.schriftgestaltung.Glyphs.lastChange = "2018-04-05 15:27:41 +0000";
};
width = 982;
}
);
unicode = 0059;
},
{
glyphname = Yacute;
lastChange = "2021-03-04 10:47:14 +0000";
layers = (
{
components = (
{
name = Y;
},
{
name = acute.case;
transform = "{1, 0, 0, 1, -157, 222}";
}
);
layerId = "C6CCADDD-D708-401D-8889-C4B70B102AC4";
userData = {
com.typemytype.robofont.mark = (
0.6,
0.609,
1,
1
);
};
width = 852;
},
{
layerId = "94CDDA45-35D1-47CC-AC03-9E9335022822";
paths = (
{
closed = 1;
nodes = (
"354 875 LINE",
"471 875 LINE",
"700 1019 LINE",
"490 1019 LINE"
);
},
{
closed = 1;
nodes = (
"755 777 LINE",
"491 485 LINE",
"227 777 LINE",
"10 777 LINE",
"402 365 LINE",
"402 0 LINE",
"580 0 LINE",
"580 365 LINE",
"972 777 LINE"
);
}
);
userData = {
com.schriftgestaltung.Glyphs.lastChange = "2018-04-05 15:27:41 +0000";
};
width = 982;
}
);
unicode = 00DD;
},
{
glyphname = Ydieresis;
lastChange = "2021-03-04 10:47:14 +0000";
layers = (
{
components = (
{
name = Y;
},
{
name = dieresis.case;
transform = "{1, 0, 0, 1, 247, 222}";
}
);
layerId = "C6CCADDD-D708-401D-8889-C4B70B102AC4";
userData = {
com.typemytype.robofont.mark = (
0.6,
0.609,
1,
1
);
};
width = 852;
},
{
layerId = "94CDDA45-35D1-47CC-AC03-9E9335022822";
paths = (
{
closed = 1;
nodes = (
"440 869 LINE",
"440 1019 LINE",
"302 1019 LINE",
"302 869 LINE"
);
},
{
closed = 1;
nodes = (
"680 869 LINE",
"680 1019 LINE",
"542 1019 LINE",
"542 869 LINE"
);
},
{
closed = 1;
nodes = (
"755 777 LINE",
"491 485 LINE",
"227 777 LINE",
"10 777 LINE",
"402 365 LINE",
"402 0 LINE",
"580 0 LINE",
"580 365 LINE",
"972 777 LINE"
);
}
);
userData = {
com.schriftgestaltung.Glyphs.lastChange = "2018-04-05 15:27:41 +0000";
};
width = 982;
}
);
unicode = 0178;
},
{
glyphname = Z;
lastChange = "2021-03-04 10:47:14 +0000";
layers = (
{
layerId = "C6CCADDD-D708-401D-8889-C4B70B102AC4";
paths = (
{
closed = 1;
nodes = (
"185 85 LINE",
"723 682 LINE",
"723 777 LINE",
"20 777 LINE",
"20 692 LINE",
"558 692 LINE",
"20 95 LINE",
"20 0 LINE",
"723 0 LINE",
"723 85 LINE"
);
}
);
userData = {
com.schriftgestaltung.Glyphs.lastChange = "2018-04-05 15:21:53 +0000";
com.typemytype.robofont.guides = (
{
angle = 90;
isGlobal = 0;
magnetic = 5;
x = 723;
y = 0;
},
{
angle = 90;
isGlobal = 0;
magnetic = 5;
x = 20;
y = 0;
}
);
com.typemytype.robofont.mark = (
0.6,
0.609,
1,
1
);
};
width = 743;
},
{
layerId = "94CDDA45-35D1-47CC-AC03-9E9335022822";
paths = (
{
closed = 1;
nodes = (
"255 110 LINE",
"798 658 LINE",
"798 777 LINE",
"20 777 LINE",
"20 668 LINE",
"563 668 LINE",
"20 120 LINE",
"20 0 LINE",
"798 0 LINE",
"798 110 LINE"
);
}
);
userData = {
com.schriftgestaltung.Glyphs.lastChange = "2018-04-05 15:27:41 +0000";
com.typemytype.robofont.guides = (
{
angle = 90;
isGlobal = 0;
magnetic = 5;
x = 799;
y = 0;
},
{
angle = 90;
isGlobal = 0;
magnetic = 5;
x = 26;
y = 0;
}
);
};
width = 818;
}
);
unicode = 005A;
},
{
glyphname = Zacute;
lastChange = "2021-03-04 10:47:14 +0000";
layers = (
{
layerId = "C6CCADDD-D708-401D-8889-C4B70B102AC4";
paths = (
{
closed = 1;
nodes = (
"448 1069 LINE",
"332 881 LINE",
"399 881 LINE",
"598 1069 LINE"
);
},
{
closed = 1;
nodes = (
"723 85 LINE",
"185 85 LINE",
"723 682 LINE",
"723 777 LINE",
"20 777 LINE",
"20 692 LINE",
"558 692 LINE",
"20 95 LINE",
"20 0 LINE",
"723 0 LINE"
);
}
);
userData = {
com.schriftgestaltung.Glyphs.lastChange = "2018-04-05 15:26:30 +0000";
};
width = 743;
},
{
layerId = "94CDDA45-35D1-47CC-AC03-9E9335022822";
paths = (
{
closed = 1;
nodes = (
"454 1019 LINE",
"318 875 LINE",
"435 875 LINE",
"664 1019 LINE"
);
},
{
closed = 1;
nodes = (
"798 110 LINE",
"255 110 LINE",
"798 658 LINE",
"798 777 LINE",
"20 777 LINE",
"20 668 LINE",
"563 668 LINE",
"20 120 LINE",
"20 0 LINE",
"798 0 LINE"
);
}
);
userData = {
com.schriftgestaltung.Glyphs.lastChange = "2018-04-05 15:32:37 +0000";
};
width = 818;
}
);
leftMetricsKey = Z;
rightMetricsKey = Z;
unicode = 0179;
},
{
glyphname = Zdotaccent;
lastChange = "2021-03-04 10:47:14 +0000";
layers = (
{
layerId = "C6CCADDD-D708-401D-8889-C4B70B102AC4";
paths = (
{
closed = 1;
nodes = (
"312 903 LINE",
"432 903 LINE",
"432 999 LINE",
"312 999 LINE"
);
},
{
closed = 1;
nodes = (
"723 85 LINE",
"185 85 LINE",
"723 682 LINE",
"723 777 LINE",
"20 777 LINE",
"20 692 LINE",
"558 692 LINE",
"20 95 LINE",
"20 0 LINE",
"723 0 LINE"
);
}
);
userData = {
com.schriftgestaltung.Glyphs.lastChange = "2018-04-05 15:26:34 +0000";
};
width = 743;
},
{
layerId = "94CDDA45-35D1-47CC-AC03-9E9335022822";
paths = (
{
closed = 1;
nodes = (
"373 869 LINE",
"511 869 LINE",
"511 1019 LINE",
"373 1019 LINE"
);
},
{
closed = 1;
nodes = (
"798 110 LINE",
"255 110 LINE",
"798 658 LINE",
"798 777 LINE",
"20 777 LINE",
"20 668 LINE",
"563 668 LINE",
"20 120 LINE",
"20 0 LINE",
"798 0 LINE"
);
}
);
userData = {
com.schriftgestaltung.Glyphs.lastChange = "2018-04-05 15:32:37 +0000";
};
width = 818;
}
);
leftMetricsKey = Z;
rightMetricsKey = Z;
unicode = 017B;
},
{
glyphname = B.alt;
lastChange = "2021-03-04 10:47:14 +0000";
layers = (
{
layerId = "C6CCADDD-D708-401D-8889-C4B70B102AC4";
paths = (
{
closed = 1;
nodes = (
"350 356 LINE",
"570 356 LINE SMOOTH",
"690 356 OFFCURVE",
"782 331 OFFCURVE",
"782 221 CURVE SMOOTH",
"782 111 OFFCURVE",
"690 82 OFFCURVE",
"570 85 CURVE SMOOTH",
"0 100 LINE",
"0 0 LINE",
"570 0 LINE SMOOTH",
"810 0 OFFCURVE",
"919 74 OFFCURVE",
"919 221 CURVE SMOOTH",
"919 408 OFFCURVE",
"732 418 OFFCURVE",
"732 418 CURVE",
"732 418 OFFCURVE",
"899 436 OFFCURVE",
"899 587 CURVE SMOOTH",
"899 710 OFFCURVE",
"790 777 OFFCURVE",
"550 777 CURVE SMOOTH",
"220 777 LINE",
"220 131 LINE",
"350 131 LINE"
);
},
{
closed = 1;
nodes = (
"350 692 LINE",
"550 692 LINE SMOOTH",
"670 692 OFFCURVE",
"762 667 OFFCURVE",
"762 567 CURVE SMOOTH",
"762 467 OFFCURVE",
"670 441 OFFCURVE",
"550 441 CURVE SMOOTH",
"350 441 LINE"
);
}
);
userData = {
com.schriftgestaltung.Glyphs.lastChange = "2018-04-05 15:21:53 +0000";
com.typemytype.robofont.mark = (
0.6,
0.609,
1,
1
);
};
width = 979;
},
{
layerId = "94CDDA45-35D1-47CC-AC03-9E9335022822";
paths = (
{
closed = 1;
nodes = (
"0 124 LINE",
"0 0 LINE",
"607 0 LINE SMOOTH",
"873 0 OFFCURVE",
"993 79 OFFCURVE",
"993 227 CURVE SMOOTH",
"993 375 OFFCURVE",
"845 401 OFFCURVE",
"831 403 CURVE",
"844 405 OFFCURVE",
"973 430 OFFCURVE",
"973 560 CURVE SMOOTH",
"973 708 OFFCURVE",
"853 777 OFFCURVE",
"587 777 CURVE SMOOTH",
"221 777 LINE",
"221 170 LINE",
"399 170 LINE",
"399 346 LINE",
"626 346 LINE SMOOTH",
"735 346 OFFCURVE",
"808 306 OFFCURVE",
"808 228 CURVE SMOOTH",
"808 148 OFFCURVE",
"731 107 OFFCURVE",
"617 110 CURVE SMOOTH"
);
},
{
closed = 1;
nodes = (
"399 452 LINE",
"399 668 LINE",
"597 668 LINE SMOOTH",
"711 668 OFFCURVE",
"788 640 OFFCURVE",
"788 560 CURVE SMOOTH",
"788 480 OFFCURVE",
"711 452 OFFCURVE",
"597 452 CURVE SMOOTH"
);
}
);
userData = {
com.schriftgestaltung.Glyphs.lastChange = "2018-04-05 15:27:41 +0000";
};
width = 1053;
}
);
},
{
glyphname = O.alt;
lastChange = "2021-03-04 10:47:14 +0000";
layers = (
{
layerId = "C6CCADDD-D708-401D-8889-C4B70B102AC4";
paths = (
{
closed = 1;
nodes = (
"640 -51 OFFCURVE",
"937 74 OFFCURVE",
"937 388 CURVE SMOOTH",
"937 622 OFFCURVE",
"759 791 OFFCURVE",
"483 791 CURVE SMOOTH",
"216 791 OFFCURVE",
"60 640 OFFCURVE",
"60 446 CURVE SMOOTH",
"60 272 OFFCURVE",
"182 151 OFFCURVE",
"370 151 CURVE SMOOTH",
"698 151 OFFCURVE",
"692 443 OFFCURVE",
"692 443 CURVE",
"559 482 LINE",
"559 482 OFFCURVE",
"581 250 OFFCURVE",
"384 250 CURVE SMOOTH",
"253 250 OFFCURVE",
"197 338 OFFCURVE",
"197 439 CURVE SMOOTH",
"197 575 OFFCURVE",
"295 692 OFFCURVE",
"483 692 CURVE SMOOTH",
"672 692 OFFCURVE",
"800 560 OFFCURVE",
"800 388 CURVE SMOOTH",
"800 217 OFFCURVE",
"672 85 OFFCURVE",
"481 85 CURVE SMOOTH",
"423 85 OFFCURVE",
"373 101 OFFCURVE",
"373 101 CURVE",
"373 -5 LINE"
);
}
);
userData = {
com.schriftgestaltung.Glyphs.lastChange = "2018-04-05 15:21:53 +0000";
com.typemytype.robofont.mark = (
0.6,
0.609,
1,
1
);
};
width = 997;
},
{
layerId = "94CDDA45-35D1-47CC-AC03-9E9335022822";
paths = (
{
closed = 1;
nodes = (
"438 -9 OFFCURVE",
"482 -13 OFFCURVE",
"522 -13 CURVE SMOOTH",
"776 -13 OFFCURVE",
"1019 116 OFFCURVE",
"1019 388 CURVE SMOOTH",
"1019 622 OFFCURVE",
"825 790 OFFCURVE",
"524 790 CURVE SMOOTH",
"231 790 OFFCURVE",
"60 638 OFFCURVE",
"60 443 CURVE SMOOTH",
"60 266 OFFCURVE",
"206 153 OFFCURVE",
"415 153 CURVE SMOOTH",
"781 153 OFFCURVE",
"763 455 OFFCURVE",
"763 455 CURVE",
"579 504 LINE",
"579 504 OFFCURVE",
"603 276 OFFCURVE",
"408 276 CURVE SMOOTH",
"298 276 OFFCURVE",
"246 351 OFFCURVE",
"246 437 CURVE SMOOTH",
"246 555 OFFCURVE",
"340 668 OFFCURVE",
"524 668 CURVE SMOOTH",
"739 668 OFFCURVE",
"834 541 OFFCURVE",
"834 388 CURVE SMOOTH",
"834 236 OFFCURVE",
"739 110 OFFCURVE",
"522 110 CURVE SMOOTH",
"443 110 OFFCURVE",
"388 131 OFFCURVE",
"388 131 CURVE",
"388 -1 LINE"
);
}
);
userData = {
com.schriftgestaltung.Glyphs.lastChange = "2018-04-05 15:27:41 +0000";
};
width = 1079;
}
);
leftKerningGroup = O;
rightKerningGroup = O;
},
{
glyphname = Q.alt;
lastChange = "2021-03-04 10:47:14 +0000";
layers = (
{
layerId = "C6CCADDD-D708-401D-8889-C4B70B102AC4";
paths = (
{
closed = 1;
nodes = (
"708 -34 OFFCURVE",
"937 124 OFFCURVE",
"937 388 CURVE SMOOTH",
"937 622 OFFCURVE",
"759 791 OFFCURVE",
"483 791 CURVE SMOOTH",
"216 791 OFFCURVE",
"60 640 OFFCURVE",
"60 446 CURVE SMOOTH",
"60 272 OFFCURVE",
"182 151 OFFCURVE",
"370 151 CURVE",
"698 151 OFFCURVE",
"692 443 OFFCURVE",
"692 443 CURVE",
"559 482 LINE",
"559 482 OFFCURVE",
"581 250 OFFCURVE",
"384 250 CURVE",
"253 250 OFFCURVE",
"197 338 OFFCURVE",
"197 439 CURVE SMOOTH",
"197 575 OFFCURVE",
"295 692 OFFCURVE",
"483 692 CURVE SMOOTH",
"672 692 OFFCURVE",
"800 560 OFFCURVE",
"800 388 CURVE SMOOTH",
"800 217 OFFCURVE",
"672 85 OFFCURVE",
"481 85 CURVE SMOOTH",
"423 85 OFFCURVE",
"373 101 OFFCURVE",
"373 101 CURVE",
"373 -37 LINE",
"919 -273 LINE",
"948 -165 LINE",
"443 6 LINE"
);
}
);
userData = {
com.schriftgestaltung.Glyphs.lastChange = "2018-04-05 15:21:53 +0000";
com.typemytype.robofont.mark = (
0.6,
0.609,
1,
1
);
};
width = 988;
},
{
layerId = "94CDDA45-35D1-47CC-AC03-9E9335022822";
paths = (
{
closed = 1;
nodes = (
"989 -266 LINE",
"1031 -126 LINE",
"575 13 LINE",
"783 13 OFFCURVE",
"1019 116 OFFCURVE",
"1019 388 CURVE SMOOTH",
"1019 622 OFFCURVE",
"825 790 OFFCURVE",
"524 790 CURVE SMOOTH",
"231 790 OFFCURVE",
"60 638 OFFCURVE",
"60 443 CURVE SMOOTH",
"60 266 OFFCURVE",
"206 153 OFFCURVE",
"415 153 CURVE SMOOTH",
"781 153 OFFCURVE",
"763 455 OFFCURVE",
"763 455 CURVE",
"579 504 LINE",
"579 504 OFFCURVE",
"603 276 OFFCURVE",
"408 276 CURVE SMOOTH",
"298 276 OFFCURVE",
"246 351 OFFCURVE",
"246 437 CURVE SMOOTH",
"246 555 OFFCURVE",
"340 668 OFFCURVE",
"524 668 CURVE SMOOTH",
"739 668 OFFCURVE",
"834 541 OFFCURVE",
"834 388 CURVE SMOOTH",
"834 236 OFFCURVE",
"739 110 OFFCURVE",
"522 110 CURVE SMOOTH",
"443 110 OFFCURVE",
"378 129 OFFCURVE",
"378 129 CURVE",
"378 0 LINE"
);
}
);
userData = {
com.schriftgestaltung.Glyphs.lastChange = "2018-04-05 15:27:41 +0000";
};
width = 1087;
}
);
leftKerningGroup = O;
rightKerningGroup = O;
},
{
glyphname = S.alt;
lastChange = "2021-03-04 10:47:14 +0000";
layers = (
{
layerId = "C6CCADDD-D708-401D-8889-C4B70B102AC4";
paths = (
{
closed = 1;
nodes = (
"404 280 OFFCURVE",
"359 321 OFFCURVE",
"272 321 CURVE SMOOTH",
"130 321 OFFCURVE",
"60 236 OFFCURVE",
"60 147 CURVE SMOOTH",
"60 8 OFFCURVE",
"205 -99 OFFCURVE",
"416 -99 CURVE SMOOTH",
"622 -99 OFFCURVE",
"784 -8 OFFCURVE",
"784 176 CURVE SMOOTH",
"784 314 OFFCURVE",
"696 407 OFFCURVE",
"550 447 CURVE SMOOTH",
"243 532 LINE",
"708 683 LINE",
"679 791 LINE",
"133 555 LINE",
"133 480 LINE",
"435 371 LINE SMOOTH",
"577 320 OFFCURVE",
"647 271 OFFCURVE",
"647 169 CURVE SMOOTH",
"647 48 OFFCURVE",
"528 0 OFFCURVE",
"421 0 CURVE SMOOTH",
"270 0 OFFCURVE",
"197 73 OFFCURVE",
"197 144 CURVE SMOOTH",
"197 196 OFFCURVE",
"238 227 OFFCURVE",
"305 227 CURVE SMOOTH",
"388 227 OFFCURVE",
"431 181 OFFCURVE",
"431 181 CURVE",
"404 280 LINE"
);
}
);
userData = {
com.schriftgestaltung.Glyphs.lastChange = "2018-04-05 15:21:53 +0000";
com.typemytype.robofont.mark = (
0.6,
0.609,
1,
1
);
};
width = 804;
},
{
layerId = "94CDDA45-35D1-47CC-AC03-9E9335022822";
paths = (
{
closed = 1;
nodes = (
"414 371 LINE SMOOTH",
"546 329 OFFCURVE",
"676 293 OFFCURVE",
"676 165 CURVE SMOOTH",
"676 55 OFFCURVE",
"551 28 OFFCURVE",
"436 28 CURVE SMOOTH",
"352 28 OFFCURVE",
"246 51 OFFCURVE",
"246 139 CURVE SMOOTH",
"246 225 OFFCURVE",
"360 260 OFFCURVE",
"490 180 CURVE",
"446 323 LINE",
"257 403 OFFCURVE",
"60 300 OFFCURVE",
"60 153 CURVE SMOOTH",
"60 -12 OFFCURVE",
"243 -94 OFFCURVE",
"436 -94 CURVE SMOOTH",
"637 -94 OFFCURVE",
"861 -26 OFFCURVE",
"861 178 CURVE SMOOTH",
"861 410 OFFCURVE",
"572 458 OFFCURVE",
"274 518 CURVE",
"784 651 LINE",
"742 791 LINE",
"137 559 LINE",
"137 460 LINE"
);
}
);
userData = {
com.schriftgestaltung.Glyphs.lastChange = "2018-04-05 15:27:41 +0000";
};
width = 921;
}
);
},
{
glyphname = a;
lastChange = "2021-03-04 10:47:14 +0000";
layers = (
{
anchors = (
{
name = top;
position = "{336, 613}";
}
);
layerId = "C6CCADDD-D708-401D-8889-C4B70B102AC4";
paths = (
{
closed = 1;
nodes = (
"571 366 LINE SMOOTH",
"574 480 OFFCURVE",
"493 569 OFFCURVE",
"327 569 CURVE SMOOTH",
"104 569 OFFCURVE",
"50 404 OFFCURVE",
"50 404 CURVE",
"174 368 LINE",
"174 368 OFFCURVE",
"201 480 OFFCURVE",
"331 480 CURVE",
"460 480 OFFCURVE",
"450 364 OFFCURVE",
"450 364 CURVE",
"152 330 OFFCURVE",
"70 201 OFFCURVE",
"70 108 CURVE",
"70 39 OFFCURVE",
"122 -14 OFFCURVE",
"204 -14 CURVE",
"370 -14 OFFCURVE",
"450 210 OFFCURVE",
"450 210 CURVE",
"450 115 LINE SMOOTH",
"450 17 OFFCURVE",
"512 -14 OFFCURVE",
"574 -14 CURVE SMOOTH",
"667 -14 OFFCURVE",
"704 36 OFFCURVE",
"704 36 CURVE",
"680 125 LINE",
"680 125 OFFCURVE",
"658 75 OFFCURVE",
"609 75 CURVE",
"577 75 OFFCURVE",
"564 98 OFFCURVE",
"565 133 CURVE SMOOTH"
);
},
{
closed = 1;
nodes = (
"197 182 OFFCURVE",
"227 273 OFFCURVE",
"450 330 CURVE",
"450 295 LINE",
"452 253 OFFCURVE",
"356 75 OFFCURVE",
"250 75 CURVE",
"217 75 OFFCURVE",
"197 95 OFFCURVE",
"197 133 CURVE"
);
}
);
userData = {
com.schriftgestaltung.Glyphs.lastChange = "2018-04-05 15:21:53 +0000";
com.typemytype.robofont.guides = (
{
angle = 90;
isGlobal = 0;
magnetic = 5;
x = -816;
y = 0;
},
{
angle = 90;
isGlobal = 0;
magnetic = 5;
x = -414;
y = 0;
}
);
com.typemytype.robofont.mark = (
0.6,
0.609,
1,
1
);
};
width = 704;
},
{
anchors = (
{
name = top;
position = "{383, 633}";
}
);
layerId = "94CDDA45-35D1-47CC-AC03-9E9335022822";
paths = (
{
closed = 1;
nodes = (
"634 359 LINE",
"638 472 OFFCURVE",
"543 568 OFFCURVE",
"363 568 CURVE SMOOTH",
"83 568 OFFCURVE",
"30 379 OFFCURVE",
"30 379 CURVE",
"202 335 LINE",
"202 335 OFFCURVE",
"203 458 OFFCURVE",
"355 458 CURVE SMOOTH",
"457 458 OFFCURVE",
"469 396 OFFCURVE",
"469 345 CURVE",
"165 319 OFFCURVE",
"56 212 OFFCURVE",
"56 119 CURVE SMOOTH",
"56 35 OFFCURVE",
"118 -13 OFFCURVE",
"220 -13 CURVE SMOOTH",
"392 -13 OFFCURVE",
"486 166 OFFCURVE",
"491 175 CURVE",
"491 63 OFFCURVE",
"521 -13 OFFCURVE",
"640 -13 CURVE SMOOTH",
"727 -13 OFFCURVE",
"773 39 OFFCURVE",
"773 39 CURVE",
"740 147 LINE",
"740 147 OFFCURVE",
"711 97 OFFCURVE",
"665 97 CURVE SMOOTH",
"635 97 OFFCURVE",
"624 121 OFFCURVE",
"625 152 CURVE SMOOTH"
);
},
{
closed = 1;
nodes = (
"228 206 OFFCURVE",
"287 275 OFFCURVE",
"469 292 CURVE",
"469 253 LINE",
"469 253 OFFCURVE",
"402 97 OFFCURVE",
"286 97 CURVE SMOOTH",
"236 97 OFFCURVE",
"228 129 OFFCURVE",
"228 153 CURVE SMOOTH"
);
}
);
userData = {
com.schriftgestaltung.Glyphs.lastChange = "2018-04-05 15:27:41 +0000";
com.typemytype.robofont.guides = (
{
angle = 90;
isGlobal = 0;
magnetic = 5;
x = -884;
y = 0;
},
{
angle = 90;
isGlobal = 0;
magnetic = 5;
x = -442;
y = 0;
}
);
};
width = 773;
}
);
leftKerningGroup = o;
rightKerningGroup = o;
unicode = 0061;
},
{
glyphname = aacute;
lastChange = "2021-03-04 10:47:14 +0000";
layers = (
{
components = (
{
name = a;
},
{
name = acute;
transform = "{1, 0, 0, 1, -265, 0}";
}
);
layerId = "C6CCADDD-D708-401D-8889-C4B70B102AC4";
userData = {
com.typemytype.robofont.mark = (
0.6,
0.609,
1,
1
);
};
width = 704;
},
{
layerId = "94CDDA45-35D1-47CC-AC03-9E9335022822";
paths = (
{
closed = 1;
nodes = (
"256 648 LINE",
"373 648 LINE",
"602 792 LINE",
"392 792 LINE"
);
},
{
closed = 1;
nodes = (
"634 359 LINE",
"638 472 OFFCURVE",
"543 568 OFFCURVE",
"363 568 CURVE SMOOTH",
"83 568 OFFCURVE",
"30 379 OFFCURVE",
"30 379 CURVE",
"202 335 LINE",
"202 335 OFFCURVE",
"203 458 OFFCURVE",
"355 458 CURVE SMOOTH",
"457 458 OFFCURVE",
"469 396 OFFCURVE",
"469 345 CURVE",
"165 319 OFFCURVE",
"56 212 OFFCURVE",
"56 119 CURVE SMOOTH",
"56 35 OFFCURVE",
"118 -13 OFFCURVE",
"220 -13 CURVE SMOOTH",
"392 -13 OFFCURVE",
"486 166 OFFCURVE",
"491 175 CURVE",
"491 63 OFFCURVE",
"521 -13 OFFCURVE",
"640 -13 CURVE SMOOTH",
"727 -13 OFFCURVE",
"773 39 OFFCURVE",
"773 39 CURVE",
"740 147 LINE",
"740 147 OFFCURVE",
"711 97 OFFCURVE",
"665 97 CURVE SMOOTH",
"635 97 OFFCURVE",
"624 121 OFFCURVE",
"625 152 CURVE SMOOTH"
);
},
{
closed = 1;
nodes = (
"228 206 OFFCURVE",
"287 275 OFFCURVE",
"469 292 CURVE",
"469 253 LINE",
"469 253 OFFCURVE",
"402 97 OFFCURVE",
"286 97 CURVE SMOOTH",
"236 97 OFFCURVE",
"228 129 OFFCURVE",
"228 153 CURVE SMOOTH"
);
}
);
userData = {
com.schriftgestaltung.Glyphs.lastChange = "2018-04-05 15:27:41 +0000";
};
width = 773;
}
);
leftKerningGroup = o;
rightKerningGroup = o;
unicode = 00E1;
},
{
glyphname = acircumflex;
lastChange = "2021-03-04 10:47:14 +0000";
layers = (
{
components = (
{
name = a;
},
{
name = circumflex;
transform = "{1, 0, 0, 1, -265, 0}";
}
);
layerId = "C6CCADDD-D708-401D-8889-C4B70B102AC4";
userData = {
com.typemytype.robofont.mark = (
0.6,
0.609,
1,
1
);
};
width = 704;
},
{
layerId = "94CDDA45-35D1-47CC-AC03-9E9335022822";
paths = (
{
closed = 1;
nodes = (
"98 648 LINE",
"195 648 LINE",
"359 710 LINE",
"523 648 LINE",
"620 648 LINE",
"434 792 LINE",
"284 792 LINE"
);
},
{
closed = 1;
nodes = (
"634 359 LINE",
"638 472 OFFCURVE",
"543 568 OFFCURVE",
"363 568 CURVE SMOOTH",
"83 568 OFFCURVE",
"30 379 OFFCURVE",
"30 379 CURVE",
"202 335 LINE",
"202 335 OFFCURVE",
"203 458 OFFCURVE",
"355 458 CURVE SMOOTH",
"457 458 OFFCURVE",
"469 396 OFFCURVE",
"469 345 CURVE",
"165 319 OFFCURVE",
"56 212 OFFCURVE",
"56 119 CURVE SMOOTH",
"56 35 OFFCURVE",
"118 -13 OFFCURVE",
"220 -13 CURVE SMOOTH",
"392 -13 OFFCURVE",
"486 166 OFFCURVE",
"491 175 CURVE",
"491 63 OFFCURVE",
"521 -13 OFFCURVE",
"640 -13 CURVE SMOOTH",
"727 -13 OFFCURVE",
"773 39 OFFCURVE",
"773 39 CURVE",
"740 147 LINE",
"740 147 OFFCURVE",
"711 97 OFFCURVE",
"665 97 CURVE SMOOTH",
"635 97 OFFCURVE",
"624 121 OFFCURVE",
"625 152 CURVE SMOOTH"
);
},
{
closed = 1;
nodes = (
"228 206 OFFCURVE",
"287 275 OFFCURVE",
"469 292 CURVE",
"469 253 LINE",
"469 253 OFFCURVE",
"402 97 OFFCURVE",
"286 97 CURVE SMOOTH",
"236 97 OFFCURVE",
"228 129 OFFCURVE",
"228 153 CURVE SMOOTH"
);
}
);
userData = {
com.schriftgestaltung.Glyphs.lastChange = "2018-04-05 15:27:41 +0000";
};
width = 773;
}
);
leftKerningGroup = o;
rightKerningGroup = o;
unicode = 00E2;
},
{
glyphname = adieresis;
lastChange = "2021-03-04 10:47:14 +0000";
layers = (
{
components = (
{
name = a;
},
{
name = dieresis;
transform = "{1, 0, 0, 1, 157, 0}";
}
);
layerId = "C6CCADDD-D708-401D-8889-C4B70B102AC4";
userData = {
com.typemytype.robofont.mark = (
0.6,
0.609,
1,
1
);
};
width = 704;
},
{
layerId = "94CDDA45-35D1-47CC-AC03-9E9335022822";
paths = (
{
closed = 1;
nodes = (
"302 662 LINE",
"302 812 LINE",
"164 812 LINE",
"164 662 LINE"
);
},
{
closed = 1;
nodes = (
"542 662 LINE",
"542 812 LINE",
"404 812 LINE",
"404 662 LINE"
);
},
{
closed = 1;
nodes = (
"634 359 LINE",
"638 472 OFFCURVE",
"543 568 OFFCURVE",
"363 568 CURVE SMOOTH",
"83 568 OFFCURVE",
"30 379 OFFCURVE",
"30 379 CURVE",
"202 335 LINE",
"202 335 OFFCURVE",
"203 458 OFFCURVE",
"355 458 CURVE SMOOTH",
"457 458 OFFCURVE",
"469 396 OFFCURVE",
"469 345 CURVE",
"165 319 OFFCURVE",
"56 212 OFFCURVE",
"56 119 CURVE SMOOTH",
"56 35 OFFCURVE",
"118 -13 OFFCURVE",
"220 -13 CURVE SMOOTH",
"392 -13 OFFCURVE",
"486 166 OFFCURVE",
"491 175 CURVE",
"491 63 OFFCURVE",
"521 -13 OFFCURVE",
"640 -13 CURVE SMOOTH",
"727 -13 OFFCURVE",
"773 39 OFFCURVE",
"773 39 CURVE",
"740 147 LINE",
"740 147 OFFCURVE",
"711 97 OFFCURVE",
"665 97 CURVE SMOOTH",
"635 97 OFFCURVE",
"624 121 OFFCURVE",
"625 152 CURVE SMOOTH"
);
},
{
closed = 1;
nodes = (
"228 206 OFFCURVE",
"287 275 OFFCURVE",
"469 292 CURVE",
"469 253 LINE",
"469 253 OFFCURVE",
"402 97 OFFCURVE",
"286 97 CURVE SMOOTH",
"236 97 OFFCURVE",
"228 129 OFFCURVE",
"228 153 CURVE SMOOTH"
);
}
);
userData = {
com.schriftgestaltung.Glyphs.lastChange = "2018-04-05 15:27:41 +0000";
};
width = 773;
}
);
leftKerningGroup = o;
rightKerningGroup = o;
unicode = 00E4;
},
{
glyphname = agrave;
lastChange = "2021-03-04 10:47:14 +0000";
layers = (
{
components = (
{
name = a;
},
{
name = grave;
transform = "{1, 0, 0, 1, -265, 0}";
}
);
layerId = "C6CCADDD-D708-401D-8889-C4B70B102AC4";
userData = {
com.typemytype.robofont.mark = (
0.6,
0.609,
1,
1
);
};
width = 704;
},
{
layerId = "94CDDA45-35D1-47CC-AC03-9E9335022822";
paths = (
{
closed = 1;
nodes = (
"345 648 LINE",
"462 648 LINE",
"326 791 LINE",
"116 791 LINE"
);
},
{
closed = 1;
nodes = (
"634 359 LINE",
"638 472 OFFCURVE",
"543 568 OFFCURVE",
"363 568 CURVE SMOOTH",
"83 568 OFFCURVE",
"30 379 OFFCURVE",
"30 379 CURVE",
"202 335 LINE",
"202 335 OFFCURVE",
"203 458 OFFCURVE",
"355 458 CURVE SMOOTH",
"457 458 OFFCURVE",
"469 396 OFFCURVE",
"469 345 CURVE",
"165 319 OFFCURVE",
"56 212 OFFCURVE",
"56 119 CURVE SMOOTH",
"56 35 OFFCURVE",
"118 -13 OFFCURVE",
"220 -13 CURVE SMOOTH",
"392 -13 OFFCURVE",
"486 166 OFFCURVE",
"491 175 CURVE",
"491 63 OFFCURVE",
"521 -13 OFFCURVE",
"640 -13 CURVE SMOOTH",
"727 -13 OFFCURVE",
"773 39 OFFCURVE",
"773 39 CURVE",
"740 147 LINE",
"740 147 OFFCURVE",
"711 97 OFFCURVE",
"665 97 CURVE SMOOTH",
"635 97 OFFCURVE",
"624 121 OFFCURVE",
"625 152 CURVE SMOOTH"
);
},
{
closed = 1;
nodes = (
"228 206 OFFCURVE",
"287 275 OFFCURVE",
"469 292 CURVE",
"469 253 LINE",
"469 253 OFFCURVE",
"402 97 OFFCURVE",
"286 97 CURVE SMOOTH",
"236 97 OFFCURVE",
"228 129 OFFCURVE",
"228 153 CURVE SMOOTH"
);
}
);
userData = {
com.schriftgestaltung.Glyphs.lastChange = "2018-04-05 15:27:41 +0000";
};
width = 773;
}
);
leftKerningGroup = o;
rightKerningGroup = o;
unicode = 00E0;
},
{
glyphname = aogonek;
lastChange = "2021-03-04 10:47:14 +0000";
layers = (
{
layerId = "C6CCADDD-D708-401D-8889-C4B70B102AC4";
paths = (
{
closed = 1;
nodes = (
"668 -186 OFFCURVE",
"573 -188 OFFCURVE",
"573 -119 CURVE SMOOTH",
"573 -82 OFFCURVE",
"583 -58 OFFCURVE",
"670 9 CURVE",
"686 17 OFFCURVE",
"695 27 OFFCURVE",
"700 32 CURVE",
"701 32 OFFCURVE",
"701 33 OFFCURVE",
"702 33 CURVE",
"702 33 LINE",
"704 36 LINE",
"680 125 LINE",
"680 125 OFFCURVE",
"658 75 OFFCURVE",
"609 75 CURVE SMOOTH",
"577 75 OFFCURVE",
"564 98 OFFCURVE",
"565 133 CURVE SMOOTH",
"571 366 LINE SMOOTH",
"574 480 OFFCURVE",
"493 569 OFFCURVE",
"327 569 CURVE SMOOTH",
"104 569 OFFCURVE",
"50 404 OFFCURVE",
"50 404 CURVE",
"174 368 LINE",
"174 368 OFFCURVE",
"201 480 OFFCURVE",
"331 480 CURVE SMOOTH",
"460 480 OFFCURVE",
"450 364 OFFCURVE",
"450 364 CURVE",
"152 330 OFFCURVE",
"70 201 OFFCURVE",
"70 108 CURVE SMOOTH",
"70 39 OFFCURVE",
"122 -14 OFFCURVE",
"204 -14 CURVE SMOOTH",
"366 -14 OFFCURVE",
"446 199 OFFCURVE",
"450 209 CURVE",
"450 115 LINE SMOOTH",
"450 17 OFFCURVE",
"512 -14 OFFCURVE",
"573 -14 CURVE",
"523 -52 OFFCURVE",
"489 -98 OFFCURVE",
"489 -167 CURVE SMOOTH",
"489 -294 OFFCURVE",
"634 -327 OFFCURVE",
"731 -252 CURVE",
"711 -115 LINE"
);
},
{
closed = 1;
nodes = (
"197 95 OFFCURVE",
"197 133 CURVE SMOOTH",
"197 182 OFFCURVE",
"227 273 OFFCURVE",
"450 330 CURVE",
"450 295 LINE",
"452 253 OFFCURVE",
"356 75 OFFCURVE",
"250 75 CURVE SMOOTH",
"217 75 OFFCURVE"
);
}
);
userData = {
com.schriftgestaltung.Glyphs.lastChange = "2018-04-05 15:26:36 +0000";
};
width = 731;
},
{
layerId = "94CDDA45-35D1-47CC-AC03-9E9335022822";
paths = (
{
closed = 1;
nodes = (
"716 -174 OFFCURVE",
"620 -185 OFFCURVE",
"620 -111 CURVE SMOOTH",
"620 -57 OFFCURVE",
"671 -47 OFFCURVE",
"755 23 CURVE",
"767 32 OFFCURVE",
"773 39 OFFCURVE",
"773 39 CURVE",
"740 147 LINE",
"740 147 OFFCURVE",
"711 97 OFFCURVE",
"665 97 CURVE SMOOTH",
"635 97 OFFCURVE",
"624 121 OFFCURVE",
"625 152 CURVE SMOOTH",
"634 359 LINE SMOOTH",
"638 472 OFFCURVE",
"543 568 OFFCURVE",
"363 568 CURVE SMOOTH",
"83 568 OFFCURVE",
"30 379 OFFCURVE",
"30 379 CURVE",
"202 335 LINE",
"202 335 OFFCURVE",
"203 458 OFFCURVE",
"355 458 CURVE SMOOTH",
"457 458 OFFCURVE",
"469 396 OFFCURVE",
"469 345 CURVE",
"165 319 OFFCURVE",
"56 212 OFFCURVE",
"56 119 CURVE SMOOTH",
"56 35 OFFCURVE",
"118 -13 OFFCURVE",
"220 -13 CURVE SMOOTH",
"392 -13 OFFCURVE",
"486 166 OFFCURVE",
"491 175 CURVE",
"491 69 OFFCURVE",
"518 -4 OFFCURVE",
"620 -12 CURVE",
"544 -39 OFFCURVE",
"491 -95 OFFCURVE",
"491 -166 CURVE SMOOTH",
"491 -294 OFFCURVE",
"661 -328 OFFCURVE",
"784 -252 CURVE",
"760 -115 LINE"
);
},
{
closed = 1;
nodes = (
"469 253 OFFCURVE",
"402 97 OFFCURVE",
"286 97 CURVE SMOOTH",
"236 97 OFFCURVE",
"228 129 OFFCURVE",
"228 153 CURVE SMOOTH",
"228 206 OFFCURVE",
"287 275 OFFCURVE",
"469 292 CURVE",
"469 253 LINE"
);
}
);
userData = {
com.schriftgestaltung.Glyphs.lastChange = "2018-04-05 15:32:41 +0000";
};
width = 784;
}
);
leftMetricsKey = a;
rightMetricsKey = a;
unicode = 0105;
},
{
glyphname = aring;
lastChange = "2021-03-04 10:47:14 +0000";
layers = (
{
components = (
{
name = a;
},
{
name = ring;
transform = "{1, 0, 0, 1, -265, 0}";
}
);
layerId = "C6CCADDD-D708-401D-8889-C4B70B102AC4";
userData = {
com.typemytype.robofont.mark = (
0.6,
0.609,
1,
1
);
};
width = 704;
},
{
layerId = "94CDDA45-35D1-47CC-AC03-9E9335022822";
paths = (
{
closed = 1;
nodes = (
"254 686 OFFCURVE",
"304 636 OFFCURVE",
"373 636 CURVE SMOOTH",
"443 636 OFFCURVE",
"494 686 OFFCURVE",
"494 745 CURVE SMOOTH",
"494 809 OFFCURVE",
"446 856 OFFCURVE",
"373 856 CURVE SMOOTH",
"303 856 OFFCURVE",
"254 805 OFFCURVE",
"254 745 CURVE SMOOTH"
);
},
{
closed = 1;
nodes = (
"330 774 OFFCURVE",
"351 790 OFFCURVE",
"374 790 CURVE SMOOTH",
"397 790 OFFCURVE",
"418 771 OFFCURVE",
"418 746 CURVE SMOOTH",
"418 720 OFFCURVE",
"397 702 OFFCURVE",
"374 702 CURVE SMOOTH",
"351 702 OFFCURVE",
"330 718 OFFCURVE",
"330 746 CURVE SMOOTH"
);
},
{
closed = 1;
nodes = (
"634 359 LINE",
"638 472 OFFCURVE",
"543 568 OFFCURVE",
"363 568 CURVE SMOOTH",
"83 568 OFFCURVE",
"30 379 OFFCURVE",
"30 379 CURVE",
"202 335 LINE",
"202 335 OFFCURVE",
"203 458 OFFCURVE",
"355 458 CURVE SMOOTH",
"457 458 OFFCURVE",
"469 396 OFFCURVE",
"469 345 CURVE",
"165 319 OFFCURVE",
"56 212 OFFCURVE",
"56 119 CURVE SMOOTH",
"56 35 OFFCURVE",
"118 -13 OFFCURVE",
"220 -13 CURVE SMOOTH",
"392 -13 OFFCURVE",
"486 166 OFFCURVE",
"491 175 CURVE",
"491 63 OFFCURVE",
"521 -13 OFFCURVE",
"640 -13 CURVE SMOOTH",
"727 -13 OFFCURVE",
"773 39 OFFCURVE",
"773 39 CURVE",
"740 147 LINE",
"740 147 OFFCURVE",
"711 97 OFFCURVE",
"665 97 CURVE SMOOTH",
"635 97 OFFCURVE",
"624 121 OFFCURVE",
"625 152 CURVE SMOOTH"
);
},
{
closed = 1;
nodes = (
"228 206 OFFCURVE",
"287 275 OFFCURVE",
"469 292 CURVE",
"469 253 LINE",
"469 253 OFFCURVE",
"402 97 OFFCURVE",
"286 97 CURVE SMOOTH",
"236 97 OFFCURVE",
"228 129 OFFCURVE",
"228 153 CURVE SMOOTH"
);
}
);
userData = {
com.schriftgestaltung.Glyphs.lastChange = "2018-04-05 15:27:41 +0000";
};
width = 773;
}
);
leftKerningGroup = o;
rightKerningGroup = o;
unicode = 00E5;
},
{
glyphname = atilde;
lastChange = "2021-03-04 10:47:14 +0000";
layers = (
{
components = (
{
name = a;
},
{
name = tilde;
transform = "{1, 0, 0, 1, -265, 0}";
}
);
layerId = "C6CCADDD-D708-401D-8889-C4B70B102AC4";
userData = {
com.typemytype.robofont.mark = (
0.6,
0.609,
1,
1
);
};
width = 704;
},
{
layerId = "94CDDA45-35D1-47CC-AC03-9E9335022822";
paths = (
{
closed = 1;
nodes = (
"379 760 OFFCURVE",
"354 826 OFFCURVE",
"269 826 CURVE SMOOTH",
"176 826 OFFCURVE",
"153 718 OFFCURVE",
"153 718 CURVE",
"193 662 LINE",
"193 662 OFFCURVE",
"207 728 OFFCURVE",
"265 728 CURVE SMOOTH",
"335 728 OFFCURVE",
"356 662 OFFCURVE",
"443 662 CURVE SMOOTH",
"536 662 OFFCURVE",
"559 770 OFFCURVE",
"559 770 CURVE",
"519 826 LINE",
"519 826 OFFCURVE",
"506 760 OFFCURVE",
"446 760 CURVE SMOOTH"
);
},
{
closed = 1;
nodes = (
"634 359 LINE",
"638 472 OFFCURVE",
"543 568 OFFCURVE",
"363 568 CURVE SMOOTH",
"83 568 OFFCURVE",
"30 379 OFFCURVE",
"30 379 CURVE",
"202 335 LINE",
"202 335 OFFCURVE",
"203 458 OFFCURVE",
"355 458 CURVE SMOOTH",
"457 458 OFFCURVE",
"469 396 OFFCURVE",
"469 345 CURVE",
"165 319 OFFCURVE",
"56 212 OFFCURVE",
"56 119 CURVE SMOOTH",
"56 35 OFFCURVE",
"118 -13 OFFCURVE",
"220 -13 CURVE SMOOTH",
"392 -13 OFFCURVE",
"486 166 OFFCURVE",
"491 175 CURVE",
"491 63 OFFCURVE",
"521 -13 OFFCURVE",
"640 -13 CURVE SMOOTH",
"727 -13 OFFCURVE",
"773 39 OFFCURVE",
"773 39 CURVE",
"740 147 LINE",
"740 147 OFFCURVE",
"711 97 OFFCURVE",
"665 97 CURVE SMOOTH",
"635 97 OFFCURVE",
"624 121 OFFCURVE",
"625 152 CURVE SMOOTH"
);
},
{
closed = 1;
nodes = (
"228 206 OFFCURVE",
"287 275 OFFCURVE",
"469 292 CURVE",
"469 253 LINE",
"469 253 OFFCURVE",
"402 97 OFFCURVE",
"286 97 CURVE SMOOTH",
"236 97 OFFCURVE",
"228 129 OFFCURVE",
"228 153 CURVE SMOOTH"
);
}
);
userData = {
com.schriftgestaltung.Glyphs.lastChange = "2018-04-05 15:27:41 +0000";
};
width = 773;
}
);
leftKerningGroup = o;
rightKerningGroup = o;
unicode = 00E3;
},
{
glyphname = ae;
lastChange = "2021-03-04 10:47:14 +0000";
layers = (
{
layerId = "C6CCADDD-D708-401D-8889-C4B70B102AC4";
paths = (
{
closed = 1;
nodes = (
"628 75 OFFCURVE",
"578 160 OFFCURVE",
"578 278 CURVE SMOOTH",
"578 283 LINE",
"1002 273 LINE",
"1002 273 OFFCURVE",
"1040 569 OFFCURVE",
"738 569 CURVE SMOOTH",
"645 569 OFFCURVE",
"572 530 OFFCURVE",
"528 480 CURVE",
"493 529 OFFCURVE",
"422 569 OFFCURVE",
"327 569 CURVE SMOOTH",
"104 569 OFFCURVE",
"50 404 OFFCURVE",
"50 404 CURVE",
"174 368 LINE",
"174 368 OFFCURVE",
"201 480 OFFCURVE",
"331 480 CURVE SMOOTH",
"460 480 OFFCURVE",
"450 364 OFFCURVE",
"450 364 CURVE",
"152 330 OFFCURVE",
"70 201 OFFCURVE",
"70 108 CURVE SMOOTH",
"70 39 OFFCURVE",
"122 -14 OFFCURVE",
"204 -14 CURVE SMOOTH",
"380 -14 OFFCURVE",
"469 227 OFFCURVE",
"469 227 CURVE",
"491 58 OFFCURVE",
"606 -14 OFFCURVE",
"738 -14 CURVE SMOOTH",
"982 -14 OFFCURVE",
"1017 185 OFFCURVE",
"1017 185 CURVE",
"893 221 LINE",
"893 221 OFFCURVE",
"891 75 OFFCURVE",
"741 75 CURVE SMOOTH"
);
},
{
closed = 1;
nodes = (
"580 324 LINE",
"590 417 OFFCURVE",
"634 480 OFFCURVE",
"731 480 CURVE SMOOTH",
"878 480 OFFCURVE",
"875 338 OFFCURVE",
"875 338 CURVE"
);
},
{
closed = 1;
nodes = (
"197 182 OFFCURVE",
"227 273 OFFCURVE",
"450 330 CURVE",
"450 295 LINE",
"452 253 OFFCURVE",
"356 75 OFFCURVE",
"250 75 CURVE SMOOTH",
"217 75 OFFCURVE",
"197 95 OFFCURVE",
"197 133 CURVE SMOOTH"
);
}
);
userData = {
com.schriftgestaltung.Glyphs.lastChange = "2018-04-05 15:21:53 +0000";
com.typemytype.robofont.mark = (
0.6,
0.609,
1,
1
);
};
width = 1077;
},
{
layerId = "94CDDA45-35D1-47CC-AC03-9E9335022822";
paths = (
{
closed = 1;
nodes = (
"1117 258 LINE",
"1132 337 OFFCURVE",
"1115 568 OFFCURVE",
"802 568 CURVE SMOOTH",
"701 568 OFFCURVE",
"623 538 OFFCURVE",
"569 488 CURVE",
"531 536 OFFCURVE",
"466 568 OFFCURVE",
"363 568 CURVE SMOOTH",
"83 568 OFFCURVE",
"30 379 OFFCURVE",
"30 379 CURVE",
"202 335 LINE",
"202 335 OFFCURVE",
"203 458 OFFCURVE",
"355 458 CURVE SMOOTH",
"457 458 OFFCURVE",
"469 396 OFFCURVE",
"469 345 CURVE",
"165 319 OFFCURVE",
"56 212 OFFCURVE",
"56 119 CURVE SMOOTH",
"56 35 OFFCURVE",
"118 -13 OFFCURVE",
"220 -13 CURVE SMOOTH",
"373 -13 OFFCURVE",
"463 120 OFFCURVE",
"498 184 CURVE",
"536 56 OFFCURVE",
"655 -13 OFFCURVE",
"802 -13 CURVE SMOOTH",
"1090 -13 OFFCURVE",
"1132 184 OFFCURVE",
"1132 184 CURVE",
"972 225 LINE",
"972 225 OFFCURVE",
"971 97 OFFCURVE",
"819 97 CURVE SMOOTH",
"684 97 OFFCURVE",
"632 182 OFFCURVE",
"631 268 CURVE"
);
},
{
closed = 1;
nodes = (
"641 346 LINE",
"641 346 OFFCURVE",
"661 463 OFFCURVE",
"799 463 CURVE SMOOTH",
"932 463 OFFCURVE",
"946 356 OFFCURVE",
"946 356 CURVE"
);
},
{
closed = 1;
nodes = (
"228 206 OFFCURVE",
"287 265 OFFCURVE",
"469 272 CURVE",
"469 253 LINE",
"469 253 OFFCURVE",
"402 97 OFFCURVE",
"286 97 CURVE SMOOTH",
"236 97 OFFCURVE",
"228 129 OFFCURVE",
"228 153 CURVE SMOOTH"
);
}
);
userData = {
com.schriftgestaltung.Glyphs.lastChange = "2018-04-05 15:27:41 +0000";
};
width = 1192;
}
);
leftKerningGroup = o;
rightKerningGroup = o;
unicode = 00E6;
},
{
glyphname = b;
lastChange = "2021-03-04 10:47:14 +0000";
layers = (
{
layerId = "C6CCADDD-D708-401D-8889-C4B70B102AC4";
paths = (
{
closed = 1;
nodes = (
"210 777 OFFCURVE",
"154 766 OFFCURVE",
"90 766 CURVE",
"90 0 LINE",
"158 0 LINE",
"196 132 LINE",
"196 132 OFFCURVE",
"233 -14 OFFCURVE",
"409 -14 CURVE",
"575 -14 OFFCURVE",
"687 107 OFFCURVE",
"687 277 CURVE SMOOTH",
"687 447 OFFCURVE",
"575 569 OFFCURVE",
"409 569 CURVE SMOOTH",
"259 569 OFFCURVE",
"210 452 OFFCURVE",
"210 452 CURVE",
"210 777 LINE"
);
},
{
closed = 1;
nodes = (
"251 75 OFFCURVE",
"185 167 OFFCURVE",
"185 277 CURVE SMOOTH",
"185 387 OFFCURVE",
"251 480 OFFCURVE",
"371 480 CURVE SMOOTH",
"489 480 OFFCURVE",
"559 397 OFFCURVE",
"559 277 CURVE SMOOTH",
"559 157 OFFCURVE",
"489 75 OFFCURVE",
"371 75 CURVE"
);
}
);
userData = {
com.schriftgestaltung.Glyphs.lastChange = "2018-04-05 15:21:53 +0000";
com.typemytype.robofont.mark = (
0.6,
0.609,
1,
1
);
};
width = 747;
},
{
layerId = "94CDDA45-35D1-47CC-AC03-9E9335022822";
paths = (
{
closed = 1;
nodes = (
"255 791 OFFCURVE",
"171 777 OFFCURVE",
"90 777 CURVE",
"90 0 LINE",
"186 0 LINE",
"224 127 LINE",
"224 127 OFFCURVE",
"273 -13 OFFCURVE",
"452 -13 CURVE",
"621 -13 OFFCURVE",
"745 107 OFFCURVE",
"745 277 CURVE SMOOTH",
"745 447 OFFCURVE",
"621 568 OFFCURVE",
"453 568 CURVE",
"298 568 OFFCURVE",
"255 467 OFFCURVE",
"255 467 CURVE",
"255 791 LINE"
);
},
{
closed = 1;
nodes = (
"278 97 OFFCURVE",
"229 185 OFFCURVE",
"229 277 CURVE SMOOTH",
"229 369 OFFCURVE",
"278 458 OFFCURVE",
"399 458 CURVE SMOOTH",
"518 458 OFFCURVE",
"572 378 OFFCURVE",
"572 277 CURVE SMOOTH",
"572 176 OFFCURVE",
"518 97 OFFCURVE",
"399 97 CURVE SMOOTH"
);
}
);
userData = {
com.schriftgestaltung.Glyphs.lastChange = "2018-04-05 15:27:41 +0000";
};
width = 805;
}
);
unicode = 0062;
},
{
glyphname = c;
lastChange = "2021-03-04 10:47:14 +0000";
layers = (
{
layerId = "C6CCADDD-D708-401D-8889-C4B70B102AC4";
paths = (
{
closed = 1;
nodes = (
"543 221 OFFCURVE",
"542 75 OFFCURVE",
"383 75 CURVE",
"270 75 OFFCURVE",
"188 148 OFFCURVE",
"188 278 CURVE SMOOTH",
"188 396 OFFCURVE",
"249 480 OFFCURVE",
"363 480 CURVE",
"494 480 OFFCURVE",
"535 377 OFFCURVE",
"527 278 CURVE",
"651 314 LINE",
"646 419 OFFCURVE",
"590 569 OFFCURVE",
"363 569 CURVE",
"173 569 OFFCURVE",
"60 444 OFFCURVE",
"60 278 CURVE SMOOTH",
"60 90 OFFCURVE",
"206 -14 OFFCURVE",
"368 -14 CURVE",
"631 -14 OFFCURVE",
"667 185 OFFCURVE",
"667 185 CURVE",
"543 221 LINE"
);
}
);
userData = {
com.schriftgestaltung.Glyphs.lastChange = "2018-04-05 15:21:53 +0000";
com.typemytype.robofont.mark = (
0.6,
0.609,
1,
1
);
};
width = 727;
},
{
layerId = "94CDDA45-35D1-47CC-AC03-9E9335022822";
paths = (
{
closed = 1;
nodes = (
"567 225 OFFCURVE",
"565 97 OFFCURVE",
"414 97 CURVE SMOOTH",
"296 97 OFFCURVE",
"232 169 OFFCURVE",
"232 278 CURVE SMOOTH",
"232 377 OFFCURVE",
"285 458 OFFCURVE",
"400 458 CURVE",
"577 458 OFFCURVE",
"547 263 OFFCURVE",
"547 263 CURVE",
"707 304 LINE",
"707 304 OFFCURVE",
"732 568 OFFCURVE",
"398 568 CURVE",
"190 568 OFFCURVE",
"60 443 OFFCURVE",
"60 278 CURVE SMOOTH",
"60 90 OFFCURVE",
"218 -13 OFFCURVE",
"397 -13 CURVE SMOOTH",
"684 -13 OFFCURVE",
"727 184 OFFCURVE",
"727 184 CURVE",
"567 225 LINE"
);
}
);
userData = {
com.schriftgestaltung.Glyphs.lastChange = "2018-04-05 15:27:41 +0000";
};
width = 777;
}
);
leftKerningGroup = o;
rightKerningGroup = o;
unicode = 0063;
},
{
glyphname = cacute;
lastChange = "2021-03-04 10:47:14 +0000";
layers = (
{
layerId = "C6CCADDD-D708-401D-8889-C4B70B102AC4";
paths = (
{
closed = 1;
nodes = (
"435 821 LINE",
"319 633 LINE",
"386 633 LINE",
"585 821 LINE"
);
},
{
closed = 1;
nodes = (
"543 221 OFFCURVE",
"542 75 OFFCURVE",
"383 75 CURVE SMOOTH",
"270 75 OFFCURVE",
"188 148 OFFCURVE",
"188 278 CURVE SMOOTH",
"188 396 OFFCURVE",
"249 480 OFFCURVE",
"363 480 CURVE SMOOTH",
"494 480 OFFCURVE",
"535 377 OFFCURVE",
"527 278 CURVE",
"651 314 LINE",
"646 419 OFFCURVE",
"590 569 OFFCURVE",
"363 569 CURVE SMOOTH",
"173 569 OFFCURVE",
"60 444 OFFCURVE",
"60 278 CURVE SMOOTH",
"60 90 OFFCURVE",
"206 -14 OFFCURVE",
"368 -14 CURVE SMOOTH",
"631 -14 OFFCURVE",
"667 185 OFFCURVE",
"667 185 CURVE",
"543 221 LINE"
);
}
);
userData = {
com.schriftgestaltung.Glyphs.lastChange = "2018-04-05 15:26:40 +0000";
};
width = 727;
},
{
layerId = "94CDDA45-35D1-47CC-AC03-9E9335022822";
paths = (
{
closed = 1;
nodes = (
"450 777 LINE",
"314 633 LINE",
"431 633 LINE",
"660 777 LINE"
);
},
{
closed = 1;
nodes = (
"567 225 OFFCURVE",
"565 97 OFFCURVE",
"414 97 CURVE SMOOTH",
"296 97 OFFCURVE",
"232 169 OFFCURVE",
"232 278 CURVE SMOOTH",
"232 377 OFFCURVE",
"285 458 OFFCURVE",
"400 458 CURVE SMOOTH",
"577 458 OFFCURVE",
"547 263 OFFCURVE",
"547 263 CURVE",
"707 304 LINE",
"707 304 OFFCURVE",
"732 568 OFFCURVE",
"398 568 CURVE SMOOTH",
"190 568 OFFCURVE",
"60 443 OFFCURVE",
"60 278 CURVE SMOOTH",
"60 90 OFFCURVE",
"218 -13 OFFCURVE",
"397 -13 CURVE SMOOTH",
"684 -13 OFFCURVE",
"727 184 OFFCURVE",
"727 184 CURVE",
"567 225 LINE"
);
}
);
userData = {
com.schriftgestaltung.Glyphs.lastChange = "2018-04-05 15:32:45 +0000";
};
width = 777;
}
);
leftMetricsKey = c;
rightMetricsKey = c;
unicode = 0107;
},
{
glyphname = ccedilla;
lastChange = "2021-03-04 10:47:14 +0000";
layers = (
{
components = (
{
name = c;
},
{
name = cedilla;
}
);
layerId = "C6CCADDD-D708-401D-8889-C4B70B102AC4";
userData = {
com.typemytype.robofont.mark = (
0.6,
0.609,
1,
1
);
};
width = 727;
},
{
layerId = "94CDDA45-35D1-47CC-AC03-9E9335022822";
paths = (
{
closed = 1;
nodes = (
"567 225 OFFCURVE",
"565 97 OFFCURVE",
"414 97 CURVE SMOOTH",
"296 97 OFFCURVE",
"232 169 OFFCURVE",
"232 278 CURVE SMOOTH",
"232 377 OFFCURVE",
"285 458 OFFCURVE",
"400 458 CURVE SMOOTH",
"577 458 OFFCURVE",
"547 263 OFFCURVE",
"547 263 CURVE",
"707 304 LINE",
"707 304 OFFCURVE",
"732 568 OFFCURVE",
"398 568 CURVE SMOOTH",
"190 568 OFFCURVE",
"60 443 OFFCURVE",
"60 278 CURVE SMOOTH",
"60 111 OFFCURVE",
"184 11 OFFCURVE",
"337 -9 CURVE",
"306 -96 LINE",
"358 -106 LINE",
"358 -106 OFFCURVE",
"371 -84 OFFCURVE",
"397 -84 CURVE SMOOTH",
"422 -84 OFFCURVE",
"439 -100 OFFCURVE",
"439 -124 CURVE SMOOTH",
"439 -152 OFFCURVE",
"413 -169 OFFCURVE",
"372 -169 CURVE SMOOTH",
"309 -169 OFFCURVE",
"276 -122 OFFCURVE",
"276 -122 CURVE",
"258 -190 LINE",
"258 -190 OFFCURVE",
"298 -237 OFFCURVE",
"382 -237 CURVE SMOOTH",
"450 -237 OFFCURVE",
"519 -198 OFFCURVE",
"519 -124 CURVE SMOOTH",
"519 -71 OFFCURVE",
"484 -38 OFFCURVE",
"432 -38 CURVE SMOOTH",
"399 -38 OFFCURVE",
"378 -55 OFFCURVE",
"378 -55 CURVE",
"393 -13 LINE",
"397 -13 LINE SMOOTH",
"684 -13 OFFCURVE",
"727 184 OFFCURVE",
"727 184 CURVE",
"567 225 LINE"
);
}
);
userData = {
com.schriftgestaltung.Glyphs.lastChange = "2018-04-05 15:27:41 +0000";
};
width = 777;
}
);
leftKerningGroup = o;
rightKerningGroup = o;
unicode = 00E7;
},
{
glyphname = d;
lastChange = "2021-03-04 10:47:14 +0000";
layers = (
{
layerId = "C6CCADDD-D708-401D-8889-C4B70B102AC4";
paths = (
{
closed = 1;
nodes = (
"537 452 OFFCURVE",
"488 569 OFFCURVE",
"338 569 CURVE SMOOTH",
"172 569 OFFCURVE",
"60 447 OFFCURVE",
"60 277 CURVE SMOOTH",
"60 107 OFFCURVE",
"172 -14 OFFCURVE",
"338 -14 CURVE",
"514 -14 OFFCURVE",
"551 132 OFFCURVE",
"551 132 CURVE",
"589 0 LINE",
"657 0 LINE",
"657 777 LINE",
"657 777 OFFCURVE",
"600 766 OFFCURVE",
"537 766 CURVE",
"537 452 LINE"
);
},
{
closed = 1;
nodes = (
"258 75 OFFCURVE",
"188 157 OFFCURVE",
"188 277 CURVE SMOOTH",
"188 397 OFFCURVE",
"258 480 OFFCURVE",
"376 480 CURVE SMOOTH",
"496 480 OFFCURVE",
"562 387 OFFCURVE",
"562 277 CURVE SMOOTH",
"562 167 OFFCURVE",
"496 75 OFFCURVE",
"376 75 CURVE"
);
}
);
userData = {
com.schriftgestaltung.Glyphs.lastChange = "2018-04-05 15:21:53 +0000";
com.typemytype.robofont.mark = (
0.6,
0.609,
1,
1
);
};
width = 747;
},
{
layerId = "94CDDA45-35D1-47CC-AC03-9E9335022822";
paths = (
{
closed = 1;
nodes = (
"549 467 OFFCURVE",
"507 568 OFFCURVE",
"352 568 CURVE SMOOTH",
"183 568 OFFCURVE",
"60 447 OFFCURVE",
"60 277 CURVE SMOOTH",
"60 107 OFFCURVE",
"183 -13 OFFCURVE",
"353 -13 CURVE SMOOTH",
"532 -13 OFFCURVE",
"580 127 OFFCURVE",
"580 127 CURVE",
"619 0 LINE",
"715 0 LINE",
"715 791 LINE",
"715 791 OFFCURVE",
"632 777 OFFCURVE",
"549 777 CURVE",
"549 467 LINE"
);
},
{
closed = 1;
nodes = (
"287 97 OFFCURVE",
"233 176 OFFCURVE",
"233 277 CURVE SMOOTH",
"233 378 OFFCURVE",
"287 458 OFFCURVE",
"405 458 CURVE SMOOTH",
"526 458 OFFCURVE",
"576 369 OFFCURVE",
"576 277 CURVE SMOOTH",
"576 185 OFFCURVE",
"526 97 OFFCURVE",
"405 97 CURVE SMOOTH"
);
}
);
userData = {
com.schriftgestaltung.Glyphs.lastChange = "2018-04-05 15:27:41 +0000";
};
width = 805;
}
);
unicode = 0064;
},
{
glyphname = e;
lastChange = "2021-03-04 10:47:14 +0000";
layers = (
{
anchors = (
{
name = top;
position = "{371, 613}";
}
);
layerId = "C6CCADDD-D708-401D-8889-C4B70B102AC4";
paths = (
{
closed = 1;
nodes = (
"543 221 LINE",
"543 221 OFFCURVE",
"543 75 OFFCURVE",
"383 75 CURVE SMOOTH",
"272 75 OFFCURVE",
"190 146 OFFCURVE",
"188 273 CURVE",
"652 263 LINE",
"652 263 OFFCURVE",
"680 569 OFFCURVE",
"368 569 CURVE",
"172 569 OFFCURVE",
"60 444 OFFCURVE",
"60 278 CURVE SMOOTH",
"60 90 OFFCURVE",
"206 -14 OFFCURVE",
"368 -14 CURVE SMOOTH",
"632 -14 OFFCURVE",
"667 185 OFFCURVE",
"667 185 CURVE"
);
},
{
closed = 1;
nodes = (
"193 334 LINE",
"210 422 OFFCURVE",
"268 480 OFFCURVE",
"361 480 CURVE",
"518 480 OFFCURVE",
"525 339 OFFCURVE",
"525 339 CURVE"
);
}
);
userData = {
com.schriftgestaltung.Glyphs.lastChange = "2018-04-05 15:21:53 +0000";
com.typemytype.robofont.mark = (
0.6,
0.609,
1,
1
);
};
width = 727;
},
{
anchors = (
{
name = top;
position = "{413, 633}";
}
);
layerId = "94CDDA45-35D1-47CC-AC03-9E9335022822";
paths = (
{
closed = 1;
nodes = (
"712 258 LINE",
"727 337 OFFCURVE",
"710 568 OFFCURVE",
"397 568 CURVE",
"190 568 OFFCURVE",
"60 443 OFFCURVE",
"60 278 CURVE SMOOTH",
"60 90 OFFCURVE",
"218 -13 OFFCURVE",
"397 -13 CURVE SMOOTH",
"685 -13 OFFCURVE",
"727 184 OFFCURVE",
"727 184 CURVE",
"567 225 LINE",
"567 225 OFFCURVE",
"566 97 OFFCURVE",
"414 97 CURVE SMOOTH",
"279 97 OFFCURVE",
"227 182 OFFCURVE",
"226 268 CURVE"
);
},
{
closed = 1;
nodes = (
"236 346 LINE",
"236 346 OFFCURVE",
"256 463 OFFCURVE",
"394 463 CURVE",
"527 463 OFFCURVE",
"541 356 OFFCURVE",
"541 356 CURVE"
);
}
);
userData = {
com.schriftgestaltung.Glyphs.lastChange = "2018-04-05 15:27:41 +0000";
};
width = 787;
}
);
leftKerningGroup = o;
rightKerningGroup = o;
unicode = 0065;
},
{
glyphname = eacute;
lastChange = "2021-03-04 10:47:14 +0000";
layers = (
{
components = (
{
name = e;
},
{
name = acute;
transform = "{1, 0, 0, 1, -230, 0}";
}
);
layerId = "C6CCADDD-D708-401D-8889-C4B70B102AC4";
userData = {
com.typemytype.robofont.mark = (
0.6,
0.609,
1,
1
);
};
width = 727;
},
{
layerId = "94CDDA45-35D1-47CC-AC03-9E9335022822";
paths = (
{
closed = 1;
nodes = (
"316 647 LINE",
"433 647 LINE",
"662 791 LINE",
"452 791 LINE"
);
},
{
closed = 1;
nodes = (
"712 258 LINE",
"727 337 OFFCURVE",
"710 568 OFFCURVE",
"397 568 CURVE",
"190 568 OFFCURVE",
"60 443 OFFCURVE",
"60 278 CURVE SMOOTH",
"60 90 OFFCURVE",
"218 -13 OFFCURVE",
"397 -13 CURVE SMOOTH",
"685 -13 OFFCURVE",
"727 184 OFFCURVE",
"727 184 CURVE",
"567 225 LINE",
"567 225 OFFCURVE",
"566 97 OFFCURVE",
"414 97 CURVE SMOOTH",
"279 97 OFFCURVE",
"227 182 OFFCURVE",
"226 268 CURVE"
);
},
{
closed = 1;
nodes = (
"236 346 LINE",
"236 346 OFFCURVE",
"256 463 OFFCURVE",
"394 463 CURVE",
"527 463 OFFCURVE",
"541 356 OFFCURVE",
"541 356 CURVE"
);
}
);
userData = {
com.schriftgestaltung.Glyphs.lastChange = "2018-04-05 15:27:41 +0000";
};
width = 787;
}
);
leftKerningGroup = o;
rightKerningGroup = o;
unicode = 00E9;
},
{
glyphname = ecircumflex;
lastChange = "2021-03-04 10:47:14 +0000";
layers = (
{
components = (
{
name = e;
},
{
name = circumflex;
transform = "{1, 0, 0, 1, -230, 0}";
}
);
layerId = "C6CCADDD-D708-401D-8889-C4B70B102AC4";
userData = {
com.typemytype.robofont.mark = (
0.6,
0.609,
1,
1
);
};
width = 727;
},
{
layerId = "94CDDA45-35D1-47CC-AC03-9E9335022822";
paths = (
{
closed = 1;
nodes = (
"133 648 LINE",
"230 648 LINE",
"394 710 LINE",
"558 648 LINE",
"655 648 LINE",
"469 792 LINE",
"319 792 LINE"
);
},
{
closed = 1;
nodes = (
"712 258 LINE",
"727 337 OFFCURVE",
"710 568 OFFCURVE",
"397 568 CURVE",
"190 568 OFFCURVE",
"60 443 OFFCURVE",
"60 278 CURVE SMOOTH",
"60 90 OFFCURVE",
"218 -13 OFFCURVE",
"397 -13 CURVE SMOOTH",
"685 -13 OFFCURVE",
"727 184 OFFCURVE",
"727 184 CURVE",
"567 225 LINE",
"567 225 OFFCURVE",
"566 97 OFFCURVE",
"414 97 CURVE SMOOTH",
"279 97 OFFCURVE",
"227 182 OFFCURVE",
"226 268 CURVE"
);
},
{
closed = 1;
nodes = (
"236 346 LINE",
"236 346 OFFCURVE",
"256 463 OFFCURVE",
"394 463 CURVE",
"527 463 OFFCURVE",
"541 356 OFFCURVE",
"541 356 CURVE"
);
}
);
userData = {
com.schriftgestaltung.Glyphs.lastChange = "2018-04-05 15:27:41 +0000";
};
width = 787;
}
);
leftKerningGroup = o;
rightKerningGroup = o;
unicode = 00EA;
},
{
glyphname = edieresis;
lastChange = "2021-03-04 10:47:14 +0000";
layers = (
{
components = (
{
name = e;
},
{
name = dieresis;
transform = "{1, 0, 0, 1, 192, 0}";
}
);
layerId = "C6CCADDD-D708-401D-8889-C4B70B102AC4";
userData = {
com.typemytype.robofont.mark = (
0.6,
0.609,
1,
1
);
};
width = 727;
},
{
layerId = "94CDDA45-35D1-47CC-AC03-9E9335022822";
paths = (
{
closed = 1;
nodes = (
"362 662 LINE",
"362 812 LINE",
"224 812 LINE",
"224 662 LINE"
);
},
{
closed = 1;
nodes = (
"602 662 LINE",
"602 812 LINE",
"464 812 LINE",
"464 662 LINE"
);
},
{
closed = 1;
nodes = (
"712 258 LINE",
"727 337 OFFCURVE",
"710 568 OFFCURVE",
"397 568 CURVE",
"190 568 OFFCURVE",
"60 443 OFFCURVE",
"60 278 CURVE SMOOTH",
"60 90 OFFCURVE",
"218 -13 OFFCURVE",
"397 -13 CURVE SMOOTH",
"685 -13 OFFCURVE",
"727 184 OFFCURVE",
"727 184 CURVE",
"567 225 LINE",
"567 225 OFFCURVE",
"566 97 OFFCURVE",
"414 97 CURVE SMOOTH",
"279 97 OFFCURVE",
"227 182 OFFCURVE",
"226 268 CURVE"
);
},
{
closed = 1;
nodes = (
"236 346 LINE",
"236 346 OFFCURVE",
"256 463 OFFCURVE",
"394 463 CURVE",
"527 463 OFFCURVE",
"541 356 OFFCURVE",
"541 356 CURVE"
);
}
);
userData = {
com.schriftgestaltung.Glyphs.lastChange = "2018-04-05 15:27:41 +0000";
};
width = 787;
}
);
leftKerningGroup = o;
rightKerningGroup = o;
unicode = 00EB;
},
{
glyphname = egrave;
lastChange = "2021-03-04 10:47:14 +0000";
layers = (
{
components = (
{
name = e;
},
{
name = grave;
transform = "{1, 0, 0, 1, -230, 0}";
}
);
layerId = "C6CCADDD-D708-401D-8889-C4B70B102AC4";
userData = {
com.typemytype.robofont.mark = (
0.6,
0.609,
1,
1
);
};
width = 727;
},
{
layerId = "94CDDA45-35D1-47CC-AC03-9E9335022822";
paths = (
{
closed = 1;
nodes = (
"375 648 LINE",
"492 648 LINE",
"356 791 LINE",
"146 791 LINE"
);
},
{
closed = 1;
nodes = (
"712 258 LINE",
"727 337 OFFCURVE",
"710 568 OFFCURVE",
"397 568 CURVE",
"190 568 OFFCURVE",
"60 443 OFFCURVE",
"60 278 CURVE SMOOTH",
"60 90 OFFCURVE",
"218 -13 OFFCURVE",
"397 -13 CURVE SMOOTH",
"685 -13 OFFCURVE",
"727 184 OFFCURVE",
"727 184 CURVE",
"567 225 LINE",
"567 225 OFFCURVE",
"566 97 OFFCURVE",
"414 97 CURVE SMOOTH",
"279 97 OFFCURVE",
"227 182 OFFCURVE",
"226 268 CURVE"
);
},
{
closed = 1;
nodes = (
"236 346 LINE",
"236 346 OFFCURVE",
"256 463 OFFCURVE",
"394 463 CURVE",
"527 463 OFFCURVE",
"541 356 OFFCURVE",
"541 356 CURVE"
);
}
);
userData = {
com.schriftgestaltung.Glyphs.lastChange = "2018-04-05 15:27:41 +0000";
};
width = 787;
}
);
leftKerningGroup = o;
rightKerningGroup = o;
unicode = 00E8;
},
{
glyphname = eogonek;
lastChange = "2021-03-04 10:47:14 +0000";
layers = (
{
layerId = "C6CCADDD-D708-401D-8889-C4B70B102AC4";
paths = (
{
closed = 1;
nodes = (
"516 -63 OFFCURVE",
"632 106 CURVE SMOOTH",
"661 148 OFFCURVE",
"667 185 OFFCURVE",
"667 185 CURVE",
"543 221 LINE",
"543 221 OFFCURVE",
"543 75 OFFCURVE",
"383 75 CURVE SMOOTH",
"271 75 OFFCURVE",
"190 146 OFFCURVE",
"188 273 CURVE",
"652 263 LINE",
"652 263 OFFCURVE",
"680 569 OFFCURVE",
"368 569 CURVE SMOOTH",
"172 569 OFFCURVE",
"60 444 OFFCURVE",
"60 278 CURVE SMOOTH",
"60 90 OFFCURVE",
"206 -14 OFFCURVE",
"368 -14 CURVE SMOOTH",
"428 -14 OFFCURVE",
"476 -4 OFFCURVE",
"515 12 CURVE",
"459 -52 OFFCURVE",
"419 -97 OFFCURVE",
"419 -165 CURVE SMOOTH",
"419 -295 OFFCURVE",
"564 -327 OFFCURVE",
"661 -252 CURVE",
"641 -115 LINE",
"598 -186 OFFCURVE",
"503 -188 OFFCURVE",
"503 -119 CURVE SMOOTH",
"503 -94 OFFCURVE"
);
},
{
closed = 1;
nodes = (
"525 339 OFFCURVE",
"525 339 CURVE SMOOTH",
"193 334 LINE",
"210 421 OFFCURVE",
"267 480 OFFCURVE",
"361 480 CURVE SMOOTH",
"518 480 OFFCURVE"
);
}
);
userData = {
com.schriftgestaltung.Glyphs.lastChange = "2018-04-05 15:26:43 +0000";
};
width = 727;
},
{
layerId = "94CDDA45-35D1-47CC-AC03-9E9335022822";
paths = (
{
closed = 1;
nodes = (
"585 -50 OFFCURVE",
"691 111 CURVE",
"720 151 OFFCURVE",
"727 184 OFFCURVE",
"727 184 CURVE",
"567 225 LINE",
"567 225 OFFCURVE",
"566 97 OFFCURVE",
"414 97 CURVE SMOOTH",
"279 97 OFFCURVE",
"227 182 OFFCURVE",
"226 268 CURVE",
"712 258 LINE",
"727 337 OFFCURVE",
"710 568 OFFCURVE",
"397 568 CURVE SMOOTH",
"190 568 OFFCURVE",
"60 443 OFFCURVE",
"60 278 CURVE SMOOTH",
"60 90 OFFCURVE",
"218 -13 OFFCURVE",
"397 -13 CURVE SMOOTH",
"445 -13 OFFCURVE",
"486 -7 OFFCURVE",
"522 2 CURVE",
"464 -52 OFFCURVE",
"427 -95 OFFCURVE",
"427 -156 CURVE SMOOTH",
"427 -301 OFFCURVE",
"602 -326 OFFCURVE",
"724 -252 CURVE",
"700 -115 LINE",
"657 -174 OFFCURVE",
"560 -183 OFFCURVE",
"560 -114 CURVE SMOOTH",
"560 -82 OFFCURVE"
);
},
{
closed = 1;
nodes = (
"541 356 OFFCURVE",
"541 356 CURVE SMOOTH",
"236 346 LINE SMOOTH",
"236 346 OFFCURVE",
"256 463 OFFCURVE",
"394 463 CURVE SMOOTH",
"527 463 OFFCURVE"
);
}
);
userData = {
com.schriftgestaltung.Glyphs.lastChange = "2018-04-05 15:32:49 +0000";
};
width = 787;
}
);
leftMetricsKey = e;
rightMetricsKey = e;
unicode = 0119;
},
{
glyphname = f;
lastChange = "2021-03-04 10:47:14 +0000";
layers = (
{
layerId = "C6CCADDD-D708-401D-8889-C4B70B102AC4";
paths = (
{
closed = 1;
nodes = (
"464 712 OFFCURVE",
"492 590 OFFCURVE",
"492 590 CURVE",
"616 626 LINE",
"616 626 OFFCURVE",
"562 791 OFFCURVE",
"326 791 CURVE",
"161 791 OFFCURVE",
"101 712 OFFCURVE",
"101 646 CURVE",
"101 575 OFFCURVE",
"170 555 OFFCURVE",
"170 555 CURVE",
"10 555 LINE",
"10 480 LINE",
"134 480 LINE",
"134 0 LINE",
"254 0 LINE",
"254 480 LINE",
"452 480 LINE",
"452 555 LINE",
"248 555 LINE",
"248 555 OFFCURVE",
"218 582 OFFCURVE",
"218 626 CURVE",
"218 679 OFFCURVE",
"261 712 OFFCURVE",
"330 712 CURVE SMOOTH"
);
}
);
userData = {
com.schriftgestaltung.Glyphs.lastChange = "2018-04-05 15:21:53 +0000";
com.typemytype.robofont.mark = (
0.6,
0.609,
1,
1
);
};
width = 496;
},
{
layerId = "94CDDA45-35D1-47CC-AC03-9E9335022822";
paths = (
{
closed = 1;
nodes = (
"0 458 LINE",
"128 458 LINE",
"128 0 LINE",
"293 0 LINE",
"293 458 LINE",
"495 458 LINE",
"495 555 LINE",
"283 555 LINE",
"283 555 OFFCURVE",
"267 569 OFFCURVE",
"267 594 CURVE SMOOTH",
"267 629 OFFCURVE",
"287 686 OFFCURVE",
"389 686 CURVE SMOOTH",
"541 686 OFFCURVE",
"542 558 OFFCURVE",
"542 558 CURVE",
"714 602 LINE",
"714 602 OFFCURVE",
"661 791 OFFCURVE",
"381 791 CURVE SMOOTH",
"201 791 OFFCURVE",
"110 705 OFFCURVE",
"110 628 CURVE SMOOTH",
"110 576 OFFCURVE",
"147 556 OFFCURVE",
"149 555 CURVE",
"0 555 LINE"
);
}
);
userData = {
com.schriftgestaltung.Glyphs.lastChange = "2018-04-05 15:27:41 +0000";
};
width = 564;
}
);
unicode = 0066;
},
{
glyphname = g;
lastChange = "2021-03-04 10:47:14 +0000";
layers = (
{
layerId = "C6CCADDD-D708-401D-8889-C4B70B102AC4";
paths = (
{
closed = 1;
nodes = (
"564 182 OFFCURVE",
"650 275 OFFCURVE",
"650 375 CURVE SMOOTH",
"650 417 OFFCURVE",
"635 457 OFFCURVE",
"603 490 CURVE",
"570 533 OFFCURVE",
"610 581 OFFCURVE",
"717 562 CURVE",
"693 651 LINE",
"552 669 OFFCURVE",
"516 608 OFFCURVE",
"564 522 CURVE",
"518 551 OFFCURVE",
"452 569 OFFCURVE",
"364 569 CURVE SMOOTH",
"164 569 OFFCURVE",
"78 475 OFFCURVE",
"78 375 CURVE SMOOTH",
"78 303 OFFCURVE",
"123 234 OFFCURVE",
"224 202 CURVE",
"177 198 OFFCURVE",
"70 181 OFFCURVE",
"70 106 CURVE",
"70 11 OFFCURVE",
"224 7 OFFCURVE",
"224 7 CURVE",
"128 7 OFFCURVE",
"50 -35 OFFCURVE",
"50 -107 CURVE SMOOTH",
"50 -159 OFFCURVE",
"88 -233 OFFCURVE",
"273 -233 CURVE SMOOTH",
"403 -233 LINE SMOOTH",
"611 -233 OFFCURVE",
"697 -173 OFFCURVE",
"697 -74 CURVE SMOOTH",
"697 1 OFFCURVE",
"647 75 OFFCURVE",
"474 75 CURVE SMOOTH",
"284 75 LINE SMOOTH",
"227 75 OFFCURVE",
"198 94 OFFCURVE",
"198 130 CURVE",
"198 172 OFFCURVE",
"240 186 OFFCURVE",
"271 190 CURVE",
"299 185 OFFCURVE",
"331 182 OFFCURVE",
"367 182 CURVE SMOOTH"
);
},
{
closed = 1;
nodes = (
"206 438 OFFCURVE",
"248 494 OFFCURVE",
"364 494 CURVE SMOOTH",
"480 494 OFFCURVE",
"521 438 OFFCURVE",
"521 375 CURVE SMOOTH",
"521 314 OFFCURVE",
"480 257 OFFCURVE",
"364 257 CURVE SMOOTH",
"248 257 OFFCURVE",
"206 314 OFFCURVE",
"206 375 CURVE SMOOTH"
);
},
{
closed = 1;
nodes = (
"542 -19 OFFCURVE",
"568 -45 OFFCURVE",
"568 -87 CURVE SMOOTH",
"568 -150 OFFCURVE",
"510 -172 OFFCURVE",
"378 -172 CURVE SMOOTH",
"228 -172 OFFCURVE",
"179 -150 OFFCURVE",
"179 -87 CURVE SMOOTH",
"179 0 OFFCURVE",
"295 0 OFFCURVE",
"295 0 CURVE",
"465 -13 LINE SMOOTH"
);
}
);
userData = {
com.schriftgestaltung.Glyphs.lastChange = "2018-04-05 15:21:53 +0000";
com.typemytype.robofont.mark = (
0.6,
0.609,
1,
1
);
};
width = 727;
},
{
layerId = "94CDDA45-35D1-47CC-AC03-9E9335022822";
paths = (
{
closed = 1;
nodes = (
"570 170 OFFCURVE",
"687 256 OFFCURVE",
"687 368 CURVE SMOOTH",
"687 404 OFFCURVE",
"675 437 OFFCURVE",
"652 466 CURVE",
"632 503 OFFCURVE",
"631 528 OFFCURVE",
"688 528 CURVE SMOOTH",
"700 528 OFFCURVE",
"735 526 OFFCURVE",
"774 520 CURVE",
"736 643 LINE",
"709 645 OFFCURVE",
"678 647 OFFCURVE",
"664 647 CURVE SMOOTH",
"610 647 OFFCURVE",
"577 618 OFFCURVE",
"577 568 CURVE SMOOTH",
"577 552 OFFCURVE",
"587 533 OFFCURVE",
"601 512 CURVE",
"547 547 OFFCURVE",
"469 568 OFFCURVE",
"373 568 CURVE SMOOTH",
"175 568 OFFCURVE",
"59 481 OFFCURVE",
"59 368 CURVE SMOOTH",
"59 293 OFFCURVE",
"110 231 OFFCURVE",
"202 197 CURVE",
"165 192 OFFCURVE",
"62 174 OFFCURVE",
"62 105 CURVE SMOOTH",
"62 23 OFFCURVE",
"188 6 OFFCURVE",
"201 5 CURVE",
"185 3 OFFCURVE",
"30 -13 OFFCURVE",
"30 -111 CURVE SMOOTH",
"30 -167 OFFCURVE",
"83 -237 OFFCURVE",
"258 -237 CURVE SMOOTH",
"479 -237 LINE SMOOTH",
"651 -237 OFFCURVE",
"757 -174 OFFCURVE",
"757 -70 CURVE SMOOTH",
"757 9 OFFCURVE",
"712 97 OFFCURVE",
"529 97 CURVE SMOOTH",
"324 97 LINE SMOOTH",
"257 97 OFFCURVE",
"223 108 OFFCURVE",
"223 140 CURVE SMOOTH",
"223 174 OFFCURVE",
"257 178 OFFCURVE",
"278 177 CURVE",
"307 172 OFFCURVE",
"340 170 OFFCURVE",
"375 170 CURVE SMOOTH"
);
},
{
closed = 1;
nodes = (
"226 427 OFFCURVE",
"264 471 OFFCURVE",
"373 471 CURVE SMOOTH",
"482 471 OFFCURVE",
"518 427 OFFCURVE",
"518 368 CURVE SMOOTH",
"518 311 OFFCURVE",
"482 267 OFFCURVE",
"373 267 CURVE SMOOTH",
"264 267 OFFCURVE",
"226 311 OFFCURVE",
"226 368 CURVE SMOOTH"
);
},
{
closed = 1;
nodes = (
"562 -16 OFFCURVE",
"583 -41 OFFCURVE",
"583 -81 CURVE SMOOTH",
"583 -147 OFFCURVE",
"508 -158 OFFCURVE",
"388 -158 CURVE SMOOTH",
"249 -158 OFFCURVE",
"204 -137 OFFCURVE",
"204 -82 CURVE SMOOTH",
"204 0 OFFCURVE",
"297 0 OFFCURVE",
"301 0 CURVE SMOOTH",
"496 -12 LINE SMOOTH"
);
}
);
userData = {
com.schriftgestaltung.Glyphs.lastChange = "2018-04-05 15:27:41 +0000";
};
width = 774;
}
);
leftKerningGroup = n;
rightKerningGroup = n;
unicode = 0067;
},
{
glyphname = h;
lastChange = "2021-03-04 10:47:14 +0000";
layers = (
{
layerId = "C6CCADDD-D708-401D-8889-C4B70B102AC4";
paths = (
{
closed = 1;
nodes = (
"210 777 OFFCURVE",
"161 766 OFFCURVE",
"90 766 CURVE",
"90 0 LINE",
"210 0 LINE",
"210 330 LINE",
"210 364 OFFCURVE",
"230 480 OFFCURVE",
"381 480 CURVE SMOOTH",
"481 480 OFFCURVE",
"538 435 OFFCURVE",
"538 342 CURVE SMOOTH",
"538 0 LINE",
"658 0 LINE",
"658 344 LINE SMOOTH",
"658 484 OFFCURVE",
"590 569 OFFCURVE",
"425 569 CURVE SMOOTH",
"235 569 OFFCURVE",
"210 415 OFFCURVE",
"210 415 CURVE",
"210 777 LINE"
);
}
);
userData = {
com.schriftgestaltung.Glyphs.lastChange = "2018-04-05 15:21:53 +0000";
com.typemytype.robofont.guides = (
{
angle = 0;
isGlobal = 0;
magnetic = 5;
x = 0;
y = 766;
}
);
com.typemytype.robofont.mark = (
0.6,
0.609,
1,
1
);
};
width = 748;
},
{
layerId = "94CDDA45-35D1-47CC-AC03-9E9335022822";
paths = (
{
closed = 1;
nodes = (
"255 791 OFFCURVE",
"181 777 OFFCURVE",
"90 777 CURVE",
"90 0 LINE",
"255 0 LINE",
"255 336 LINE",
"255 336 OFFCURVE",
"284 458 OFFCURVE",
"427 458 CURVE SMOOTH",
"505 458 OFFCURVE",
"561 422 OFFCURVE",
"561 348 CURVE SMOOTH",
"561 0 LINE",
"725 0 LINE",
"725 340 LINE SMOOTH",
"725 481 OFFCURVE",
"644 568 OFFCURVE",
"472 568 CURVE SMOOTH",
"285 568 OFFCURVE",
"257 432 OFFCURVE",
"255 419 CURVE",
"255 791 LINE"
);
}
);
userData = {
com.schriftgestaltung.Glyphs.lastChange = "2018-04-05 15:27:41 +0000";
com.typemytype.robofont.guides = (
{
angle = 0;
isGlobal = 0;
magnetic = 5;
x = 0;
y = 786;
}
);
};
width = 815;
}
);
unicode = 0068;
},
{
glyphname = i;
lastChange = "2021-03-04 10:47:14 +0000";
layers = (
{
layerId = "C6CCADDD-D708-401D-8889-C4B70B102AC4";
paths = (
{
closed = 1;
nodes = (
"210 681 LINE",
"210 777 LINE",
"90 777 LINE",
"90 681 LINE"
);
},
{
closed = 1;
nodes = (
"210 0 LINE",
"210 555 LINE",
"90 555 LINE",
"90 0 LINE"
);
}
);
userData = {
com.schriftgestaltung.Glyphs.lastChange = "2018-04-05 15:21:53 +0000";
com.typemytype.robofont.mark = (
0.6,
0.609,
1,
1
);
};
width = 300;
},
{
layerId = "94CDDA45-35D1-47CC-AC03-9E9335022822";
paths = (
{
closed = 1;
nodes = (
"255 650 LINE",
"255 777 LINE",
"90 777 LINE",
"90 650 LINE"
);
},
{
closed = 1;
nodes = (
"255 0 LINE",
"255 555 LINE",
"90 555 LINE",
"90 0 LINE"
);
}
);
userData = {
com.schriftgestaltung.Glyphs.lastChange = "2018-04-05 15:27:41 +0000";
};
width = 345;
}
);
unicode = 0069;
},
{
glyphname = dotlessi;
lastChange = "2021-03-04 10:47:14 +0000";
layers = (
{
layerId = "C6CCADDD-D708-401D-8889-C4B70B102AC4";
paths = (
{
closed = 1;
nodes = (
"210 0 LINE",
"210 555 LINE",
"90 555 LINE",
"90 0 LINE"
);
}
);
userData = {
com.schriftgestaltung.Glyphs.lastChange = "2018-04-05 15:21:53 +0000";
com.typemytype.robofont.mark = (
0.6,
0.609,
1,
1
);
};
width = 300;
},
{
layerId = "94CDDA45-35D1-47CC-AC03-9E9335022822";
paths = (
{
closed = 1;
nodes = (
"255 0 LINE",
"255 555 LINE",
"90 555 LINE",
"90 0 LINE"
);
}
);
userData = {
com.schriftgestaltung.Glyphs.lastChange = "2018-04-05 15:27:41 +0000";
};
width = 345;
}
);
unicode = 0131;
},
{
glyphname = iacute;
lastChange = "2021-03-04 10:47:14 +0000";
layers = (
{
components = (
{
name = dotlessi;
},
{
name = acute;
transform = "{1, 0, 0, 1, -432, 0}";
}
);
layerId = "C6CCADDD-D708-401D-8889-C4B70B102AC4";
userData = {
com.typemytype.robofont.mark = (
0.6,
0.609,
1,
1
);
};
width = 300;
},
{
layerId = "94CDDA45-35D1-47CC-AC03-9E9335022822";
paths = (
{
closed = 1;
nodes = (
"90 648 LINE",
"207 648 LINE",
"436 792 LINE",
"226 792 LINE"
);
},
{
closed = 1;
nodes = (
"255 0 LINE",
"255 555 LINE",
"90 555 LINE",
"90 0 LINE"
);
}
);
userData = {
com.schriftgestaltung.Glyphs.lastChange = "2018-04-05 15:27:41 +0000";
};
width = 345;
}
);
unicode = 00ED;
},
{
glyphname = icircumflex;
lastChange = "2021-03-04 10:47:14 +0000";
layers = (
{
components = (
{
name = dotlessi;
},
{
name = circumflex;
transform = "{1, 0, 0, 1, -451, 0}";
}
);
layerId = "C6CCADDD-D708-401D-8889-C4B70B102AC4";
userData = {
com.typemytype.robofont.mark = (
0.6,
0.609,
1,
1
);
};
width = 300;
},
{
layerId = "94CDDA45-35D1-47CC-AC03-9E9335022822";
paths = (
{
closed = 1;
nodes = (
"-88 648 LINE",
"9 648 LINE",
"173 710 LINE",
"337 648 LINE",
"434 648 LINE",
"248 792 LINE",
"98 792 LINE"
);
},
{
closed = 1;
nodes = (
"255 0 LINE",
"255 555 LINE",
"90 555 LINE",
"90 0 LINE"
);
}
);
userData = {
com.schriftgestaltung.Glyphs.lastChange = "2018-04-05 15:27:41 +0000";
};
width = 345;
}
);
unicode = 00EE;
},
{
glyphname = idieresis;
lastChange = "2021-03-04 10:47:14 +0000";
layers = (
{
components = (
{
name = dotlessi;
},
{
name = dieresis;
transform = "{1, 0, 0, 1, -29, 0}";
}
);
layerId = "C6CCADDD-D708-401D-8889-C4B70B102AC4";
userData = {
com.typemytype.robofont.mark = (
0.6,
0.609,
1,
1
);
};
width = 300;
},
{
layerId = "94CDDA45-35D1-47CC-AC03-9E9335022822";
paths = (
{
closed = 1;
nodes = (
"122 642 LINE",
"122 792 LINE",
"-16 792 LINE",
"-16 642 LINE"
);
},
{
closed = 1;
nodes = (
"362 642 LINE",
"362 792 LINE",
"224 792 LINE",
"224 642 LINE"
);
},
{
closed = 1;
nodes = (
"255 0 LINE",
"255 555 LINE",
"90 555 LINE",
"90 0 LINE"
);
}
);
userData = {
com.schriftgestaltung.Glyphs.lastChange = "2018-04-05 15:27:41 +0000";
};
width = 345;
}
);
unicode = 00EF;
},
{
glyphname = igrave;
lastChange = "2021-03-04 10:47:14 +0000";
layers = (
{
components = (
{
name = dotlessi;
},
{
name = grave;
transform = "{1, 0, 0, 1, -457, 0}";
}
);
layerId = "C6CCADDD-D708-401D-8889-C4B70B102AC4";
userData = {
com.typemytype.robofont.mark = (
0.6,
0.609,
1,
1
);
};
width = 300;
},
{
layerId = "94CDDA45-35D1-47CC-AC03-9E9335022822";
paths = (
{
closed = 1;
nodes = (
"151 648 LINE",
"268 648 LINE",
"132 791 LINE",
"-78 791 LINE"
);
},
{
closed = 1;
nodes = (
"255 0 LINE",
"255 555 LINE",
"90 555 LINE",
"90 0 LINE"
);
}
);
userData = {
com.schriftgestaltung.Glyphs.lastChange = "2018-04-05 15:27:41 +0000";
};
width = 345;
}
);
unicode = 00EC;
},
{
glyphname = j;
lastChange = "2021-03-04 10:47:14 +0000";
layers = (
{
layerId = "C6CCADDD-D708-401D-8889-C4B70B102AC4";
paths = (
{
closed = 1;
nodes = (
"221 681 LINE",
"221 777 LINE",
"101 777 LINE",
"101 681 LINE"
);
},
{
closed = 1;
nodes = (
"101 -92 OFFCURVE",
"68 -145 OFFCURVE",
"2 -145 CURVE",
"-45 -145 OFFCURVE",
"-66 -102 OFFCURVE",
"-66 -102 CURVE",
"-90 -191 LINE",
"-90 -191 OFFCURVE",
"-57 -237 OFFCURVE",
"24 -237 CURVE",
"155 -237 OFFCURVE",
"221 -138 OFFCURVE",
"221 15 CURVE",
"221 555 LINE",
"101 555 LINE",
"101 7 LINE"
);
}
);
userData = {
com.schriftgestaltung.Glyphs.lastChange = "2018-04-05 15:21:53 +0000";
com.typemytype.robofont.guides = (
{
angle = 90;
isGlobal = 0;
magnetic = 5;
x = 101;
y = 0;
}
);
com.typemytype.robofont.mark = (
0.6,
0.609,
1,
1
);
};
width = 311;
},
{
layerId = "94CDDA45-35D1-47CC-AC03-9E9335022822";
paths = (
{
closed = 1;
nodes = (
"255 635 LINE",
"255 762 LINE",
"90 762 LINE",
"90 635 LINE"
);
},
{
closed = 1;
nodes = (
"90 -95 OFFCURVE",
"58 -127 OFFCURVE",
"0 -127 CURVE SMOOTH",
"-77 -127 OFFCURVE",
"-104 -47 OFFCURVE",
"-104 -47 CURVE",
"-136 -154 LINE",
"-136 -154 OFFCURVE",
"-83 -237 OFFCURVE",
"37 -237 CURVE SMOOTH",
"159 -237 OFFCURVE",
"255 -151 OFFCURVE",
"255 13 CURVE",
"255 555 LINE",
"90 555 LINE",
"90 5 LINE"
);
}
);
userData = {
com.schriftgestaltung.Glyphs.lastChange = "2018-04-05 15:27:41 +0000";
com.typemytype.robofont.guides = (
{
angle = 90;
isGlobal = 0;
magnetic = 5;
x = 117;
y = 0;
}
);
};
width = 345;
}
);
unicode = 006A;
},
{
glyphname = k;
lastChange = "2021-03-04 10:47:14 +0000";
layers = (
{
layerId = "C6CCADDD-D708-401D-8889-C4B70B102AC4";
paths = (
{
closed = 1;
nodes = (
"210 0 LINE",
"210 197 LINE",
"267 251 LINE",
"499 0 LINE",
"654 0 LINE",
"352 321 LINE",
"600 555 LINE",
"454 555 LINE",
"210 325 LINE",
"210 777 LINE",
"210 777 OFFCURVE",
"161 766 OFFCURVE",
"90 766 CURVE",
"90 0 LINE"
);
}
);
userData = {
com.schriftgestaltung.Glyphs.lastChange = "2018-04-05 15:21:53 +0000";
com.typemytype.robofont.mark = (
0.6,
0.609,
1,
1
);
};
width = 654;
},
{
layerId = "94CDDA45-35D1-47CC-AC03-9E9335022822";
paths = (
{
closed = 1;
nodes = (
"255 0 LINE",
"255 138 LINE",
"330 210 LINE",
"537 0 LINE",
"738 0 LINE",
"424 298 LINE",
"698 555 LINE",
"498 555 LINE",
"255 311 LINE",
"255 792 LINE",
"255 792 OFFCURVE",
"181 777 OFFCURVE",
"90 777 CURVE",
"90 0 LINE"
);
}
);
userData = {
com.schriftgestaltung.Glyphs.lastChange = "2018-04-05 15:27:41 +0000";
};
width = 708;
}
);
unicode = 006B;
},
{
glyphname = l;
lastChange = "2021-03-04 10:47:14 +0000";
layers = (
{
layerId = "C6CCADDD-D708-401D-8889-C4B70B102AC4";
paths = (
{
closed = 1;
nodes = (
"210 0 LINE",
"210 777 LINE",
"210 777 OFFCURVE",
"154 766 OFFCURVE",
"90 766 CURVE",
"90 0 LINE"
);
}
);
userData = {
com.schriftgestaltung.Glyphs.lastChange = "2018-04-05 15:21:53 +0000";
com.typemytype.robofont.mark = (
0.6,
0.609,
1,
1
);
};
width = 300;
},
{
layerId = "94CDDA45-35D1-47CC-AC03-9E9335022822";
paths = (
{
closed = 1;
nodes = (
"255 0 LINE",
"255 791 LINE",
"255 791 OFFCURVE",
"171 777 OFFCURVE",
"90 777 CURVE",
"90 0 LINE"
);
}
);
userData = {
com.schriftgestaltung.Glyphs.lastChange = "2018-04-05 15:27:41 +0000";
};
width = 345;
}
);
unicode = 006C;
},
{
glyphname = lslash;
lastChange = "2021-03-04 10:47:14 +0000";
layers = (
{
layerId = "C6CCADDD-D708-401D-8889-C4B70B102AC4";
paths = (
{
closed = 1;
nodes = (
"383 558 LINE",
"270 467 LINE",
"270 777 LINE",
"270 777 OFFCURVE",
"214 766 OFFCURVE",
"150 766 CURVE",
"150 370 LINE",
"40 281 LINE",
"79 228 LINE",
"150 280 LINE",
"150 0 LINE",
"270 0 LINE",
"270 367 LINE",
"432 485 LINE"
);
}
);
userData = {
com.schriftgestaltung.Glyphs.lastChange = "2018-04-05 15:26:46 +0000";
};
width = 462;
},
{
layerId = "94CDDA45-35D1-47CC-AC03-9E9335022822";
paths = (
{
closed = 1;
nodes = (
"393 558 LINE",
"295 489 LINE",
"295 791 LINE",
"295 791 OFFCURVE",
"211 777 OFFCURVE",
"130 777 CURVE",
"130 372 LINE",
"30 301 LINE",
"69 228 LINE",
"130 265 LINE",
"130 0 LINE",
"295 0 LINE",
"295 366 LINE",
"442 455 LINE"
);
}
);
userData = {
com.schriftgestaltung.Glyphs.lastChange = "2018-04-05 15:32:54 +0000";
};
width = 462;
}
);
unicode = 0142;
},
{
glyphname = m;
lastChange = "2021-03-04 10:47:14 +0000";
layers = (
{
layerId = "C6CCADDD-D708-401D-8889-C4B70B102AC4";
paths = (
{
closed = 1;
nodes = (
"1046 0 LINE",
"1046 344 LINE SMOOTH",
"1046 484 OFFCURVE",
"998 569 OFFCURVE",
"843 569 CURVE SMOOTH",
"688 569 OFFCURVE",
"638 464 OFFCURVE",
"623 415 CURVE",
"607 512 OFFCURVE",
"551 569 OFFCURVE",
"425 569 CURVE SMOOTH",
"223 569 OFFCURVE",
"199 390 OFFCURVE",
"199 390 CURVE",
"148 555 LINE",
"90 555 LINE",
"90 0 LINE",
"210 0 LINE",
"210 330 LINE SMOOTH",
"210 364 OFFCURVE",
"230 480 OFFCURVE",
"371 480 CURVE SMOOTH",
"458 480 OFFCURVE",
"505 437 OFFCURVE",
"508 349 CURVE",
"508 0 LINE",
"628 0 LINE",
"628 330 LINE SMOOTH",
"628 364 OFFCURVE",
"648 480 OFFCURVE",
"789 480 CURVE SMOOTH",
"879 480 OFFCURVE",
"926 435 OFFCURVE",
"926 342 CURVE SMOOTH",
"926 0 LINE"
);
}
);
userData = {
com.schriftgestaltung.Glyphs.lastChange = "2018-04-05 15:21:53 +0000";
com.typemytype.robofont.mark = (
0.6,
0.609,
1,
1
);
};
width = 1136;
},
{
layerId = "94CDDA45-35D1-47CC-AC03-9E9335022822";
paths = (
{
closed = 1;
nodes = (
"1113 493 OFFCURVE",
"1032 568 OFFCURVE",
"892 568 CURVE SMOOTH",
"687 568 OFFCURVE",
"664 414 OFFCURVE",
"662 399 CURVE",
"662 405 OFFCURVE",
"658 568 OFFCURVE",
"463 568 CURVE SMOOTH",
"247 568 OFFCURVE",
"233 398 OFFCURVE",
"233 398 CURVE",
"186 555 LINE",
"90 555 LINE",
"90 0 LINE",
"255 0 LINE",
"255 336 LINE",
"255 336 OFFCURVE",
"289 458 OFFCURVE",
"409 458 CURVE SMOOTH",
"508 458 OFFCURVE",
"519 396 OFFCURVE",
"519 343 CURVE SMOOTH",
"519 0 LINE",
"684 0 LINE",
"684 336 LINE",
"684 336 OFFCURVE",
"718 458 OFFCURVE",
"838 458 CURVE SMOOTH",
"937 458 OFFCURVE",
"948 396 OFFCURVE",
"948 343 CURVE SMOOTH",
"948 0 LINE",
"1113 0 LINE",
"1113 340 LINE SMOOTH"
);
}
);
userData = {
com.schriftgestaltung.Glyphs.lastChange = "2018-04-05 15:27:41 +0000";
com.typemytype.robofont.guides = (
{
angle = 0;
isGlobal = 0;
magnetic = 5;
x = 0;
y = 398;
},
{
angle = 0;
isGlobal = 0;
magnetic = 5;
x = 0;
y = 340;
}
);
};
width = 1203;
}
);
leftKerningGroup = n;
rightKerningGroup = n;
unicode = 006D;
},
{
glyphname = n;
lastChange = "2021-03-04 10:47:14 +0000";
layers = (
{
anchors = (
{
name = top;
position = "{373, 613}";
}
);
layerId = "C6CCADDD-D708-401D-8889-C4B70B102AC4";
paths = (
{
closed = 1;
nodes = (
"658 0 LINE",
"658 344 LINE SMOOTH",
"658 484 OFFCURVE",
"590 569 OFFCURVE",
"425 569 CURVE SMOOTH",
"213 569 OFFCURVE",
"199 390 OFFCURVE",
"199 390 CURVE",
"148 555 LINE",
"90 555 LINE",
"90 0 LINE",
"210 0 LINE",
"210 330 LINE",
"210 364 OFFCURVE",
"230 480 OFFCURVE",
"381 480 CURVE",
"481 480 OFFCURVE",
"538 435 OFFCURVE",
"538 342 CURVE",
"538 0 LINE"
);
}
);
userData = {
com.schriftgestaltung.Glyphs.lastChange = "2018-04-05 15:21:53 +0000";
com.typemytype.robofont.mark = (
0.6,
0.609,
1,
1
);
};
width = 748;
},
{
anchors = (
{
name = top;
position = "{421, 633}";
}
);
layerId = "94CDDA45-35D1-47CC-AC03-9E9335022822";
paths = (
{
closed = 1;
nodes = (
"725 0 LINE",
"725 340 LINE",
"725 481 OFFCURVE",
"649 568 OFFCURVE",
"465 568 CURVE",
"245 568 OFFCURVE",
"233 398 OFFCURVE",
"233 398 CURVE",
"186 555 LINE",
"90 555 LINE",
"90 0 LINE",
"255 0 LINE",
"255 336 LINE",
"255 336 OFFCURVE",
"289 458 OFFCURVE",
"420 458 CURVE",
"509 458 OFFCURVE",
"560 422 OFFCURVE",
"560 348 CURVE",
"560 0 LINE"
);
}
);
userData = {
com.schriftgestaltung.Glyphs.lastChange = "2018-04-05 15:27:41 +0000";
};
width = 815;
}
);
leftKerningGroup = n;
rightKerningGroup = n;
unicode = 006E;
},
{
glyphname = nacute;
lastChange = "2021-03-04 10:47:14 +0000";
layers = (
{
layerId = "C6CCADDD-D708-401D-8889-C4B70B102AC4";
paths = (
{
closed = 1;
nodes = (
"454 821 LINE",
"338 633 LINE",
"405 633 LINE",
"604 821 LINE"
);
},
{
closed = 1;
nodes = (
"658 0 LINE",
"658 344 LINE SMOOTH",
"658 484 OFFCURVE",
"590 569 OFFCURVE",
"425 569 CURVE SMOOTH",
"213 569 OFFCURVE",
"199 390 OFFCURVE",
"199 390 CURVE",
"148 555 LINE",
"90 555 LINE",
"90 0 LINE",
"210 0 LINE",
"210 330 LINE SMOOTH",
"210 364 OFFCURVE",
"230 480 OFFCURVE",
"381 480 CURVE SMOOTH",
"481 480 OFFCURVE",
"538 435 OFFCURVE",
"538 342 CURVE SMOOTH",
"538 0 LINE"
);
}
);
userData = {
com.schriftgestaltung.Glyphs.lastChange = "2018-04-05 15:26:49 +0000";
};
width = 748;
},
{
layerId = "94CDDA45-35D1-47CC-AC03-9E9335022822";
paths = (
{
closed = 1;
nodes = (
"500 777 LINE",
"364 633 LINE",
"481 633 LINE",
"710 777 LINE"
);
},
{
closed = 1;
nodes = (
"725 0 LINE",
"725 340 LINE SMOOTH",
"725 481 OFFCURVE",
"649 568 OFFCURVE",
"465 568 CURVE SMOOTH",
"245 568 OFFCURVE",
"233 398 OFFCURVE",
"233 398 CURVE",
"186 555 LINE",
"90 555 LINE",
"90 0 LINE",
"255 0 LINE",
"255 336 LINE",
"255 336 OFFCURVE",
"289 458 OFFCURVE",
"420 458 CURVE SMOOTH",
"509 458 OFFCURVE",
"560 422 OFFCURVE",
"560 348 CURVE SMOOTH",
"560 0 LINE"
);
}
);
userData = {
com.schriftgestaltung.Glyphs.lastChange = "2018-04-05 15:32:56 +0000";
};
width = 815;
}
);
leftMetricsKey = n;
rightMetricsKey = n;
unicode = 0144;
},
{
glyphname = ntilde;
lastChange = "2021-03-04 10:47:14 +0000";
layers = (
{
components = (
{
name = n;
},
{
name = tilde;
transform = "{1, 0, 0, 1, -228, 0}";
}
);
layerId = "C6CCADDD-D708-401D-8889-C4B70B102AC4";
userData = {
com.typemytype.robofont.mark = (
0.6,
0.609,
1,
1
);
};
width = 748;
},
{
layerId = "94CDDA45-35D1-47CC-AC03-9E9335022822";
paths = (
{
closed = 1;
nodes = (
"445 760 OFFCURVE",
"420 826 OFFCURVE",
"335 826 CURVE",
"242 826 OFFCURVE",
"219 718 OFFCURVE",
"219 718 CURVE",
"259 662 LINE",
"259 662 OFFCURVE",
"273 728 OFFCURVE",
"331 728 CURVE",
"401 728 OFFCURVE",
"422 662 OFFCURVE",
"509 662 CURVE SMOOTH",
"602 662 OFFCURVE",
"625 770 OFFCURVE",
"625 770 CURVE",
"585 826 LINE",
"585 826 OFFCURVE",
"572 760 OFFCURVE",
"512 760 CURVE"
);
},
{
closed = 1;
nodes = (
"725 0 LINE",
"725 340 LINE",
"725 481 OFFCURVE",
"649 568 OFFCURVE",
"465 568 CURVE",
"245 568 OFFCURVE",
"233 398 OFFCURVE",
"233 398 CURVE",
"186 555 LINE",
"90 555 LINE",
"90 0 LINE",
"255 0 LINE",
"255 336 LINE",
"255 336 OFFCURVE",
"289 458 OFFCURVE",
"420 458 CURVE",
"509 458 OFFCURVE",
"560 422 OFFCURVE",
"560 348 CURVE",
"560 0 LINE"
);
}
);
userData = {
com.schriftgestaltung.Glyphs.lastChange = "2018-04-05 15:27:41 +0000";
};
width = 815;
}
);
leftKerningGroup = n;
rightKerningGroup = n;
unicode = 00F1;
},
{
glyphname = o;
lastChange = "2021-03-04 10:47:14 +0000";
layers = (
{
anchors = (
{
name = top;
position = "{375, 613}";
}
);
layerId = "C6CCADDD-D708-401D-8889-C4B70B102AC4";
paths = (
{
closed = 1;
nodes = (
"60 114 OFFCURVE",
"177 -14 OFFCURVE",
"375 -14 CURVE SMOOTH",
"573 -14 OFFCURVE",
"690 114 OFFCURVE",
"690 278 CURVE SMOOTH",
"690 441 OFFCURVE",
"573 569 OFFCURVE",
"375 569 CURVE SMOOTH",
"177 569 OFFCURVE",
"60 441 OFFCURVE",
"60 278 CURVE"
);
},
{
closed = 1;
nodes = (
"188 398 OFFCURVE",
"259 480 OFFCURVE",
"375 480 CURVE SMOOTH",
"489 480 OFFCURVE",
"562 398 OFFCURVE",
"562 278 CURVE SMOOTH",
"562 158 OFFCURVE",
"489 75 OFFCURVE",
"375 75 CURVE SMOOTH",
"259 75 OFFCURVE",
"188 158 OFFCURVE",
"188 278 CURVE"
);
}
);
userData = {
com.schriftgestaltung.Glyphs.lastChange = "2018-04-05 15:21:53 +0000";
com.typemytype.robofont.mark = (
0.6,
0.609,
1,
1
);
};
width = 750;
},
{
anchors = (
{
name = top;
position = "{381, 633}";
}
);
layerId = "94CDDA45-35D1-47CC-AC03-9E9335022822";
paths = (
{
closed = 1;
nodes = (
"60 115 OFFCURVE",
"188 -13 OFFCURVE",
"403 -13 CURVE SMOOTH",
"620 -13 OFFCURVE",
"748 115 OFFCURVE",
"748 278 CURVE SMOOTH",
"748 440 OFFCURVE",
"620 568 OFFCURVE",
"403 568 CURVE SMOOTH",
"188 568 OFFCURVE",
"60 440 OFFCURVE",
"60 278 CURVE SMOOTH"
);
},
{
closed = 1;
nodes = (
"233 369 OFFCURVE",
"274 458 OFFCURVE",
"403 458 CURVE SMOOTH",
"531 458 OFFCURVE",
"575 369 OFFCURVE",
"575 278 CURVE SMOOTH",
"575 187 OFFCURVE",
"531 97 OFFCURVE",
"403 97 CURVE SMOOTH",
"274 97 OFFCURVE",
"233 187 OFFCURVE",
"233 278 CURVE SMOOTH"
);
}
);
userData = {
com.schriftgestaltung.Glyphs.lastChange = "2018-04-05 15:27:41 +0000";
};
width = 808;
}
);
leftKerningGroup = o;
rightKerningGroup = o;
unicode = 006F;
},
{
glyphname = oacute;
lastChange = "2021-03-04 10:47:14 +0000";
layers = (
{
components = (
{
name = o;
},
{
name = acute;
transform = "{1, 0, 0, 1, -226, 0}";
}
);
layerId = "C6CCADDD-D708-401D-8889-C4B70B102AC4";
userData = {
com.typemytype.robofont.mark = (
0.6,
0.609,
1,
1
);
};
width = 750;
},
{
layerId = "94CDDA45-35D1-47CC-AC03-9E9335022822";
paths = (
{
closed = 1;
nodes = (
"334 648 LINE",
"451 648 LINE",
"680 792 LINE",
"470 792 LINE"
);
},
{
closed = 1;
nodes = (
"60 115 OFFCURVE",
"188 -13 OFFCURVE",
"403 -13 CURVE SMOOTH",
"620 -13 OFFCURVE",
"748 115 OFFCURVE",
"748 278 CURVE SMOOTH",
"748 440 OFFCURVE",
"620 568 OFFCURVE",
"403 568 CURVE SMOOTH",
"188 568 OFFCURVE",
"60 440 OFFCURVE",
"60 278 CURVE SMOOTH"
);
},
{
closed = 1;
nodes = (
"233 369 OFFCURVE",
"274 458 OFFCURVE",
"403 458 CURVE SMOOTH",
"531 458 OFFCURVE",
"575 369 OFFCURVE",
"575 278 CURVE SMOOTH",
"575 187 OFFCURVE",
"531 97 OFFCURVE",
"403 97 CURVE SMOOTH",
"274 97 OFFCURVE",
"233 187 OFFCURVE",
"233 278 CURVE SMOOTH"
);
}
);
userData = {
com.schriftgestaltung.Glyphs.lastChange = "2018-04-05 15:27:41 +0000";
};
width = 808;
}
);
leftKerningGroup = o;
rightKerningGroup = o;
unicode = 00F3;
},
{
glyphname = ocircumflex;
lastChange = "2021-03-04 10:47:14 +0000";
layers = (
{
components = (
{
name = o;
},
{
name = circumflex;
transform = "{1, 0, 0, 1, -226, 0}";
}
);
layerId = "C6CCADDD-D708-401D-8889-C4B70B102AC4";
userData = {
com.typemytype.robofont.mark = (
0.6,
0.609,
1,
1
);
};
width = 750;
},
{
layerId = "94CDDA45-35D1-47CC-AC03-9E9335022822";
paths = (
{
closed = 1;
nodes = (
"140 648 LINE",
"237 648 LINE",
"401 710 LINE",
"565 648 LINE",
"662 648 LINE",
"476 792 LINE",
"326 792 LINE"
);
},
{
closed = 1;
nodes = (
"60 115 OFFCURVE",
"188 -13 OFFCURVE",
"403 -13 CURVE SMOOTH",
"620 -13 OFFCURVE",
"748 115 OFFCURVE",
"748 278 CURVE SMOOTH",
"748 440 OFFCURVE",
"620 568 OFFCURVE",
"403 568 CURVE SMOOTH",
"188 568 OFFCURVE",
"60 440 OFFCURVE",
"60 278 CURVE SMOOTH"
);
},
{
closed = 1;
nodes = (
"233 369 OFFCURVE",
"274 458 OFFCURVE",
"403 458 CURVE SMOOTH",
"531 458 OFFCURVE",
"575 369 OFFCURVE",
"575 278 CURVE SMOOTH",
"575 187 OFFCURVE",
"531 97 OFFCURVE",
"403 97 CURVE SMOOTH",
"274 97 OFFCURVE",
"233 187 OFFCURVE",
"233 278 CURVE SMOOTH"
);
}
);
userData = {
com.schriftgestaltung.Glyphs.lastChange = "2018-04-05 15:27:41 +0000";
};
width = 808;
}
);
leftKerningGroup = o;
rightKerningGroup = o;
unicode = 00F4;
},
{
glyphname = odieresis;
lastChange = "2021-03-04 10:47:14 +0000";
layers = (
{
components = (
{
name = o;
},
{
name = dieresis;
transform = "{1, 0, 0, 1, 196, 0}";
}
);
layerId = "C6CCADDD-D708-401D-8889-C4B70B102AC4";
userData = {
com.typemytype.robofont.mark = (
0.6,
0.609,
1,
1
);
};
width = 750;
},
{
layerId = "94CDDA45-35D1-47CC-AC03-9E9335022822";
paths = (
{
closed = 1;
nodes = (
"349 627 LINE",
"349 777 LINE",
"211 777 LINE",
"211 627 LINE"
);
},
{
closed = 1;
nodes = (
"589 627 LINE",
"589 777 LINE",
"451 777 LINE",
"451 627 LINE"
);
},
{
closed = 1;
nodes = (
"60 115 OFFCURVE",
"188 -13 OFFCURVE",
"403 -13 CURVE SMOOTH",
"620 -13 OFFCURVE",
"748 115 OFFCURVE",
"748 278 CURVE SMOOTH",
"748 440 OFFCURVE",
"620 568 OFFCURVE",
"403 568 CURVE SMOOTH",
"188 568 OFFCURVE",
"60 440 OFFCURVE",
"60 278 CURVE SMOOTH"
);
},
{
closed = 1;
nodes = (
"233 369 OFFCURVE",
"274 458 OFFCURVE",
"403 458 CURVE SMOOTH",
"531 458 OFFCURVE",
"575 369 OFFCURVE",
"575 278 CURVE SMOOTH",
"575 187 OFFCURVE",
"531 97 OFFCURVE",
"403 97 CURVE SMOOTH",
"274 97 OFFCURVE",
"233 187 OFFCURVE",
"233 278 CURVE SMOOTH"
);
}
);
userData = {
com.schriftgestaltung.Glyphs.lastChange = "2018-04-05 15:27:41 +0000";
};
width = 808;
}
);
leftKerningGroup = o;
rightKerningGroup = o;
unicode = 00F6;
},
{
glyphname = ograve;
lastChange = "2021-03-04 10:47:14 +0000";
layers = (
{
components = (
{
name = o;
},
{
name = grave;
transform = "{1, 0, 0, 1, -226, 0}";
}
);
layerId = "C6CCADDD-D708-401D-8889-C4B70B102AC4";
userData = {
com.typemytype.robofont.mark = (
0.6,
0.609,
1,
1
);
};
width = 750;
},
{
layerId = "94CDDA45-35D1-47CC-AC03-9E9335022822";
paths = (
{
closed = 1;
nodes = (
"353 648 LINE",
"470 648 LINE",
"334 791 LINE",
"124 791 LINE"
);
},
{
closed = 1;
nodes = (
"60 115 OFFCURVE",
"188 -13 OFFCURVE",
"403 -13 CURVE SMOOTH",
"620 -13 OFFCURVE",
"748 115 OFFCURVE",
"748 278 CURVE SMOOTH",
"748 440 OFFCURVE",
"620 568 OFFCURVE",
"403 568 CURVE SMOOTH",
"188 568 OFFCURVE",
"60 440 OFFCURVE",
"60 278 CURVE SMOOTH"
);
},
{
closed = 1;
nodes = (
"233 369 OFFCURVE",
"274 458 OFFCURVE",
"403 458 CURVE SMOOTH",
"531 458 OFFCURVE",
"575 369 OFFCURVE",
"575 278 CURVE SMOOTH",
"575 187 OFFCURVE",
"531 97 OFFCURVE",
"403 97 CURVE SMOOTH",
"274 97 OFFCURVE",
"233 187 OFFCURVE",
"233 278 CURVE SMOOTH"
);
}
);
userData = {
com.schriftgestaltung.Glyphs.lastChange = "2018-04-05 15:27:41 +0000";
};
width = 808;
}
);
leftKerningGroup = o;
rightKerningGroup = o;
unicode = 00F2;
},
{
glyphname = oslash;
lastChange = "2021-03-04 10:47:14 +0000";
layers = (
{
components = (
{
name = o;
},
{
name = slash;
transform = "{1, 0, 0, 1, 253, -32}";
}
);
layerId = "C6CCADDD-D708-401D-8889-C4B70B102AC4";
userData = {
com.typemytype.robofont.mark = (
0.6,
0.609,
1,
1
);
};
width = 750;
},
{
hints = (
{
horizontal = 1;
place = "{-112, 21}";
target = up;
type = BottomGhost;
},
{
horizontal = 1;
place = "{709, -20}";
type = Stem;
}
);
layerId = "94CDDA45-35D1-47CC-AC03-9E9335022822";
paths = (
{
closed = 1;
nodes = (
"470 563 LINE",
"449 566 OFFCURVE",
"426 568 OFFCURVE",
"403 568 CURVE SMOOTH",
"188 568 OFFCURVE",
"60 440 OFFCURVE",
"60 278 CURVE SMOOTH",
"60 147 OFFCURVE",
"142 39 OFFCURVE",
"285 1 CURVE",
"242 -128 LINE",
"291 -143 LINE",
"335 -8 LINE",
"357 -11 OFFCURVE",
"379 -13 OFFCURVE",
"403 -13 CURVE SMOOTH",
"620 -13 OFFCURVE",
"748 115 OFFCURVE",
"748 278 CURVE SMOOTH",
"748 407 OFFCURVE",
"666 515 OFFCURVE",
"523 553 CURVE",
"565 680 LINE",
"514 696 LINE {name = hr00;}"
);
},
{
closed = 1;
nodes = (
"233 369 OFFCURVE",
"274 458 OFFCURVE",
"403 458 CURVE SMOOTH",
"414 458 OFFCURVE",
"425 457 OFFCURVE",
"435 456 CURVE",
"321 112 LINE",
"256 142 OFFCURVE",
"233 210 OFFCURVE",
"233 278 CURVE SMOOTH"
);
},
{
closed = 1;
nodes = (
"575 187 OFFCURVE",
"531 97 OFFCURVE",
"403 97 CURVE SMOOTH",
"392 97 OFFCURVE",
"381 97 OFFCURVE",
"371 99 CURVE",
"485 441 LINE",
"550 412 OFFCURVE",
"575 345 OFFCURVE",
"575 278 CURVE SMOOTH"
);
}
);
userData = {
com.schriftgestaltung.Glyphs.lastChange = "2018-04-05 15:27:41 +0000";
};
width = 808;
}
);
leftKerningGroup = o;
rightKerningGroup = o;
unicode = 00F8;
},
{
glyphname = oe;
lastChange = "2021-03-04 10:47:14 +0000";
layers = (
{
layerId = "C6CCADDD-D708-401D-8889-C4B70B102AC4";
paths = (
{
closed = 1;
nodes = (
"60 114 OFFCURVE",
"167 -14 OFFCURVE",
"365 -14 CURVE SMOOTH",
"473 -14 OFFCURVE",
"557 29 OFFCURVE",
"606 96 CURVE",
"659 26 OFFCURVE",
"746 -14 OFFCURVE",
"840 -14 CURVE SMOOTH",
"1104 -14 OFFCURVE",
"1129 185 OFFCURVE",
"1129 185 CURVE",
"1005 221 LINE",
"1005 221 OFFCURVE",
"1015 75 OFFCURVE",
"855 75 CURVE SMOOTH",
"745 75 OFFCURVE",
"673 144 OFFCURVE",
"670 268 CURVE SMOOTH",
"670 283 LINE",
"1114 273 LINE",
"1114 273 OFFCURVE",
"1152 569 OFFCURVE",
"840 569 CURVE SMOOTH",
"733 569 OFFCURVE",
"652 525 OFFCURVE",
"604 461 CURVE",
"555 525 OFFCURVE",
"472 569 OFFCURVE",
"365 569 CURVE SMOOTH",
"167 569 OFFCURVE",
"60 441 OFFCURVE",
"60 278 CURVE SMOOTH"
);
},
{
closed = 1;
nodes = (
"188 398 OFFCURVE",
"249 480 OFFCURVE",
"365 480 CURVE SMOOTH",
"476 480 OFFCURVE",
"539 402 OFFCURVE",
"542 287 CURVE SMOOTH",
"542 278 LINE SMOOTH",
"542 158 OFFCURVE",
"479 75 OFFCURVE",
"365 75 CURVE SMOOTH",
"249 75 OFFCURVE",
"188 158 OFFCURVE",
"188 278 CURVE SMOOTH"
);
},
{
closed = 1;
nodes = (
"990 480 OFFCURVE",
"987 338 OFFCURVE",
"987 338 CURVE",
"673 324 LINE",
"685 417 OFFCURVE",
"736 480 OFFCURVE",
"833 480 CURVE SMOOTH"
);
}
);
userData = {
com.schriftgestaltung.Glyphs.lastChange = "2018-04-05 15:21:53 +0000";
com.typemytype.robofont.mark = (
0.6,
0.609,
1,
1
);
};
width = 1189;
},
{
layerId = "94CDDA45-35D1-47CC-AC03-9E9335022822";
paths = (
{
closed = 1;
nodes = (
"60 115 OFFCURVE",
"188 -13 OFFCURVE",
"403 -13 CURVE SMOOTH",
"521 -13 OFFCURVE",
"608 25 OFFCURVE",
"661 86 CURVE",
"719 21 OFFCURVE",
"808 -13 OFFCURVE",
"912 -13 CURVE SMOOTH",
"1200 -13 OFFCURVE",
"1242 184 OFFCURVE",
"1242 184 CURVE",
"1082 225 LINE",
"1082 225 OFFCURVE",
"1081 97 OFFCURVE",
"929 97 CURVE SMOOTH",
"794 97 OFFCURVE",
"742 182 OFFCURVE",
"741 268 CURVE",
"1227 258 LINE",
"1242 337 OFFCURVE",
"1225 568 OFFCURVE",
"912 568 CURVE SMOOTH",
"798 568 OFFCURVE",
"714 530 OFFCURVE",
"661 469 CURVE",
"607 530 OFFCURVE",
"521 568 OFFCURVE",
"403 568 CURVE SMOOTH",
"188 568 OFFCURVE",
"60 440 OFFCURVE",
"60 278 CURVE SMOOTH"
);
},
{
closed = 1;
nodes = (
"751 346 OFFCURVE",
"771 463 OFFCURVE",
"909 463 CURVE SMOOTH",
"1042 463 OFFCURVE",
"1056 356 OFFCURVE",
"1056 356 CURVE",
"751 346 LINE"
);
},
{
closed = 1;
nodes = (
"233 369 OFFCURVE",
"274 458 OFFCURVE",
"403 458 CURVE SMOOTH",
"531 458 OFFCURVE",
"575 369 OFFCURVE",
"575 278 CURVE SMOOTH",
"575 187 OFFCURVE",
"531 97 OFFCURVE",
"403 97 CURVE SMOOTH",
"274 97 OFFCURVE",
"233 187 OFFCURVE",
"233 278 CURVE SMOOTH"
);
}
);
userData = {
com.schriftgestaltung.Glyphs.lastChange = "2018-04-05 15:27:41 +0000";
};
width = 1302;
}
);
leftKerningGroup = o;
rightKerningGroup = o;
unicode = 0153;
},
{
glyphname = p;
lastChange = "2021-03-04 10:47:14 +0000";
layers = (
{
layerId = "C6CCADDD-D708-401D-8889-C4B70B102AC4";
paths = (
{
closed = 1;
nodes = (
"90 -223 LINE",
"210 -223 LINE",
"210 104 LINE",
"210 104 OFFCURVE",
"256 -14 OFFCURVE",
"409 -14 CURVE SMOOTH",
"575 -14 OFFCURVE",
"687 108 OFFCURVE",
"687 278 CURVE SMOOTH",
"687 448 OFFCURVE",
"575 569 OFFCURVE",
"409 569 CURVE SMOOTH",
"233 569 OFFCURVE",
"196 423 OFFCURVE",
"196 423 CURVE",
"158 555 LINE",
"90 555 LINE"
);
},
{
closed = 1;
nodes = (
"489 480 OFFCURVE",
"559 398 OFFCURVE",
"559 278 CURVE SMOOTH",
"559 158 OFFCURVE",
"489 75 OFFCURVE",
"371 75 CURVE SMOOTH",
"251 75 OFFCURVE",
"185 168 OFFCURVE",
"185 278 CURVE SMOOTH",
"185 388 OFFCURVE",
"251 480 OFFCURVE",
"371 480 CURVE SMOOTH"
);
}
);
userData = {
com.schriftgestaltung.Glyphs.lastChange = "2018-04-05 15:21:53 +0000";
com.typemytype.robofont.mark = (
0.6,
0.609,
1,
1
);
};
width = 747;
},
{
layerId = "94CDDA45-35D1-47CC-AC03-9E9335022822";
paths = (
{
closed = 1;
nodes = (
"255 89 OFFCURVE",
"298 -13 OFFCURVE",
"453 -13 CURVE SMOOTH",
"621 -13 OFFCURVE",
"745 108 OFFCURVE",
"745 278 CURVE SMOOTH",
"745 448 OFFCURVE",
"621 568 OFFCURVE",
"452 568 CURVE SMOOTH",
"273 568 OFFCURVE",
"224 428 OFFCURVE",
"224 428 CURVE",
"186 555 LINE",
"90 555 LINE",
"90 -223 LINE",
"255 -223 LINE",
"255 89 LINE"
);
},
{
closed = 1;
nodes = (
"518 458 OFFCURVE",
"572 379 OFFCURVE",
"572 278 CURVE SMOOTH",
"572 177 OFFCURVE",
"518 97 OFFCURVE",
"399 97 CURVE SMOOTH",
"278 97 OFFCURVE",
"229 186 OFFCURVE",
"229 278 CURVE SMOOTH",
"229 370 OFFCURVE",
"278 458 OFFCURVE",
"399 458 CURVE SMOOTH"
);
}
);
userData = {
com.schriftgestaltung.Glyphs.lastChange = "2018-04-05 15:27:41 +0000";
};
width = 805;
}
);
leftKerningGroup = n;
rightKerningGroup = n;
unicode = 0070;
},
{
glyphname = q;
lastChange = "2021-03-04 10:47:14 +0000";
layers = (
{
layerId = "C6CCADDD-D708-401D-8889-C4B70B102AC4";
paths = (
{
closed = 1;
nodes = (
"551 423 LINE",
"551 423 OFFCURVE",
"514 569 OFFCURVE",
"338 569 CURVE",
"172 569 OFFCURVE",
"60 448 OFFCURVE",
"60 278 CURVE SMOOTH",
"60 108 OFFCURVE",
"172 -14 OFFCURVE",
"338 -14 CURVE SMOOTH",
"488 -14 OFFCURVE",
"537 103 OFFCURVE",
"537 103 CURVE",
"537 -223 LINE",
"657 -223 LINE",
"657 555 LINE",
"589 555 LINE"
);
},
{
closed = 1;
nodes = (
"496 480 OFFCURVE",
"562 388 OFFCURVE",
"562 278 CURVE SMOOTH",
"562 168 OFFCURVE",
"496 75 OFFCURVE",
"376 75 CURVE SMOOTH",
"258 75 OFFCURVE",
"188 158 OFFCURVE",
"188 278 CURVE SMOOTH",
"188 398 OFFCURVE",
"258 480 OFFCURVE",
"376 480 CURVE SMOOTH"
);
}
);
userData = {
com.schriftgestaltung.Glyphs.lastChange = "2018-04-05 15:21:53 +0000";
com.typemytype.robofont.mark = (
0.6,
0.609,
1,
1
);
};
width = 747;
},
{
layerId = "94CDDA45-35D1-47CC-AC03-9E9335022822";
paths = (
{
closed = 1;
nodes = (
"715 -223 LINE",
"715 555 LINE",
"619 555 LINE",
"580 428 LINE",
"580 428 OFFCURVE",
"532 568 OFFCURVE",
"353 568 CURVE SMOOTH",
"183 568 OFFCURVE",
"60 448 OFFCURVE",
"60 278 CURVE SMOOTH",
"60 108 OFFCURVE",
"183 -13 OFFCURVE",
"352 -13 CURVE SMOOTH",
"507 -13 OFFCURVE",
"549 88 OFFCURVE",
"549 88 CURVE",
"549 -223 LINE"
);
},
{
closed = 1;
nodes = (
"526 458 OFFCURVE",
"576 370 OFFCURVE",
"576 278 CURVE SMOOTH",
"576 186 OFFCURVE",
"526 97 OFFCURVE",
"405 97 CURVE SMOOTH",
"287 97 OFFCURVE",
"233 177 OFFCURVE",
"233 278 CURVE SMOOTH",
"233 379 OFFCURVE",
"287 458 OFFCURVE",
"405 458 CURVE SMOOTH"
);
}
);
userData = {
com.schriftgestaltung.Glyphs.lastChange = "2018-04-05 15:27:41 +0000";
};
width = 805;
}
);
leftKerningGroup = n;
rightKerningGroup = n;
unicode = 0071;
},
{
glyphname = r;
lastChange = "2021-03-04 10:47:14 +0000";
layers = (
{
layerId = "C6CCADDD-D708-401D-8889-C4B70B102AC4";
paths = (
{
closed = 1;
nodes = (
"210 361 OFFCURVE",
"243 480 OFFCURVE",
"320 480 CURVE",
"353 480 OFFCURVE",
"369 455 OFFCURVE",
"369 407 CURVE SMOOTH",
"369 343 OFFCURVE",
"348 279 OFFCURVE",
"348 279 CURVE",
"472 315 LINE",
"472 315 OFFCURVE",
"492 362 OFFCURVE",
"492 433 CURVE SMOOTH",
"492 506 OFFCURVE",
"463 569 OFFCURVE",
"371 569 CURVE",
"218 569 OFFCURVE",
"199 390 OFFCURVE",
"199 390 CURVE",
"148 555 LINE",
"90 555 LINE",
"90 0 LINE",
"210 0 LINE",
"210 329 LINE SMOOTH"
);
}
);
userData = {
com.schriftgestaltung.Glyphs.lastChange = "2018-04-05 15:21:53 +0000";
com.typemytype.robofont.mark = (
0.6,
0.609,
1,
1
);
};
width = 512;
},
{
layerId = "94CDDA45-35D1-47CC-AC03-9E9335022822";
paths = (
{
closed = 1;
nodes = (
"255 337 OFFCURVE",
"271 458 OFFCURVE",
"341 458 CURVE",
"360 458 OFFCURVE",
"385 449 OFFCURVE",
"385 408 CURVE SMOOTH",
"385 332 OFFCURVE",
"368 276 OFFCURVE",
"368 276 CURVE",
"528 317 LINE",
"528 317 OFFCURVE",
"541 354 OFFCURVE",
"541 423 CURVE SMOOTH",
"541 501 OFFCURVE",
"507 568 OFFCURVE",
"392 568 CURVE",
"231 568 OFFCURVE",
"233 398 OFFCURVE",
"233 398 CURVE",
"186 555 LINE",
"90 555 LINE",
"90 0 LINE",
"255 0 LINE",
"255 337 LINE"
);
}
);
userData = {
com.schriftgestaltung.Glyphs.lastChange = "2018-04-05 15:27:41 +0000";
};
width = 571;
}
);
leftKerningGroup = n;
rightKerningGroup = n;
unicode = 0072;
},
{
glyphname = s;
lastChange = "2021-03-04 10:47:14 +0000";
layers = (
{
layerId = "C6CCADDD-D708-401D-8889-C4B70B102AC4";
paths = (
{
closed = 1;
nodes = (
"576 402 LINE",
"576 402 OFFCURVE",
"560 569 OFFCURVE",
"306 569 CURVE SMOOTH",
"175 569 OFFCURVE",
"71 508 OFFCURVE",
"71 403 CURVE",
"71 336 OFFCURVE",
"117 275 OFFCURVE",
"241 253 CURVE SMOOTH",
"363 231 LINE SMOOTH",
"451 215 OFFCURVE",
"479 187 OFFCURVE",
"479 150 CURVE SMOOTH",
"479 108 OFFCURVE",
"436 75 OFFCURVE",
"361 75 CURVE",
"146 75 OFFCURVE",
"164 221 OFFCURVE",
"164 221 CURVE",
"40 185 LINE",
"40 185 OFFCURVE",
"69 -14 OFFCURVE",
"360 -14 CURVE",
"497 -14 OFFCURVE",
"607 53 OFFCURVE",
"607 160 CURVE",
"607 233 OFFCURVE",
"561 292 OFFCURVE",
"437 314 CURVE SMOOTH",
"301 338 LINE SMOOTH",
"225 351 OFFCURVE",
"189 377 OFFCURVE",
"189 409 CURVE SMOOTH",
"189 449 OFFCURVE",
"223 480 OFFCURVE",
"304 480 CURVE",
"464 480 OFFCURVE",
"452 366 OFFCURVE",
"452 366 CURVE"
);
}
);
userData = {
com.schriftgestaltung.Glyphs.lastChange = "2018-04-05 15:21:53 +0000";
com.typemytype.robofont.mark = (
0.6,
0.609,
1,
1
);
};
width = 647;
},
{
layerId = "94CDDA45-35D1-47CC-AC03-9E9335022822";
paths = (
{
closed = 1;
nodes = (
"40 181 LINE",
"40 181 OFFCURVE",
"53 -13 OFFCURVE",
"372 -13 CURVE SMOOTH",
"532 -13 OFFCURVE",
"660 47 OFFCURVE",
"660 160 CURVE SMOOTH",
"660 242 OFFCURVE",
"607 306 OFFCURVE",
"467 329 CURVE SMOOTH",
"327 352 LINE SMOOTH",
"262 363 OFFCURVE",
"221 372 OFFCURVE",
"221 405 CURVE SMOOTH",
"221 433 OFFCURVE",
"253 463 OFFCURVE",
"323 463 CURVE SMOOTH",
"465 463 OFFCURVE",
"470 365 OFFCURVE",
"470 365 CURVE",
"630 406 LINE",
"630 406 OFFCURVE",
"607 568 OFFCURVE",
"330 568 CURVE SMOOTH",
"184 568 OFFCURVE",
"68 505 OFFCURVE",
"68 395 CURVE SMOOTH",
"68 294 OFFCURVE",
"167 260 OFFCURVE",
"255 244 CURVE SMOOTH",
"385 220 LINE SMOOTH",
"463 206 OFFCURVE",
"497 189 OFFCURVE",
"497 155 CURVE SMOOTH",
"497 116 OFFCURVE",
"440 97 OFFCURVE",
"374 97 CURVE",
"199 97 OFFCURVE",
"200 222 OFFCURVE",
"200 222 CURVE"
);
}
);
userData = {
com.schriftgestaltung.Glyphs.lastChange = "2018-04-05 15:27:41 +0000";
};
width = 700;
}
);
leftKerningGroup = n;
rightKerningGroup = n;
unicode = 0073;
},
{
glyphname = sacute;
lastChange = "2021-03-04 10:47:14 +0000";
layers = (
{
layerId = "C6CCADDD-D708-401D-8889-C4B70B102AC4";
paths = (
{
closed = 1;
nodes = (
"377 821 LINE",
"261 633 LINE",
"328 633 LINE",
"527 821 LINE"
);
},
{
closed = 1;
nodes = (
"576 402 OFFCURVE",
"560 569 OFFCURVE",
"306 569 CURVE SMOOTH",
"175 569 OFFCURVE",
"71 508 OFFCURVE",
"71 403 CURVE SMOOTH",
"71 336 OFFCURVE",
"117 275 OFFCURVE",
"241 253 CURVE SMOOTH",
"363 231 LINE SMOOTH",
"451 215 OFFCURVE",
"479 187 OFFCURVE",
"479 150 CURVE SMOOTH",
"479 108 OFFCURVE",
"436 75 OFFCURVE",
"361 75 CURVE SMOOTH",
"146 75 OFFCURVE",
"164 221 OFFCURVE",
"164 221 CURVE",
"40 185 LINE",
"40 185 OFFCURVE",
"69 -14 OFFCURVE",
"360 -14 CURVE SMOOTH",
"497 -14 OFFCURVE",
"607 53 OFFCURVE",
"607 160 CURVE SMOOTH",
"607 233 OFFCURVE",
"561 292 OFFCURVE",
"437 314 CURVE SMOOTH",
"301 338 LINE SMOOTH",
"225 351 OFFCURVE",
"189 377 OFFCURVE",
"189 409 CURVE SMOOTH",
"189 449 OFFCURVE",
"223 480 OFFCURVE",
"304 480 CURVE SMOOTH",
"464 480 OFFCURVE",
"452 366 OFFCURVE",
"452 366 CURVE",
"576 402 LINE"
);
}
);
userData = {
com.schriftgestaltung.Glyphs.lastChange = "2018-04-05 15:26:51 +0000";
};
width = 647;
},
{
layerId = "94CDDA45-35D1-47CC-AC03-9E9335022822";
paths = (
{
closed = 1;
nodes = (
"410 777 LINE",
"274 633 LINE",
"391 633 LINE",
"620 777 LINE"
);
},
{
closed = 1;
nodes = (
"40 181 OFFCURVE",
"53 -13 OFFCURVE",
"372 -13 CURVE SMOOTH",
"532 -13 OFFCURVE",
"660 47 OFFCURVE",
"660 160 CURVE SMOOTH",
"660 242 OFFCURVE",
"607 306 OFFCURVE",
"467 329 CURVE SMOOTH",
"327 352 LINE SMOOTH",
"262 363 OFFCURVE",
"221 372 OFFCURVE",
"221 405 CURVE SMOOTH",
"221 433 OFFCURVE",
"253 463 OFFCURVE",
"323 463 CURVE SMOOTH",
"465 463 OFFCURVE",
"470 365 OFFCURVE",
"470 365 CURVE",
"630 406 LINE",
"630 406 OFFCURVE",
"607 568 OFFCURVE",
"330 568 CURVE SMOOTH",
"184 568 OFFCURVE",
"68 505 OFFCURVE",
"68 395 CURVE SMOOTH",
"68 294 OFFCURVE",
"167 260 OFFCURVE",
"255 244 CURVE SMOOTH",
"385 220 LINE SMOOTH",
"463 206 OFFCURVE",
"497 189 OFFCURVE",
"497 155 CURVE SMOOTH",
"497 116 OFFCURVE",
"440 97 OFFCURVE",
"374 97 CURVE SMOOTH",
"199 97 OFFCURVE",
"200 222 OFFCURVE",
"200 222 CURVE",
"40 181 LINE"
);
}
);
userData = {
com.schriftgestaltung.Glyphs.lastChange = "2018-04-05 15:32:58 +0000";
};
width = 700;
}
);
leftMetricsKey = s;
rightMetricsKey = s;
unicode = 015B;
},
{
glyphname = germandbls;
lastChange = "2021-03-04 10:47:14 +0000";
layers = (
{
layerId = "C6CCADDD-D708-401D-8889-C4B70B102AC4";
paths = (
{
closed = 1;
nodes = (
"639 373 OFFCURVE",
"411 406 OFFCURVE",
"411 406 CURVE",
"411 406 OFFCURVE",
"619 406 OFFCURVE",
"619 577 CURVE",
"619 677 OFFCURVE",
"552 791 OFFCURVE",
"346 791 CURVE",
"137 791 OFFCURVE",
"90 677 OFFCURVE",
"90 575 CURVE SMOOTH",
"90 0 LINE",
"210 0 LINE",
"210 555 LINE",
"210 636 OFFCURVE",
"247 702 OFFCURVE",
"350 702 CURVE SMOOTH",
"448 702 OFFCURVE",
"492 637 OFFCURVE",
"492 559 CURVE",
"492 479 OFFCURVE",
"404 420 OFFCURVE",
"286 420 CURVE",
"286 345 LINE",
"401 345 OFFCURVE",
"512 305 OFFCURVE",
"512 176 CURVE",
"512 114 OFFCURVE",
"474 75 OFFCURVE",
"415 75 CURVE SMOOTH",
"338 75 OFFCURVE",
"318 155 OFFCURVE",
"318 155 CURVE",
"294 66 LINE",
"294 66 OFFCURVE",
"332 -14 OFFCURVE",
"445 -14 CURVE SMOOTH",
"554 -14 OFFCURVE",
"639 55 OFFCURVE",
"639 170 CURVE SMOOTH"
);
}
);
userData = {
com.schriftgestaltung.Glyphs.lastChange = "2018-04-05 15:21:53 +0000";
com.typemytype.robofont.mark = (
0.6,
0.609,
1,
1
);
};
width = 689;
},
{
layerId = "94CDDA45-35D1-47CC-AC03-9E9335022822";
paths = (
{
closed = 1;
nodes = (
"694 309 OFFCURVE",
"603 365 OFFCURVE",
"500 392 CURVE",
"500 392 OFFCURVE",
"675 432 OFFCURVE",
"675 584 CURVE",
"675 675 OFFCURVE",
"599 791 OFFCURVE",
"373 791 CURVE SMOOTH",
"141 791 OFFCURVE",
"90 675 OFFCURVE",
"90 571 CURVE",
"90 0 LINE",
"253 0 LINE",
"253 552 LINE",
"253 618 OFFCURVE",
"287 680 OFFCURVE",
"377 680 CURVE SMOOTH",
"463 680 OFFCURVE",
"502 619 OFFCURVE",
"502 556 CURVE SMOOTH",
"502 471 OFFCURVE",
"421 429 OFFCURVE",
"300 429 CURVE",
"300 332 LINE",
"419 332 OFFCURVE",
"521 289 OFFCURVE",
"521 183 CURVE SMOOTH",
"521 136 OFFCURVE",
"501 97 OFFCURVE",
"451 97 CURVE",
"374 97 OFFCURVE",
"331 177 OFFCURVE",
"331 177 CURVE",
"299 69 LINE",
"299 69 OFFCURVE",
"345 -13 OFFCURVE",
"489 -13 CURVE SMOOTH",
"597 -13 OFFCURVE",
"694 58 OFFCURVE",
"694 177 CURVE SMOOTH"
);
}
);
userData = {
com.schriftgestaltung.Glyphs.lastChange = "2018-04-05 15:27:41 +0000";
};
width = 754;
}
);
unicode = 00DF;
},
{
glyphname = t;
lastChange = "2021-03-04 10:47:14 +0000";
layers = (
{
layerId = "C6CCADDD-D708-401D-8889-C4B70B102AC4";
paths = (
{
closed = 1;
nodes = (
"144 480 LINE",
"144 188 LINE SMOOTH",
"144 49 OFFCURVE",
"217 -14 OFFCURVE",
"336 -14 CURVE",
"459 -14 OFFCURVE",
"512 66 OFFCURVE",
"512 66 CURVE",
"488 155 LINE",
"488 155 OFFCURVE",
"458 75 OFFCURVE",
"361 75 CURVE",
"297 75 OFFCURVE",
"264 114 OFFCURVE",
"264 201 CURVE SMOOTH",
"264 480 LINE",
"492 480 LINE",
"492 555 LINE",
"264 555 LINE",
"264 761 LINE",
"149 681 LINE",
"149 555 LINE",
"20 555 LINE",
"20 480 LINE"
);
}
);
userData = {
com.schriftgestaltung.Glyphs.lastChange = "2018-04-05 15:21:53 +0000";
com.typemytype.robofont.mark = (
0.6,
0.609,
1,
1
);
};
width = 532;
},
{
layerId = "94CDDA45-35D1-47CC-AC03-9E9335022822";
paths = (
{
closed = 1;
nodes = (
"128 458 LINE",
"128 194 LINE",
"128 51 OFFCURVE",
"210 -13 OFFCURVE",
"344 -13 CURVE SMOOTH",
"487 -13 OFFCURVE",
"553 69 OFFCURVE",
"553 69 CURVE",
"521 177 LINE",
"521 177 OFFCURVE",
"477 97 OFFCURVE",
"389 97 CURVE SMOOTH",
"318 97 OFFCURVE",
"291 138 OFFCURVE",
"291 206 CURVE",
"291 458 LINE",
"546 458 LINE",
"546 555 LINE",
"291 555 LINE",
"291 764 LINE",
"132 664 LINE",
"132 555 LINE",
"0 555 LINE",
"0 458 LINE"
);
}
);
userData = {
com.schriftgestaltung.Glyphs.lastChange = "2018-04-05 15:27:41 +0000";
};
width = 573;
}
);
unicode = 0074;
},
{
glyphname = u;
lastChange = "2021-03-04 10:47:14 +0000";
layers = (
{
anchors = (
{
name = top;
position = "{384, 613}";
}
);
layerId = "C6CCADDD-D708-401D-8889-C4B70B102AC4";
paths = (
{
closed = 1;
nodes = (
"90 555 LINE",
"90 211 LINE SMOOTH",
"90 71 OFFCURVE",
"158 -14 OFFCURVE",
"323 -14 CURVE SMOOTH",
"535 -14 OFFCURVE",
"549 165 OFFCURVE",
"549 165 CURVE",
"600 0 LINE",
"658 0 LINE",
"658 555 LINE",
"538 555 LINE",
"538 225 LINE SMOOTH",
"538 191 OFFCURVE",
"518 75 OFFCURVE",
"367 75 CURVE SMOOTH",
"267 75 OFFCURVE",
"210 120 OFFCURVE",
"210 213 CURVE",
"210 555 LINE"
);
}
);
userData = {
com.schriftgestaltung.Glyphs.lastChange = "2018-04-05 15:21:53 +0000";
com.typemytype.robofont.mark = (
0.6,
0.609,
1,
1
);
};
width = 748;
},
{
anchors = (
{
name = top;
position = "{412, 633}";
}
);
layerId = "94CDDA45-35D1-47CC-AC03-9E9335022822";
paths = (
{
closed = 1;
nodes = (
"90 555 LINE",
"90 215 LINE",
"90 74 OFFCURVE",
"166 -13 OFFCURVE",
"350 -13 CURVE",
"570 -13 OFFCURVE",
"582 157 OFFCURVE",
"582 157 CURVE",
"629 0 LINE",
"725 0 LINE",
"725 555 LINE",
"560 555 LINE",
"560 219 LINE",
"560 219 OFFCURVE",
"526 97 OFFCURVE",
"395 97 CURVE",
"306 97 OFFCURVE",
"254 133 OFFCURVE",
"254 207 CURVE",
"254 555 LINE"
);
}
);
userData = {
com.schriftgestaltung.Glyphs.lastChange = "2018-04-05 15:27:41 +0000";
};
width = 815;
}
);
leftKerningGroup = n;
rightKerningGroup = n;
unicode = 0075;
},
{
glyphname = uacute;
lastChange = "2021-03-04 10:47:14 +0000";
layers = (
{
components = (
{
name = u;
},
{
name = acute;
transform = "{1, 0, 0, 1, -217, 0}";
}
);
layerId = "C6CCADDD-D708-401D-8889-C4B70B102AC4";
userData = {
com.typemytype.robofont.mark = (
0.6,
0.609,
1,
1
);
};
width = 748;
},
{
layerId = "94CDDA45-35D1-47CC-AC03-9E9335022822";
paths = (
{
closed = 1;
nodes = (
"285 648 LINE",
"402 648 LINE",
"631 792 LINE",
"421 792 LINE"
);
},
{
closed = 1;
nodes = (
"90 555 LINE",
"90 215 LINE",
"90 74 OFFCURVE",
"166 -13 OFFCURVE",
"350 -13 CURVE",
"570 -13 OFFCURVE",
"582 157 OFFCURVE",
"582 157 CURVE",
"629 0 LINE",
"725 0 LINE",
"725 555 LINE",
"560 555 LINE",
"560 219 LINE",
"560 219 OFFCURVE",
"526 97 OFFCURVE",
"395 97 CURVE",
"306 97 OFFCURVE",
"254 133 OFFCURVE",
"254 207 CURVE",
"254 555 LINE"
);
}
);
userData = {
com.schriftgestaltung.Glyphs.lastChange = "2018-04-05 15:27:41 +0000";
};
width = 815;
}
);
leftKerningGroup = n;
rightKerningGroup = n;
unicode = 00FA;
},
{
glyphname = ucircumflex;
lastChange = "2021-03-04 10:47:14 +0000";
layers = (
{
components = (
{
name = u;
},
{
name = circumflex;
transform = "{1, 0, 0, 1, -217, 0}";
}
);
layerId = "C6CCADDD-D708-401D-8889-C4B70B102AC4";
userData = {
com.typemytype.robofont.mark = (
0.6,
0.609,
1,
1
);
};
width = 748;
},
{
layerId = "94CDDA45-35D1-47CC-AC03-9E9335022822";
paths = (
{
closed = 1;
nodes = (
"151 648 LINE",
"248 648 LINE",
"412 710 LINE",
"576 648 LINE",
"673 648 LINE",
"487 792 LINE",
"337 792 LINE"
);
},
{
closed = 1;
nodes = (
"90 555 LINE",
"90 215 LINE",
"90 74 OFFCURVE",
"166 -13 OFFCURVE",
"350 -13 CURVE",
"570 -13 OFFCURVE",
"582 157 OFFCURVE",
"582 157 CURVE",
"629 0 LINE",
"725 0 LINE",
"725 555 LINE",
"560 555 LINE",
"560 219 LINE",
"560 219 OFFCURVE",
"526 97 OFFCURVE",
"395 97 CURVE",
"306 97 OFFCURVE",
"254 133 OFFCURVE",
"254 207 CURVE",
"254 555 LINE"
);
}
);
userData = {
com.schriftgestaltung.Glyphs.lastChange = "2018-04-05 15:27:41 +0000";
};
width = 815;
}
);
leftKerningGroup = n;
rightKerningGroup = n;
unicode = 00FB;
},
{
glyphname = udieresis;
lastChange = "2021-03-04 10:47:14 +0000";
layers = (
{
components = (
{
name = u;
},
{
name = dieresis;
transform = "{1, 0, 0, 1, 205, 0}";
}
);
layerId = "C6CCADDD-D708-401D-8889-C4B70B102AC4";
userData = {
com.typemytype.robofont.mark = (
0.6,
0.609,
1,
1
);
};
width = 748;
},
{
layerId = "94CDDA45-35D1-47CC-AC03-9E9335022822";
paths = (
{
closed = 1;
nodes = (
"361 642 LINE",
"361 792 LINE",
"223 792 LINE",
"223 642 LINE"
);
},
{
closed = 1;
nodes = (
"601 642 LINE",
"601 792 LINE",
"463 792 LINE",
"463 642 LINE"
);
},
{
closed = 1;
nodes = (
"90 555 LINE",
"90 215 LINE",
"90 74 OFFCURVE",
"166 -13 OFFCURVE",
"350 -13 CURVE",
"570 -13 OFFCURVE",
"582 157 OFFCURVE",
"582 157 CURVE",
"629 0 LINE",
"725 0 LINE",
"725 555 LINE",
"560 555 LINE",
"560 219 LINE",
"560 219 OFFCURVE",
"526 97 OFFCURVE",
"395 97 CURVE",
"306 97 OFFCURVE",
"254 133 OFFCURVE",
"254 207 CURVE",
"254 555 LINE"
);
}
);
userData = {
com.schriftgestaltung.Glyphs.lastChange = "2018-04-05 15:27:41 +0000";
};
width = 815;
}
);
leftKerningGroup = n;
rightKerningGroup = n;
unicode = 00FC;
},
{
glyphname = ugrave;
lastChange = "2021-03-04 10:47:14 +0000";
layers = (
{
components = (
{
name = u;
},
{
name = grave;
transform = "{1, 0, 0, 1, -217, 0}";
}
);
layerId = "C6CCADDD-D708-401D-8889-C4B70B102AC4";
userData = {
com.typemytype.robofont.mark = (
0.6,
0.609,
1,
1
);
};
width = 748;
},
{
layerId = "94CDDA45-35D1-47CC-AC03-9E9335022822";
paths = (
{
closed = 1;
nodes = (
"374 648 LINE",
"491 648 LINE",
"355 791 LINE",
"145 791 LINE"
);
},
{
closed = 1;
nodes = (
"90 555 LINE",
"90 215 LINE",
"90 74 OFFCURVE",
"166 -13 OFFCURVE",
"350 -13 CURVE",
"570 -13 OFFCURVE",
"582 157 OFFCURVE",
"582 157 CURVE",
"629 0 LINE",
"725 0 LINE",
"725 555 LINE",
"560 555 LINE",
"560 219 LINE",
"560 219 OFFCURVE",
"526 97 OFFCURVE",
"395 97 CURVE",
"306 97 OFFCURVE",
"254 133 OFFCURVE",
"254 207 CURVE",
"254 555 LINE"
);
}
);
userData = {
com.schriftgestaltung.Glyphs.lastChange = "2018-04-05 15:27:41 +0000";
};
width = 815;
}
);
leftKerningGroup = n;
rightKerningGroup = n;
unicode = 00F9;
},
{
glyphname = v;
lastChange = "2021-03-04 10:47:14 +0000";
layers = (
{
layerId = "C6CCADDD-D708-401D-8889-C4B70B102AC4";
paths = (
{
closed = 1;
nodes = (
"522 555 LINE",
"334 107 LINE",
"148 555 LINE",
"10 555 LINE",
"268 0 LINE",
"399 0 LINE",
"658 555 LINE"
);
}
);
userData = {
com.schriftgestaltung.Glyphs.lastChange = "2018-04-05 15:21:53 +0000";
com.typemytype.robofont.mark = (
0.6,
0.609,
1,
1
);
};
width = 668;
},
{
layerId = "94CDDA45-35D1-47CC-AC03-9E9335022822";
paths = (
{
closed = 1;
nodes = (
"557 555 LINE",
"374 146 LINE",
"191 555 LINE",
"10 555 LINE",
"294 0 LINE",
"454 0 LINE",
"738 555 LINE"
);
}
);
userData = {
com.schriftgestaltung.Glyphs.lastChange = "2018-04-05 15:27:41 +0000";
};
width = 748;
}
);
leftKerningGroup = n;
rightKerningGroup = n;
unicode = 0076;
},
{
glyphname = w;
lastChange = "2021-03-04 10:47:14 +0000";
layers = (
{
layerId = "C6CCADDD-D708-401D-8889-C4B70B102AC4";
paths = (
{
closed = 1;
nodes = (
"356 0 LINE",
"506 465 LINE",
"655 0 LINE",
"787 0 LINE",
"1001 555 LINE",
"863 555 LINE",
"715 107 LINE",
"578 555 LINE",
"433 555 LINE",
"297 107 LINE",
"148 555 LINE",
"10 555 LINE",
"225 0 LINE"
);
}
);
userData = {
com.schriftgestaltung.Glyphs.lastChange = "2018-04-05 15:21:53 +0000";
com.typemytype.robofont.guides = (
{
angle = 0;
isGlobal = 0;
magnetic = 5;
x = 0;
y = 107;
}
);
com.typemytype.robofont.mark = (
0.6,
0.609,
1,
1
);
};
width = 1011;
},
{
layerId = "94CDDA45-35D1-47CC-AC03-9E9335022822";
paths = (
{
closed = 1;
nodes = (
"409 0 LINE",
"548 401 LINE",
"688 0 LINE",
"851 0 LINE",
"1087 555 LINE",
"906 555 LINE",
"764 146 LINE",
"628 555 LINE",
"469 555 LINE",
"333 146 LINE",
"191 555 LINE",
"10 555 LINE",
"246 0 LINE"
);
}
);
userData = {
com.schriftgestaltung.Glyphs.lastChange = "2018-04-05 15:27:41 +0000";
com.typemytype.robofont.guides = (
{
angle = 0;
isGlobal = 0;
magnetic = 5;
x = 0;
y = 156;
}
);
};
width = 1097;
}
);
leftKerningGroup = n;
rightKerningGroup = n;
unicode = 0077;
},
{
glyphname = x;
lastChange = "2021-03-04 10:47:14 +0000";
layers = (
{
layerId = "C6CCADDD-D708-401D-8889-C4B70B102AC4";
paths = (
{
closed = 1;
nodes = (
"164 0 LINE",
"331 204 LINE",
"499 0 LINE",
"652 0 LINE",
"399 276 LINE",
"652 555 LINE",
"503 555 LINE",
"331 350 LINE",
"159 555 LINE",
"10 555 LINE",
"262 276 LINE",
"10 0 LINE"
);
}
);
userData = {
com.schriftgestaltung.Glyphs.lastChange = "2018-04-05 15:21:53 +0000";
com.typemytype.robofont.mark = (
0.6,
0.609,
1,
1
);
};
width = 662;
},
{
layerId = "94CDDA45-35D1-47CC-AC03-9E9335022822";
paths = (
{
closed = 1;
nodes = (
"10 555 LINE",
"283 277 LINE",
"10 0 LINE",
"201 0 LINE",
"379 180 LINE",
"557 0 LINE",
"748 0 LINE",
"474 277 LINE",
"748 555 LINE",
"557 555 LINE",
"379 374 LINE",
"201 555 LINE"
);
}
);
userData = {
com.schriftgestaltung.Glyphs.lastChange = "2018-04-05 15:27:41 +0000";
};
width = 758;
}
);
leftKerningGroup = n;
rightKerningGroup = n;
unicode = 0078;
},
{
glyphname = y;
lastChange = "2021-03-04 10:47:14 +0000";
layers = (
{
anchors = (
{
name = top;
position = "{305, 613}";
}
);
layerId = "C6CCADDD-D708-401D-8889-C4B70B102AC4";
paths = (
{
closed = 1;
nodes = (
"209 -86 OFFCURVE",
"153 -145 OFFCURVE",
"104 -145 CURVE SMOOTH",
"55 -145 OFFCURVE",
"34 -104 OFFCURVE",
"33 -102 CURVE",
"19 -191 LINE",
"19 -191 OFFCURVE",
"55 -237 OFFCURVE",
"129 -237 CURVE SMOOTH",
"221 -237 OFFCURVE",
"282 -154 OFFCURVE",
"357 0 CURVE SMOOTH",
"626 555 LINE",
"490 555 LINE",
"323 162 LINE",
"148 555 LINE",
"10 555 LINE",
"262 35 LINE",
"246 -1 LINE SMOOTH"
);
}
);
userData = {
com.schriftgestaltung.Glyphs.lastChange = "2018-04-05 15:21:53 +0000";
com.typemytype.robofont.mark = (
0.6,
0.609,
1,
1
);
};
width = 636;
},
{
anchors = (
{
name = top;
position = "{360, 633}";
}
);
layerId = "94CDDA45-35D1-47CC-AC03-9E9335022822";
paths = (
{
closed = 1;
nodes = (
"253 -58 OFFCURVE",
"215 -127 OFFCURVE",
"154 -127 CURVE",
"72 -127 OFFCURVE",
"46 -47 OFFCURVE",
"46 -47 CURVE",
"14 -154 LINE",
"14 -154 OFFCURVE",
"64 -237 OFFCURVE",
"170 -237 CURVE SMOOTH",
"274 -237 OFFCURVE",
"337 -188 OFFCURVE",
"403 -62 CURVE SMOOTH",
"728 555 LINE",
"547 555 LINE",
"364 156 LINE",
"191 555 LINE",
"10 555 LINE",
"287 15 LINE"
);
}
);
userData = {
com.schriftgestaltung.Glyphs.lastChange = "2018-04-05 15:27:41 +0000";
};
width = 738;
}
);
leftKerningGroup = n;
rightKerningGroup = n;
unicode = 0079;
},
{
glyphname = yacute;
lastChange = "2021-03-04 10:47:14 +0000";
layers = (
{
components = (
{
name = y;
},
{
name = acute;
transform = "{1, 0, 0, 1, -296, 0}";
}
);
layerId = "C6CCADDD-D708-401D-8889-C4B70B102AC4";
userData = {
com.typemytype.robofont.mark = (
0.6,
0.609,
1,
1
);
};
width = 636;
},
{
layerId = "94CDDA45-35D1-47CC-AC03-9E9335022822";
paths = (
{
closed = 1;
nodes = (
"233 648 LINE",
"350 648 LINE",
"579 792 LINE",
"369 792 LINE"
);
},
{
closed = 1;
nodes = (
"253 -58 OFFCURVE",
"215 -127 OFFCURVE",
"154 -127 CURVE",
"72 -127 OFFCURVE",
"46 -47 OFFCURVE",
"46 -47 CURVE",
"14 -154 LINE",
"14 -154 OFFCURVE",
"64 -237 OFFCURVE",
"170 -237 CURVE SMOOTH",
"274 -237 OFFCURVE",
"337 -188 OFFCURVE",
"403 -62 CURVE SMOOTH",
"728 555 LINE",
"547 555 LINE",
"364 156 LINE",
"191 555 LINE",
"10 555 LINE",
"287 15 LINE"
);
}
);
userData = {
com.schriftgestaltung.Glyphs.lastChange = "2018-04-05 15:27:41 +0000";
};
width = 738;
}
);
leftKerningGroup = n;
rightKerningGroup = n;
unicode = 00FD;
},
{
glyphname = ydieresis;
lastChange = "2021-03-04 10:47:14 +0000";
layers = (
{
components = (
{
name = y;
},
{
name = dieresis;
transform = "{1, 0, 0, 1, 126, 0}";
}
);
layerId = "C6CCADDD-D708-401D-8889-C4B70B102AC4";
userData = {
com.typemytype.robofont.mark = (
0.6,
0.609,
1,
1
);
};
width = 636;
},
{
layerId = "94CDDA45-35D1-47CC-AC03-9E9335022822";
paths = (
{
closed = 1;
nodes = (
"313 642 LINE",
"313 792 LINE",
"175 792 LINE",
"175 642 LINE"
);
},
{
closed = 1;
nodes = (
"553 642 LINE",
"553 792 LINE",
"415 792 LINE",
"415 642 LINE"
);
},
{
closed = 1;
nodes = (
"253 -58 OFFCURVE",
"215 -127 OFFCURVE",
"154 -127 CURVE",
"72 -127 OFFCURVE",
"46 -47 OFFCURVE",
"46 -47 CURVE",
"14 -154 LINE",
"14 -154 OFFCURVE",
"64 -237 OFFCURVE",
"170 -237 CURVE SMOOTH",
"274 -237 OFFCURVE",
"337 -188 OFFCURVE",
"403 -62 CURVE SMOOTH",
"728 555 LINE",
"547 555 LINE",
"364 156 LINE",
"191 555 LINE",
"10 555 LINE",
"287 15 LINE"
);
}
);
userData = {
com.schriftgestaltung.Glyphs.lastChange = "2018-04-05 15:27:41 +0000";
};
width = 738;
}
);
leftKerningGroup = n;
rightKerningGroup = n;
unicode = 00FF;
},
{
glyphname = z;
lastChange = "2021-03-04 10:47:14 +0000";
layers = (
{
layerId = "C6CCADDD-D708-401D-8889-C4B70B102AC4";
paths = (
{
closed = 1;
nodes = (
"570 0 LINE",
"570 75 LINE",
"185 75 LINE",
"570 470 LINE",
"570 555 LINE",
"40 555 LINE",
"40 480 LINE",
"430 480 LINE",
"40 85 LINE",
"40 0 LINE"
);
}
);
userData = {
com.schriftgestaltung.Glyphs.lastChange = "2018-04-05 15:21:53 +0000";
com.typemytype.robofont.guides = (
{
angle = 90;
isGlobal = 0;
magnetic = 5;
x = 40;
y = 0;
},
{
angle = 90;
isGlobal = 0;
magnetic = 5;
x = 570;
y = 0;
}
);
com.typemytype.robofont.mark = (
0.6,
0.609,
1,
1
);
};
width = 610;
},
{
layerId = "94CDDA45-35D1-47CC-AC03-9E9335022822";
paths = (
{
closed = 1;
nodes = (
"645 0 LINE",
"645 97 LINE",
"268 97 LINE",
"645 448 LINE",
"645 555 LINE",
"60 555 LINE",
"60 458 LINE",
"443 458 LINE",
"60 107 LINE",
"60 0 LINE"
);
}
);
userData = {
com.schriftgestaltung.Glyphs.lastChange = "2018-04-05 15:27:41 +0000";
com.typemytype.robofont.guides = (
{
angle = 90;
isGlobal = 0;
magnetic = 5;
x = 72;
y = 0;
},
{
angle = 90;
isGlobal = 0;
magnetic = 5;
x = 655;
y = 0;
}
);
};
width = 705;
}
);
leftKerningGroup = n;
rightKerningGroup = n;
unicode = 007A;
},
{
glyphname = zacute;
lastChange = "2021-03-04 10:47:14 +0000";
layers = (
{
layerId = "C6CCADDD-D708-401D-8889-C4B70B102AC4";
paths = (
{
closed = 1;
nodes = (
"383 821 LINE",
"267 633 LINE",
"334 633 LINE",
"533 821 LINE"
);
},
{
closed = 1;
nodes = (
"40 0 LINE",
"570 0 LINE",
"570 75 LINE",
"195 75 LINE",
"570 470 LINE",
"570 555 LINE",
"40 555 LINE",
"40 480 LINE",
"420 480 LINE",
"40 85 LINE"
);
}
);
userData = {
com.schriftgestaltung.Glyphs.lastChange = "2018-04-05 15:26:54 +0000";
};
width = 610;
},
{
layerId = "94CDDA45-35D1-47CC-AC03-9E9335022822";
paths = (
{
closed = 1;
nodes = (
"409 777 LINE",
"273 633 LINE",
"390 633 LINE",
"619 777 LINE"
);
},
{
closed = 1;
nodes = (
"60 0 LINE",
"645 0 LINE",
"645 97 LINE",
"268 97 LINE",
"645 448 LINE",
"645 555 LINE",
"60 555 LINE",
"60 458 LINE",
"443 458 LINE",
"60 107 LINE"
);
}
);
userData = {
com.schriftgestaltung.Glyphs.lastChange = "2018-04-05 15:33:02 +0000";
};
width = 705;
}
);
leftMetricsKey = z;
rightMetricsKey = z;
unicode = 017A;
},
{
glyphname = zdotaccent;
lastChange = "2021-03-04 10:47:14 +0000";
layers = (
{
layerId = "C6CCADDD-D708-401D-8889-C4B70B102AC4";
paths = (
{
closed = 1;
nodes = (
"245 681 LINE",
"365 681 LINE",
"365 777 LINE",
"245 777 LINE"
);
},
{
closed = 1;
nodes = (
"40 0 LINE",
"570 0 LINE",
"570 75 LINE",
"195 75 LINE",
"570 470 LINE",
"570 555 LINE",
"40 555 LINE",
"40 480 LINE",
"420 480 LINE",
"40 85 LINE"
);
}
);
userData = {
com.schriftgestaltung.Glyphs.lastChange = "2018-04-05 15:26:57 +0000";
};
width = 610;
},
{
layerId = "94CDDA45-35D1-47CC-AC03-9E9335022822";
paths = (
{
closed = 1;
nodes = (
"291 662 LINE",
"429 662 LINE",
"429 812 LINE",
"291 812 LINE"
);
},
{
closed = 1;
nodes = (
"60 0 LINE",
"645 0 LINE",
"645 97 LINE",
"268 97 LINE",
"645 448 LINE",
"645 555 LINE",
"60 555 LINE",
"60 458 LINE",
"443 458 LINE",
"60 107 LINE"
);
}
);
userData = {
com.schriftgestaltung.Glyphs.lastChange = "2018-04-05 15:33:02 +0000";
};
width = 705;
}
);
leftMetricsKey = z;
rightMetricsKey = z;
unicode = 017C;
},
{
glyphname = f_f;
lastChange = "2021-03-04 10:47:14 +0000";
layers = (
{
layerId = "C6CCADDD-D708-401D-8889-C4B70B102AC4";
paths = (
{
closed = 1;
nodes = (
"812 712 OFFCURVE",
"840 590 OFFCURVE",
"840 590 CURVE",
"964 626 LINE",
"964 626 OFFCURVE",
"910 791 OFFCURVE",
"674 791 CURVE",
"563 791 OFFCURVE",
"499 755 OFFCURVE",
"470 712 CURVE",
"440 754 OFFCURVE",
"389 791 OFFCURVE",
"298 791 CURVE",
"161 791 OFFCURVE",
"101 712 OFFCURVE",
"101 646 CURVE",
"101 575 OFFCURVE",
"170 555 OFFCURVE",
"170 555 CURVE",
"10 555 LINE",
"10 480 LINE",
"134 480 LINE",
"134 0 LINE",
"254 0 LINE",
"254 480 LINE",
"482 480 LINE",
"482 0 LINE",
"602 0 LINE",
"602 480 LINE",
"800 480 LINE",
"800 555 LINE",
"596 555 LINE",
"596 555 OFFCURVE",
"566 582 OFFCURVE",
"566 626 CURVE",
"566 679 OFFCURVE",
"609 712 OFFCURVE",
"678 712 CURVE SMOOTH"
);
},
{
closed = 1;
nodes = (
"389 712 OFFCURVE",
"427 680 OFFCURVE",
"449 648 CURVE",
"449 646 LINE",
"449 575 OFFCURVE",
"518 555 OFFCURVE",
"518 555 CURVE",
"248 555 LINE",
"248 555 OFFCURVE",
"218 584 OFFCURVE",
"218 628 CURVE",
"218 681 OFFCURVE",
"261 712 OFFCURVE",
"322 712 CURVE SMOOTH"
);
}
);
userData = {
com.schriftgestaltung.Glyphs.lastChange = "2018-04-05 15:21:53 +0000";
com.typemytype.robofont.mark = (
0.6,
0.609,
1,
1
);
};
width = 844;
},
{
layerId = "94CDDA45-35D1-47CC-AC03-9E9335022822";
paths = (
{
closed = 1;
nodes = (
"0 458 LINE",
"128 458 LINE",
"128 0 LINE",
"293 0 LINE",
"293 458 LINE",
"492 458 LINE",
"492 0 LINE",
"657 0 LINE",
"657 458 LINE",
"859 458 LINE",
"859 555 LINE",
"647 555 LINE",
"647 555 OFFCURVE",
"631 569 OFFCURVE",
"631 594 CURVE SMOOTH",
"631 629 OFFCURVE",
"651 686 OFFCURVE",
"753 686 CURVE SMOOTH",
"905 686 OFFCURVE",
"906 558 OFFCURVE",
"906 558 CURVE",
"1078 602 LINE",
"1078 602 OFFCURVE",
"1025 791 OFFCURVE",
"745 791 CURVE SMOOTH",
"671 791 OFFCURVE",
"612 776 OFFCURVE",
"568 754 CURVE",
"522 775 OFFCURVE",
"460 791 OFFCURVE",
"381 791 CURVE SMOOTH",
"201 791 OFFCURVE",
"110 705 OFFCURVE",
"110 628 CURVE SMOOTH",
"110 576 OFFCURVE",
"147 556 OFFCURVE",
"149 555 CURVE",
"0 555 LINE"
);
},
{
closed = 1;
nodes = (
"283 555 OFFCURVE",
"267 569 OFFCURVE",
"267 594 CURVE SMOOTH",
"267 629 OFFCURVE",
"287 686 OFFCURVE",
"389 686 CURVE SMOOTH",
"430 686 OFFCURVE",
"458 677 OFFCURVE",
"480 664 CURVE",
"476 652 OFFCURVE",
"474 640 OFFCURVE",
"474 628 CURVE SMOOTH",
"474 576 OFFCURVE",
"511 556 OFFCURVE",
"513 555 CURVE",
"283 555 LINE"
);
}
);
userData = {
com.schriftgestaltung.Glyphs.lastChange = "2018-04-05 15:27:41 +0000";
};
width = 928;
}
);
unicode = FB00;
},
{
glyphname = f_i;
lastChange = "2021-03-04 10:47:14 +0000";
layers = (
{
layerId = "C6CCADDD-D708-401D-8889-C4B70B102AC4";
paths = (
{
closed = 1;
nodes = (
"602 0 LINE",
"602 555 LINE",
"248 555 LINE",
"248 555 OFFCURVE",
"218 582 OFFCURVE",
"218 626 CURVE",
"218 679 OFFCURVE",
"261 712 OFFCURVE",
"330 712 CURVE SMOOTH",
"464 712 OFFCURVE",
"492 590 OFFCURVE",
"492 590 CURVE",
"616 626 LINE",
"616 626 OFFCURVE",
"562 791 OFFCURVE",
"326 791 CURVE",
"161 791 OFFCURVE",
"101 712 OFFCURVE",
"101 646 CURVE",
"101 575 OFFCURVE",
"170 555 OFFCURVE",
"170 555 CURVE",
"10 555 LINE",
"10 480 LINE",
"134 480 LINE",
"134 0 LINE",
"254 0 LINE",
"254 480 LINE",
"482 480 LINE",
"482 0 LINE"
);
}
);
userData = {
com.schriftgestaltung.Glyphs.lastChange = "2018-04-05 15:21:53 +0000";
com.typemytype.robofont.mark = (
0.6,
0.609,
1,
1
);
};
width = 706;
},
{
layerId = "94CDDA45-35D1-47CC-AC03-9E9335022822";
paths = (
{
closed = 1;
nodes = (
"10 458 LINE",
"138 458 LINE",
"138 0 LINE",
"303 0 LINE",
"303 458 LINE",
"502 458 LINE",
"502 0 LINE",
"667 0 LINE",
"667 555 LINE",
"293 555 LINE",
"293 555 OFFCURVE",
"277 569 OFFCURVE",
"277 594 CURVE SMOOTH",
"277 629 OFFCURVE",
"297 686 OFFCURVE",
"399 686 CURVE SMOOTH",
"551 686 OFFCURVE",
"552 558 OFFCURVE",
"552 558 CURVE",
"724 602 LINE",
"724 602 OFFCURVE",
"671 791 OFFCURVE",
"391 791 CURVE SMOOTH",
"211 791 OFFCURVE",
"120 705 OFFCURVE",
"120 628 CURVE SMOOTH",
"120 576 OFFCURVE",
"157 556 OFFCURVE",
"159 555 CURVE",
"10 555 LINE"
);
}
);
userData = {
com.schriftgestaltung.Glyphs.lastChange = "2018-04-05 15:27:41 +0000";
};
width = 764;
}
);
unicode = FB01;
},
{
glyphname = f_l;
lastChange = "2021-03-04 10:47:14 +0000";
layers = (
{
layerId = "C6CCADDD-D708-401D-8889-C4B70B102AC4";
paths = (
{
closed = 1;
nodes = (
"602 0 LINE",
"602 777 LINE",
"602 777 OFFCURVE",
"546 766 OFFCURVE",
"482 766 CURVE",
"482 692 LINE",
"482 692 OFFCURVE",
"440 791 OFFCURVE",
"298 791 CURVE",
"161 791 OFFCURVE",
"101 712 OFFCURVE",
"101 646 CURVE SMOOTH",
"101 577 OFFCURVE",
"166 556 OFFCURVE",
"169 555 CURVE",
"10 555 LINE",
"10 480 LINE",
"134 480 LINE",
"134 0 LINE",
"254 0 LINE",
"254 480 LINE",
"482 480 LINE",
"482 0 LINE"
);
},
{
closed = 1;
nodes = (
"248 555 OFFCURVE",
"218 584 OFFCURVE",
"218 628 CURVE SMOOTH",
"218 681 OFFCURVE",
"261 712 OFFCURVE",
"322 712 CURVE SMOOTH",
"473 712 OFFCURVE",
"482 555 OFFCURVE",
"482 555 CURVE",
"248 555 LINE"
);
}
);
userData = {
com.schriftgestaltung.Glyphs.lastChange = "2018-04-05 15:21:53 +0000";
com.typemytype.robofont.mark = (
0.6,
0.609,
1,
1
);
};
width = 692;
},
{
layerId = "94CDDA45-35D1-47CC-AC03-9E9335022822";
paths = (
{
closed = 1;
nodes = (
"0 458 LINE",
"128 458 LINE",
"128 0 LINE",
"293 0 LINE",
"293 458 LINE",
"493 458 LINE",
"493 0 LINE",
"658 0 LINE",
"658 791 LINE",
"658 791 OFFCURVE",
"574 777 OFFCURVE",
"493 777 CURVE",
"493 771 LINE",
"467 782 OFFCURVE",
"431 791 OFFCURVE",
"381 791 CURVE SMOOTH",
"201 791 OFFCURVE",
"110 705 OFFCURVE",
"110 628 CURVE SMOOTH",
"110 576 OFFCURVE",
"147 556 OFFCURVE",
"149 555 CURVE",
"0 555 LINE"
);
},
{
closed = 1;
nodes = (
"267 629 OFFCURVE",
"287 686 OFFCURVE",
"389 686 CURVE SMOOTH",
"438 686 OFFCURVE",
"470 674 OFFCURVE",
"493 655 CURVE",
"493 555 LINE",
"283 555 LINE",
"283 555 OFFCURVE",
"267 569 OFFCURVE",
"267 594 CURVE SMOOTH"
);
}
);
userData = {
com.schriftgestaltung.Glyphs.lastChange = "2018-04-05 15:27:41 +0000";
};
width = 748;
}
);
unicode = FB02;
},
{
glyphname = Alpha;
lastChange = "2021-03-04 10:47:14 +0000";
layers = (
{
layerId = "C6CCADDD-D708-401D-8889-C4B70B102AC4";
paths = (
{
closed = 1;
nodes = (
"954 0 LINE",
"594 777 LINE",
"380 777 LINE",
"20 0 LINE",
"158 0 LINE",
"269 247 LINE",
"704 247 LINE",
"815 0 LINE"
);
},
{
closed = 1;
nodes = (
"505 692 LINE",
"666 332 LINE",
"308 332 LINE",
"470 692 LINE"
);
}
);
userData = {
com.schriftgestaltung.Glyphs.lastChange = "2018-04-05 15:21:53 +0000";
com.typemytype.robofont.mark = (
0.656,
1,
0.6,
1
);
};
width = 974;
},
{
layerId = "94CDDA45-35D1-47CC-AC03-9E9335022822";
paths = (
{
closed = 1;
nodes = (
"1053 0 LINE",
"686 777 LINE",
"377 777 LINE",
"10 0 LINE",
"201 0 LINE",
"308 235 LINE",
"754 235 LINE",
"861 0 LINE"
);
},
{
closed = 1;
nodes = (
"557 668 LINE",
"704 345 LINE",
"358 345 LINE",
"506 668 LINE"
);
}
);
userData = {
com.schriftgestaltung.Glyphs.lastChange = "2018-04-05 15:27:41 +0000";
};
width = 1063;
}
);
leftKerningGroup = Alpha;
rightKerningGroup = Alpha;
unicode = 0391;
},
{
glyphname = Beta;
lastChange = "2021-03-04 10:47:14 +0000";
layers = (
{
layerId = "C6CCADDD-D708-401D-8889-C4B70B102AC4";
paths = (
{
closed = 1;
nodes = (
"789 408 OFFCURVE",
"602 418 OFFCURVE",
"602 418 CURVE",
"602 418 OFFCURVE",
"769 436 OFFCURVE",
"769 587 CURVE",
"769 710 OFFCURVE",
"660 777 OFFCURVE",
"420 777 CURVE SMOOTH",
"90 777 LINE",
"90 0 LINE",
"440 0 LINE SMOOTH",
"680 0 OFFCURVE",
"789 74 OFFCURVE",
"789 221 CURVE"
);
},
{
closed = 1;
nodes = (
"220 692 LINE",
"420 692 LINE SMOOTH",
"540 692 OFFCURVE",
"632 667 OFFCURVE",
"632 567 CURVE SMOOTH",
"632 467 OFFCURVE",
"540 441 OFFCURVE",
"420 441 CURVE SMOOTH",
"220 441 LINE"
);
},
{
closed = 1;
nodes = (
"440 356 LINE SMOOTH",
"560 356 OFFCURVE",
"652 331 OFFCURVE",
"652 221 CURVE SMOOTH",
"652 111 OFFCURVE",
"560 85 OFFCURVE",
"440 85 CURVE SMOOTH",
"220 85 LINE",
"220 356 LINE"
);
}
);
userData = {
com.schriftgestaltung.Glyphs.lastChange = "2018-04-05 15:21:53 +0000";
com.typemytype.robofont.mark = (
0.656,
1,
0.6,
1
);
};
width = 849;
},
{
layerId = "94CDDA45-35D1-47CC-AC03-9E9335022822";
paths = (
{
closed = 1;
nodes = (
"90 777 LINE",
"90 0 LINE",
"476 0 LINE SMOOTH",
"742 0 OFFCURVE",
"862 79 OFFCURVE",
"862 227 CURVE SMOOTH",
"862 375 OFFCURVE",
"714 401 OFFCURVE",
"700 403 CURVE",
"713 405 OFFCURVE",
"842 430 OFFCURVE",
"842 560 CURVE SMOOTH",
"842 708 OFFCURVE",
"722 777 OFFCURVE",
"456 777 CURVE SMOOTH"
);
},
{
closed = 1;
nodes = (
"268 452 LINE",
"268 668 LINE",
"466 668 LINE SMOOTH",
"580 668 OFFCURVE",
"657 640 OFFCURVE",
"657 560 CURVE SMOOTH",
"657 480 OFFCURVE",
"580 452 OFFCURVE",
"466 452 CURVE SMOOTH"
);
},
{
closed = 1;
nodes = (
"268 346 LINE",
"495 346 LINE SMOOTH",
"604 346 OFFCURVE",
"677 306 OFFCURVE",
"677 228 CURVE SMOOTH",
"677 148 OFFCURVE",
"600 110 OFFCURVE",
"486 110 CURVE SMOOTH",
"268 110 LINE"
);
}
);
userData = {
com.schriftgestaltung.Glyphs.lastChange = "2018-04-05 15:27:41 +0000";
};
width = 922;
}
);
unicode = 0392;
},
{
glyphname = Gamma;
lastChange = "2021-03-04 10:47:14 +0000";
layers = (
{
layerId = "C6CCADDD-D708-401D-8889-C4B70B102AC4";
paths = (
{
closed = 1;
nodes = (
"220 0 LINE",
"220 692 LINE",
"676 692 LINE",
"676 777 LINE",
"90 777 LINE",
"90 0 LINE"
);
}
);
userData = {
com.schriftgestaltung.Glyphs.lastChange = "2018-04-05 15:21:53 +0000";
com.typemytype.robofont.mark = (
0.656,
1,
0.6,
1
);
};
width = 745;
},
{
layerId = "94CDDA45-35D1-47CC-AC03-9E9335022822";
paths = (
{
closed = 1;
nodes = (
"268 0 LINE",
"268 668 LINE",
"745 668 LINE",
"745 777 LINE",
"90 777 LINE",
"90 0 LINE"
);
}
);
userData = {
com.schriftgestaltung.Glyphs.lastChange = "2018-04-05 15:27:41 +0000";
};
width = 815;
}
);
rightKerningGroup = Gamma;
unicode = 0393;
},
{
glyphname = uni0394;
lastChange = "2021-03-04 10:47:14 +0000";
layers = (
{
layerId = "C6CCADDD-D708-401D-8889-C4B70B102AC4";
paths = (
{
closed = 1;
nodes = (
"380 777 LINE",
"20 0 LINE",
"954 0 LINE",
"594 777 LINE"
);
},
{
closed = 1;
nodes = (
"505 692 LINE",
"777 85 LINE",
"196 85 LINE",
"470 692 LINE"
);
}
);
userData = {
com.schriftgestaltung.Glyphs.lastChange = "2018-04-05 15:21:53 +0000";
com.typemytype.robofont.mark = (
0.656,
1,
0.6,
1
);
};
width = 974;
},
{
layerId = "94CDDA45-35D1-47CC-AC03-9E9335022822";
paths = (
{
closed = 1;
nodes = (
"377 777 LINE",
"10 0 LINE",
"1053 0 LINE",
"686 777 LINE"
);
},
{
closed = 1;
nodes = (
"557 668 LINE",
"811 110 LINE",
"251 110 LINE",
"506 668 LINE"
);
}
);
userData = {
com.schriftgestaltung.Glyphs.lastChange = "2018-04-05 15:27:41 +0000";
};
width = 1063;
}
);
leftKerningGroup = Alpha;
rightKerningGroup = Alpha;
unicode = 0394;
},
{
glyphname = Epsilon;
lastChange = "2021-03-04 10:47:14 +0000";
layers = (
{
layerId = "C6CCADDD-D708-401D-8889-C4B70B102AC4";
paths = (
{
closed = 1;
nodes = (
"705 0 LINE",
"705 85 LINE",
"220 85 LINE",
"220 347 LINE",
"648 347 LINE",
"648 432 LINE",
"220 432 LINE",
"220 692 LINE",
"676 692 LINE",
"676 777 LINE",
"90 777 LINE",
"90 0 LINE"
);
}
);
userData = {
com.schriftgestaltung.Glyphs.lastChange = "2018-04-05 15:21:53 +0000";
com.typemytype.robofont.mark = (
0.656,
1,
0.6,
1
);
};
width = 745;
},
{
layerId = "94CDDA45-35D1-47CC-AC03-9E9335022822";
paths = (
{
closed = 1;
nodes = (
"775 0 LINE",
"775 110 LINE",
"268 110 LINE",
"268 333 LINE",
"716 333 LINE",
"716 442 LINE",
"268 442 LINE",
"268 668 LINE",
"745 668 LINE",
"745 777 LINE",
"90 777 LINE",
"90 0 LINE"
);
}
);
userData = {
com.schriftgestaltung.Glyphs.lastChange = "2018-04-05 15:27:41 +0000";
};
width = 815;
}
);
unicode = 0395;
},
{
glyphname = Zeta;
lastChange = "2021-03-04 10:47:14 +0000";
layers = (
{
layerId = "C6CCADDD-D708-401D-8889-C4B70B102AC4";
paths = (
{
closed = 1;
nodes = (
"165 85 LINE",
"723 682 LINE",
"723 777 LINE",
"20 777 LINE",
"20 692 LINE",
"578 692 LINE",
"20 95 LINE",
"20 0 LINE",
"723 0 LINE",
"723 85 LINE"
);
}
);
userData = {
com.schriftgestaltung.Glyphs.lastChange = "2018-04-05 15:21:53 +0000";
com.typemytype.robofont.mark = (
0.656,
1,
0.6,
1
);
};
width = 743;
},
{
layerId = "94CDDA45-35D1-47CC-AC03-9E9335022822";
paths = (
{
closed = 1;
nodes = (
"235 110 LINE",
"798 658 LINE",
"798 777 LINE",
"20 777 LINE",
"20 668 LINE",
"583 668 LINE",
"20 120 LINE",
"20 0 LINE",
"798 0 LINE",
"798 110 LINE"
);
}
);
userData = {
com.schriftgestaltung.Glyphs.lastChange = "2018-04-05 15:27:41 +0000";
};
width = 818;
}
);
unicode = 0396;
},
{
glyphname = Eta;
lastChange = "2021-03-04 10:47:14 +0000";
layers = (
{
layerId = "C6CCADDD-D708-401D-8889-C4B70B102AC4";
paths = (
{
closed = 1;
nodes = (
"840 0 LINE",
"840 777 LINE",
"710 777 LINE",
"710 432 LINE",
"220 432 LINE",
"220 777 LINE",
"90 777 LINE",
"90 0 LINE",
"220 0 LINE",
"220 347 LINE",
"710 347 LINE",
"710 0 LINE"
);
}
);
userData = {
com.schriftgestaltung.Glyphs.lastChange = "2018-04-05 15:21:53 +0000";
com.typemytype.robofont.mark = (
0.656,
1,
0.6,
1
);
};
width = 930;
},
{
layerId = "94CDDA45-35D1-47CC-AC03-9E9335022822";
paths = (
{
closed = 1;
nodes = (
"916 0 LINE",
"916 777 LINE",
"738 777 LINE",
"738 442 LINE",
"268 442 LINE",
"268 777 LINE",
"90 777 LINE",
"90 0 LINE",
"268 0 LINE",
"268 333 LINE",
"738 333 LINE",
"738 0 LINE"
);
}
);
userData = {
com.schriftgestaltung.Glyphs.lastChange = "2018-04-05 15:27:41 +0000";
};
width = 1006;
}
);
unicode = 0397;
},
{
glyphname = Theta;
lastChange = "2021-03-04 10:47:14 +0000";
layers = (
{
layerId = "C6CCADDD-D708-401D-8889-C4B70B102AC4";
paths = (
{
closed = 1;
nodes = (
"967 622 OFFCURVE",
"789 791 OFFCURVE",
"513 791 CURVE SMOOTH",
"237 791 OFFCURVE",
"60 622 OFFCURVE",
"60 388 CURVE SMOOTH",
"60 155 OFFCURVE",
"237 -14 OFFCURVE",
"513 -14 CURVE SMOOTH",
"789 -14 OFFCURVE",
"967 155 OFFCURVE",
"967 388 CURVE"
);
},
{
closed = 1;
nodes = (
"685 692 OFFCURVE",
"807 582 OFFCURVE",
"827 432 CURVE",
"200 432 LINE",
"220 582 OFFCURVE",
"341 692 OFFCURVE",
"513 692 CURVE SMOOTH"
);
},
{
closed = 1;
nodes = (
"340 85 OFFCURVE",
"218 196 OFFCURVE",
"200 347 CURVE",
"827 347 LINE",
"809 196 OFFCURVE",
"687 85 OFFCURVE",
"513 85 CURVE SMOOTH"
);
}
);
userData = {
com.schriftgestaltung.Glyphs.lastChange = "2018-04-05 15:21:53 +0000";
com.typemytype.robofont.mark = (
0.656,
1,
0.6,
1
);
};
width = 1027;
},
{
layerId = "94CDDA45-35D1-47CC-AC03-9E9335022822";
paths = (
{
closed = 1;
nodes = (
"60 155 OFFCURVE",
"255 -13 OFFCURVE",
"555 -13 CURVE SMOOTH",
"855 -13 OFFCURVE",
"1050 155 OFFCURVE",
"1050 389 CURVE SMOOTH",
"1050 623 OFFCURVE",
"855 791 OFFCURVE",
"555 791 CURVE SMOOTH",
"255 791 OFFCURVE",
"60 623 OFFCURVE",
"60 389 CURVE SMOOTH"
);
},
{
closed = 1;
nodes = (
"745 668 OFFCURVE",
"841 570 OFFCURVE",
"861 442 CURVE",
"249 442 LINE",
"269 570 OFFCURVE",
"365 668 OFFCURVE",
"555 668 CURVE SMOOTH"
);
},
{
closed = 1;
nodes = (
"366 110 OFFCURVE",
"270 206 OFFCURVE",
"249 333 CURVE",
"861 333 LINE",
"840 206 OFFCURVE",
"744 110 OFFCURVE",
"555 110 CURVE SMOOTH"
);
}
);
userData = {
com.schriftgestaltung.Glyphs.lastChange = "2018-04-05 15:27:41 +0000";
};
width = 1110;
}
);
leftKerningGroup = capsForGamma;
rightKerningGroup = GreeksRoundCaps;
unicode = 0398;
},
{
glyphname = Iota;
lastChange = "2021-03-04 10:47:14 +0000";
layers = (
{
layerId = "C6CCADDD-D708-401D-8889-C4B70B102AC4";
paths = (
{
closed = 1;
nodes = (
"90 0 LINE",
"220 0 LINE",
"220 777 LINE",
"90 777 LINE"
);
}
);
userData = {
com.schriftgestaltung.Glyphs.lastChange = "2018-04-05 15:21:53 +0000";
com.typemytype.robofont.mark = (
0.656,
1,
0.6,
1
);
};
width = 310;
},
{
layerId = "94CDDA45-35D1-47CC-AC03-9E9335022822";
paths = (
{
closed = 1;
nodes = (
"90 0 LINE",
"268 0 LINE",
"268 777 LINE",
"90 777 LINE"
);
}
);
userData = {
com.schriftgestaltung.Glyphs.lastChange = "2018-04-05 15:27:41 +0000";
};
width = 358;
}
);
unicode = 0399;
},
